{
copyright = "Copyright (c) 2015, Cadson Demak (info@cadsondemak.com)";
customParameters = (
{
name = vendorID;
value = CDK;
},
{
name = description;
value = "Copyright (c) 2015, Cadson Demak (info@cadsondemak.com)";
},
{
name = license;

glyphs = (
{
glyphname = A;
lastChange = "2015-11-30 02:09:02 +0000";
layers = (
{
layerId = "E876E4BA-4024-4F05-97F6-A7AFE1BCFA82";
name = "Bold Italic";
paths = (
{
closed = 1;
nodes = (
"162 0 LINE",
"248 144 LINE",
"506 144 LINE",
"532 0 LINE",
"708 0 LINE",
"577 699 LINE",
"403 699 LINE",
"-25 0 LINE"
);
},
{
closed = 1;
nodes = (
"456 515 LINE",
"491 280 LINE",
"320 280 LINE"
);
}
);
width = 783;
}
);
leftKerningGroup = A;
note = A;
rightKerningGroup = A;
unicode = 0041;
},
{
glyphname = Aacute;
lastChange = "2015-11-30 02:09:01 +0000";
layers = (
{
layerId = "E876E4BA-4024-4F05-97F6-A7AFE1BCFA82";
name = "Bold Italic";
paths = (
{
closed = 1;
nodes = (
"162 0 LINE",
"248 144 LINE",
"506 144 LINE",
"532 0 LINE",
"708 0 LINE",
"577 699 LINE",
"403 699 LINE",
"-25 0 LINE"
);
},
{
closed = 1;
nodes = (
"456 515 LINE",
"491 280 LINE",
"320 280 LINE"
);
},
{
closed = 1;
nodes = (
"565 742 LINE",
"694 920 LINE",
"509 920 LINE",
"402 742 LINE"
);
}
);
width = 783;
}
);
leftKerningGroup = A;
note = Aacute;
rightKerningGroup = A;
unicode = 00C1;
},
{
glyphname = Abreve;
lastChange = "2015-11-30 02:09:03 +0000";
layers = (
{
layerId = "E876E4BA-4024-4F05-97F6-A7AFE1BCFA82";
name = "Bold Italic";
paths = (
{
closed = 1;
nodes = (
"162 0 LINE",
"248 144 LINE",
"506 144 LINE",
"532 0 LINE",
"708 0 LINE",
"577 699 LINE",
"403 699 LINE",
"-25 0 LINE"
);
},
{
closed = 1;
nodes = (
"456 515 LINE",
"491 280 LINE",
"320 280 LINE"
);
},
{
closed = 1;
nodes = (
"596 742 OFFCURVE",
"676 810 OFFCURVE",
"699 915 CURVE",
"563 915 LINE",
"554 874 OFFCURVE",
"530 853 OFFCURVE",
"497 853 CURVE SMOOTH",
"463 853 OFFCURVE",
"450 874 OFFCURVE",
"459 915 CURVE",
"334 915 LINE",
"311 810 OFFCURVE",
"362 742 OFFCURVE",
"479 742 CURVE SMOOTH"
);
}
);
width = 783;
}
);
leftKerningGroup = A;
note = Abreve;
rightKerningGroup = A;
unicode = 0102;
},
{
glyphname = Abreveacute;
lastChange = "2015-11-30 02:09:02 +0000";
layers = (
{
layerId = "E876E4BA-4024-4F05-97F6-A7AFE1BCFA82";
name = "Bold Italic";
paths = (
{
closed = 1;
nodes = (
"162 0 LINE",
"248 144 LINE",
"506 144 LINE",
"532 0 LINE",
"708 0 LINE",
"577 699 LINE",
"403 699 LINE",
"-25 0 LINE"
);
},
{
closed = 1;
nodes = (
"456 515 LINE",
"491 280 LINE",
"320 280 LINE"
);
},
{
closed = 1;
nodes = (
"604 742 OFFCURVE",
"684 798 OFFCURVE",
"704 892 CURVE",
"589 892 LINE",
"581 854 OFFCURVE",
"558 838 OFFCURVE",
"520 838 CURVE SMOOTH",
"482 838 OFFCURVE",
"466 854 OFFCURVE",
"474 892 CURVE",
"359 892 LINE",
"339 798 OFFCURVE",
"396 742 OFFCURVE",
"500 742 CURVE SMOOTH"
);
},
{
closed = 1;
nodes = (
"599 914 LINE",
"695 1041 LINE",
"552 1041 LINE",
"475 914 LINE"
);
}
);
width = 783;
}
);
leftKerningGroup = A;
note = Abreveacute;
rightKerningGroup = A;
unicode = 1EAE;
},
{
glyphname = Abrevedotbelow;
lastChange = "2015-11-30 02:09:01 +0000";
layers = (
{
layerId = "E876E4BA-4024-4F05-97F6-A7AFE1BCFA82";
name = "Bold Italic";
paths = (
{
closed = 1;
nodes = (
"162 0 LINE",
"248 144 LINE",
"506 144 LINE",
"532 0 LINE",
"708 0 LINE",
"577 699 LINE",
"403 699 LINE",
"-25 0 LINE"
);
},
{
closed = 1;
nodes = (
"343 -200 OFFCURVE",
"383 -166 OFFCURVE",
"392 -123 CURVE SMOOTH",
"401 -80 OFFCURVE",
"375 -46 OFFCURVE",
"334 -46 CURVE SMOOTH",
"292 -46 OFFCURVE",
"248 -80 OFFCURVE",
"239 -123 CURVE SMOOTH",
"230 -166 OFFCURVE",
"259 -200 OFFCURVE",
"301 -200 CURVE SMOOTH"
);
},
{
closed = 1;
nodes = (
"456 515 LINE",
"491 280 LINE",
"320 280 LINE"
);
},
{
closed = 1;
nodes = (
"596 742 OFFCURVE",
"676 810 OFFCURVE",
"699 915 CURVE",
"563 915 LINE",
"554 874 OFFCURVE",
"530 853 OFFCURVE",
"497 853 CURVE SMOOTH",
"463 853 OFFCURVE",
"450 874 OFFCURVE",
"459 915 CURVE",
"334 915 LINE",
"311 810 OFFCURVE",
"362 742 OFFCURVE",
"479 742 CURVE SMOOTH"
);
}
);
width = 783;
}
);
leftKerningGroup = A;
note = Abrevedotbelow;
rightKerningGroup = A;
unicode = 1EB6;
},
{
glyphname = Abrevegrave;
lastChange = "2015-11-30 02:09:02 +0000";
layers = (
{
layerId = "E876E4BA-4024-4F05-97F6-A7AFE1BCFA82";
name = "Bold Italic";
paths = (
{
closed = 1;
nodes = (
"162 0 LINE",
"248 144 LINE",
"506 144 LINE",
"532 0 LINE",
"708 0 LINE",
"577 699 LINE",
"403 699 LINE",
"-25 0 LINE"
);
},
{
closed = 1;
nodes = (
"456 515 LINE",
"491 280 LINE",
"320 280 LINE"
);
},
{
closed = 1;
nodes = (
"604 742 OFFCURVE",
"684 798 OFFCURVE",
"704 892 CURVE",
"590 892 LINE",
"582 854 OFFCURVE",
"558 838 OFFCURVE",
"520 838 CURVE SMOOTH",
"482 838 OFFCURVE",
"467 854 OFFCURVE",
"475 892 CURVE",
"359 892 LINE",
"339 798 OFFCURVE",
"396 742 OFFCURVE",
"500 742 CURVE SMOOTH"
);
},
{
closed = 1;
nodes = (
"597 914 LINE",
"574 1041 LINE",
"430 1041 LINE",
"473 914 LINE"
);
}
);
width = 783;
}
);
leftKerningGroup = A;
note = Abrevegrave;
rightKerningGroup = A;
unicode = 1EB0;
},
{
glyphname = Abrevehookabove;
lastChange = "2015-11-30 02:09:02 +0000";
layers = (
{
layerId = "E876E4BA-4024-4F05-97F6-A7AFE1BCFA82";
name = "Bold Italic";
paths = (
{
closed = 1;
nodes = (
"162 0 LINE",
"248 144 LINE",
"506 144 LINE",
"532 0 LINE",
"708 0 LINE",
"577 699 LINE",
"403 699 LINE",
"-25 0 LINE"
);
},
{
closed = 1;
nodes = (
"456 515 LINE",
"491 280 LINE",
"320 280 LINE"
);
},
{
closed = 1;
nodes = (
"604 742 OFFCURVE",
"684 798 OFFCURVE",
"704 892 CURVE",
"590 892 LINE",
"582 854 OFFCURVE",
"558 838 OFFCURVE",
"520 838 CURVE SMOOTH",
"482 838 OFFCURVE",
"467 854 OFFCURVE",
"475 892 CURVE",
"359 892 LINE",
"339 798 OFFCURVE",
"396 742 OFFCURVE",
"500 742 CURVE SMOOTH"
);
},
{
closed = 1;
nodes = (
"592 902 LINE",
"596 921 LINE",
"639 930 OFFCURVE",
"663 953 OFFCURVE",
"671 990 CURVE SMOOTH",
"680 1034 OFFCURVE",
"651 1063 OFFCURVE",
"578 1063 CURVE SMOOTH",
"551 1063 OFFCURVE",
"513 1058 OFFCURVE",
"490 1051 CURVE",
"478 992 LINE",
"486 996 OFFCURVE",
"503 999 OFFCURVE",
"515 999 CURVE SMOOTH",
"542 999 OFFCURVE",
"554 993 OFFCURVE",
"551 976 CURVE",
"546 956 OFFCURVE",
"526 950 OFFCURVE",
"494 950 CURVE",
"484 902 LINE"
);
}
);
width = 783;
}
);
leftKerningGroup = A;
note = Abrevehookabove;
rightKerningGroup = A;
unicode = 1EB2;
},
{
glyphname = Abrevetilde;
lastChange = "2015-11-30 02:09:01 +0000";
layers = (
{
layerId = "E876E4BA-4024-4F05-97F6-A7AFE1BCFA82";
name = "Bold Italic";
paths = (
{
closed = 1;
nodes = (
"162 0 LINE",
"248 144 LINE",
"506 144 LINE",
"532 0 LINE",
"708 0 LINE",
"577 699 LINE",
"403 699 LINE",
"-25 0 LINE"
);
},
{
closed = 1;
nodes = (
"456 515 LINE",
"491 280 LINE",
"320 280 LINE"
);
},
{
closed = 1;
nodes = (
"604 742 OFFCURVE",
"684 798 OFFCURVE",
"704 892 CURVE",
"590 892 LINE",
"582 854 OFFCURVE",
"558 838 OFFCURVE",
"520 838 CURVE SMOOTH",
"482 838 OFFCURVE",
"467 854 OFFCURVE",
"475 892 CURVE",
"359 892 LINE",
"339 798 OFFCURVE",
"396 742 OFFCURVE",
"500 742 CURVE SMOOTH"
);
},
{
closed = 1;
nodes = (
"653 922 OFFCURVE",
"683 932 OFFCURVE",
"707 955 CURVE",
"729 1057 LINE",
"699 1028 OFFCURVE",
"669 1016 OFFCURVE",
"638 1016 CURVE SMOOTH",
"587 1016 OFFCURVE",
"540 1058 OFFCURVE",
"487 1058 CURVE SMOOTH",
"451 1058 OFFCURVE",
"421 1048 OFFCURVE",
"397 1024 CURVE",
"375 923 LINE",
"405 952 OFFCURVE",
"435 964 OFFCURVE",
"467 964 CURVE SMOOTH",
"517 964 OFFCURVE",
"561 922 OFFCURVE",
"618 922 CURVE SMOOTH"
);
}
);
width = 783;
}
);
leftKerningGroup = A;
note = Abrevetilde;
rightKerningGroup = A;
unicode = 1EB4;
},
{
glyphname = Acaron;
lastChange = "2015-11-30 02:09:02 +0000";
layers = (
{
layerId = "E876E4BA-4024-4F05-97F6-A7AFE1BCFA82";
name = "Bold Italic";
paths = (
{
closed = 1;
nodes = (
"162 0 LINE",
"248 144 LINE",
"506 144 LINE",
"532 0 LINE",
"708 0 LINE",
"577 699 LINE",
"403 699 LINE",
"-25 0 LINE"
);
},
{
closed = 1;
nodes = (
"456 515 LINE",
"491 280 LINE",
"320 280 LINE"
);
},
{
closed = 1;
nodes = (
"558 742 LINE",
"752 923 LINE",
"573 923 LINE",
"495 838 LINE",
"453 923 LINE",
"284 923 LINE",
"401 742 LINE"
);
}
);
width = 783;
}
);
leftKerningGroup = A;
note = Acaron;
rightKerningGroup = A;
unicode = 01CD;
},
{
glyphname = Acircumflex;
lastChange = "2015-11-30 02:09:03 +0000";
layers = (
{
layerId = "E876E4BA-4024-4F05-97F6-A7AFE1BCFA82";
name = "Bold Italic";
paths = (
{
closed = 1;
nodes = (
"162 0 LINE",
"248 144 LINE",
"506 144 LINE",
"532 0 LINE",
"708 0 LINE",
"577 699 LINE",
"403 699 LINE",
"-25 0 LINE"
);
},
{
closed = 1;
nodes = (
"456 515 LINE",
"491 280 LINE",
"320 280 LINE"
);
},
{
closed = 1;
nodes = (
"425 742 LINE",
"503 827 LINE",
"545 742 LINE",
"714 742 LINE",
"596 923 LINE",
"439 923 LINE",
"246 742 LINE"
);
}
);
width = 783;
}
);
leftKerningGroup = A;
note = Acircumflex;
rightKerningGroup = A;
unicode = 00C2;
},
{
glyphname = Acircumflexacute;
lastChange = "2015-11-30 02:09:01 +0000";
layers = (
{
layerId = "E876E4BA-4024-4F05-97F6-A7AFE1BCFA82";
name = "Bold Italic";
paths = (
{
closed = 1;
nodes = (
"162 0 LINE",
"248 144 LINE",
"506 144 LINE",
"532 0 LINE",
"708 0 LINE",
"577 699 LINE",
"403 699 LINE",
"-25 0 LINE"
);
},
{
closed = 1;
nodes = (
"456 515 LINE",
"491 280 LINE",
"320 280 LINE"
);
},
{
closed = 1;
nodes = (
"447 742 LINE",
"520 809 LINE",
"563 742 LINE",
"718 742 LINE",
"601 899 LINE",
"477 899 LINE",
"291 742 LINE"
);
},
{
closed = 1;
nodes = (
"798 858 LINE",
"909 997 LINE",
"747 997 LINE",
"658 858 LINE"
);
}
);
width = 781;
}
);
leftKerningGroup = A;
note = Acircumflexacute;
rightKerningGroup = A;
unicode = 1EA4;
},
{
glyphname = Acircumflexdotbelow;
lastChange = "2015-11-30 02:09:01 +0000";
layers = (
{
layerId = "E876E4BA-4024-4F05-97F6-A7AFE1BCFA82";
name = "Bold Italic";
paths = (
{
closed = 1;
nodes = (
"162 0 LINE",
"248 144 LINE",
"506 144 LINE",
"532 0 LINE",
"708 0 LINE",
"577 699 LINE",
"403 699 LINE",
"-25 0 LINE"
);
},
{
closed = 1;
nodes = (
"343 -200 OFFCURVE",
"383 -166 OFFCURVE",
"392 -123 CURVE SMOOTH",
"401 -80 OFFCURVE",
"375 -46 OFFCURVE",
"334 -46 CURVE SMOOTH",
"292 -46 OFFCURVE",
"248 -80 OFFCURVE",
"239 -123 CURVE SMOOTH",
"230 -166 OFFCURVE",
"259 -200 OFFCURVE",
"301 -200 CURVE SMOOTH"
);
},
{
closed = 1;
nodes = (
"456 515 LINE",
"491 280 LINE",
"320 280 LINE"
);
},
{
closed = 1;
nodes = (
"425 742 LINE",
"503 827 LINE",
"545 742 LINE",
"714 742 LINE",
"596 923 LINE",
"439 923 LINE",
"246 742 LINE"
);
}
);
width = 783;
}
);
leftKerningGroup = A;
note = Acircumflexdotbelow;
rightKerningGroup = A;
unicode = 1EAC;
},
{
glyphname = Acircumflexgrave;
lastChange = "2015-11-30 02:09:02 +0000";
layers = (
{
layerId = "E876E4BA-4024-4F05-97F6-A7AFE1BCFA82";
name = "Bold Italic";
paths = (
{
closed = 1;
nodes = (
"155 0 LINE",
"241 144 LINE",
"499 144 LINE",
"525 0 LINE",
"701 0 LINE",
"570 699 LINE",
"396 699 LINE",
"-32 0 LINE"
);
},
{
closed = 1;
nodes = (
"449 515 LINE",
"484 280 LINE",
"313 280 LINE"
);
},
{
closed = 1;
nodes = (
"393 858 LINE",
"364 997 LINE",
"202 997 LINE",
"253 858 LINE"
);
},
{
closed = 1;
nodes = (
"439 742 LINE",
"512 809 LINE",
"555 742 LINE",
"710 742 LINE",
"592 899 LINE",
"469 899 LINE",
"283 742 LINE"
);
}
);
width = 776;
}
);
leftKerningGroup = A;
note = Acircumflexgrave;
rightKerningGroup = A;
unicode = 1EA6;
},
{
glyphname = Acircumflexhookabove;
lastChange = "2015-11-30 02:09:01 +0000";
layers = (
{
layerId = "E876E4BA-4024-4F05-97F6-A7AFE1BCFA82";
name = "Bold Italic";
paths = (
{
closed = 1;
nodes = (
"162 0 LINE",
"248 144 LINE",
"506 144 LINE",
"532 0 LINE",
"708 0 LINE",
"577 699 LINE",
"403 699 LINE",
"-25 0 LINE"
);
},
{
closed = 1;
nodes = (
"456 515 LINE",
"491 280 LINE",
"320 280 LINE"
);
},
{
closed = 1;
nodes = (
"439 742 LINE",
"512 809 LINE",
"555 742 LINE",
"710 742 LINE",
"593 899 LINE",
"469 899 LINE",
"283 742 LINE"
);
},
{
closed = 1;
nodes = (
"759 847 LINE",
"764 872 LINE",
"804 881 OFFCURVE",
"832 904 OFFCURVE",
"839 937 CURVE SMOOTH",
"848 981 OFFCURVE",
"817 1011 OFFCURVE",
"747 1011 CURVE SMOOTH",
"720 1011 OFFCURVE",
"680 1005 OFFCURVE",
"658 999 CURVE",
"646 940 LINE",
"655 944 OFFCURVE",
"672 947 OFFCURVE",
"684 947 CURVE SMOOTH",
"711 947 OFFCURVE",
"722 940 OFFCURVE",
"719 924 CURVE SMOOTH",
"715 904 OFFCURVE",
"695 898 OFFCURVE",
"662 898 CURVE",
"651 847 LINE"
);
}
);
width = 783;
}
);
leftKerningGroup = A;
note = Acircumflexhookabove;
rightKerningGroup = A;
unicode = 1EA8;
},
{
glyphname = Acircumflextilde;
lastChange = "2015-11-30 02:09:01 +0000";
layers = (
{
layerId = "E876E4BA-4024-4F05-97F6-A7AFE1BCFA82";
name = "Bold Italic";
paths = (
{
closed = 1;
nodes = (
"162 0 LINE",
"248 144 LINE",
"506 144 LINE",
"532 0 LINE",
"708 0 LINE",
"577 699 LINE",
"403 699 LINE",
"-25 0 LINE"
);
},
{
closed = 1;
nodes = (
"456 515 LINE",
"491 280 LINE",
"320 280 LINE"
);
},
{
closed = 1;
nodes = (
"441 742 LINE",
"514 809 LINE",
"557 742 LINE",
"712 742 LINE",
"595 899 LINE",
"471 899 LINE",
"285 742 LINE"
);
},
{
closed = 1;
nodes = (
"657 910 OFFCURVE",
"687 920 OFFCURVE",
"711 943 CURVE",
"733 1045 LINE",
"704 1016 OFFCURVE",
"673 1004 OFFCURVE",
"642 1004 CURVE SMOOTH",
"592 1004 OFFCURVE",
"544 1046 OFFCURVE",
"492 1046 CURVE SMOOTH",
"456 1046 OFFCURVE",
"426 1036 OFFCURVE",
"402 1012 CURVE",
"380 911 LINE",
"410 940 OFFCURVE",
"440 952 OFFCURVE",
"472 952 CURVE SMOOTH",
"521 952 OFFCURVE",
"566 910 OFFCURVE",
"622 910 CURVE SMOOTH"
);
}
);
width = 783;
}
);
leftKerningGroup = A;
note = Acircumflextilde;
rightKerningGroup = A;
unicode = 1EAA;
},
{
glyphname = Adieresis;
lastChange = "2015-11-30 02:09:01 +0000";
layers = (
{
layerId = "E876E4BA-4024-4F05-97F6-A7AFE1BCFA82";
name = "Bold Italic";
paths = (
{
closed = 1;
nodes = (
"162 0 LINE",
"248 144 LINE",
"506 144 LINE",
"532 0 LINE",
"708 0 LINE",
"577 699 LINE",
"403 699 LINE",
"-25 0 LINE"
);
},
{
closed = 1;
nodes = (
"456 515 LINE",
"491 280 LINE",
"320 280 LINE"
);
},
{
closed = 1;
nodes = (
"404 742 OFFCURVE",
"445 775 OFFCURVE",
"454 818 CURVE SMOOTH",
"463 861 OFFCURVE",
"436 896 OFFCURVE",
"394 896 CURVE SMOOTH",
"353 896 OFFCURVE",
"310 861 OFFCURVE",
"301 818 CURVE SMOOTH",
"292 775 OFFCURVE",
"321 742 OFFCURVE",
"362 742 CURVE SMOOTH"
);
},
{
closed = 1;
nodes = (
"639 742 OFFCURVE",
"681 775 OFFCURVE",
"690 818 CURVE SMOOTH",
"699 861 OFFCURVE",
"671 896 OFFCURVE",
"630 896 CURVE SMOOTH",
"588 896 OFFCURVE",
"545 861 OFFCURVE",
"536 818 CURVE SMOOTH",
"527 775 OFFCURVE",
"556 742 OFFCURVE",
"598 742 CURVE SMOOTH"
);
}
);
width = 783;
}
);
leftKerningGroup = A;
note = Adieresis;
rightKerningGroup = A;
unicode = 00C4;
},
{
glyphname = Adotbelow;
lastChange = "2015-11-30 02:09:01 +0000";
layers = (
{
layerId = "E876E4BA-4024-4F05-97F6-A7AFE1BCFA82";
name = "Bold Italic";
paths = (
{
closed = 1;
nodes = (
"162 0 LINE",
"248 144 LINE",
"506 144 LINE",
"532 0 LINE",
"708 0 LINE",
"577 699 LINE",
"403 699 LINE",
"-25 0 LINE"
);
},
{
closed = 1;
nodes = (
"343 -200 OFFCURVE",
"383 -166 OFFCURVE",
"392 -123 CURVE SMOOTH",
"401 -80 OFFCURVE",
"375 -46 OFFCURVE",
"334 -46 CURVE SMOOTH",
"292 -46 OFFCURVE",
"248 -80 OFFCURVE",
"239 -123 CURVE SMOOTH",
"230 -166 OFFCURVE",
"259 -200 OFFCURVE",
"301 -200 CURVE SMOOTH"
);
},
{
closed = 1;
nodes = (
"456 515 LINE",
"491 280 LINE",
"320 280 LINE"
);
}
);
width = 783;
}
);
leftKerningGroup = A;
note = Adotbelow;
rightKerningGroup = A;
unicode = 1EA0;
},
{
glyphname = Agrave;
lastChange = "2015-11-30 02:09:01 +0000";
layers = (
{
layerId = "E876E4BA-4024-4F05-97F6-A7AFE1BCFA82";
name = "Bold Italic";
paths = (
{
closed = 1;
nodes = (
"162 0 LINE",
"248 144 LINE",
"506 144 LINE",
"532 0 LINE",
"708 0 LINE",
"577 699 LINE",
"403 699 LINE",
"-25 0 LINE"
);
},
{
closed = 1;
nodes = (
"456 515 LINE",
"491 280 LINE",
"320 280 LINE"
);
},
{
closed = 1;
nodes = (
"564 742 LINE",
"533 920 LINE",
"348 920 LINE",
"401 742 LINE"
);
}
);
width = 783;
}
);
leftKerningGroup = A;
note = Agrave;
rightKerningGroup = A;
unicode = 00C0;
},
{
glyphname = Ahookabove;
lastChange = "2015-11-30 02:09:01 +0000";
layers = (
{
layerId = "E876E4BA-4024-4F05-97F6-A7AFE1BCFA82";
name = "Bold Italic";
paths = (
{
closed = 1;
nodes = (
"162 0 LINE",
"248 144 LINE",
"506 144 LINE",
"532 0 LINE",
"708 0 LINE",
"577 699 LINE",
"403 699 LINE",
"-25 0 LINE"
);
},
{
closed = 1;
nodes = (
"456 515 LINE",
"491 280 LINE",
"320 280 LINE"
);
},
{
closed = 1;
nodes = (
"559 742 LINE",
"564 767 LINE",
"623 781 OFFCURVE",
"664 821 OFFCURVE",
"674 869 CURVE SMOOTH",
"687 932 OFFCURVE",
"644 975 OFFCURVE",
"538 975 CURVE SMOOTH",
"498 975 OFFCURVE",
"446 968 OFFCURVE",
"415 959 CURVE",
"397 875 LINE",
"411 881 OFFCURVE",
"440 885 OFFCURVE",
"456 885 CURVE SMOOTH",
"498 885 OFFCURVE",
"513 873 OFFCURVE",
"508 852 CURVE",
"502 821 OFFCURVE",
"468 812 OFFCURVE",
"420 812 CURVE",
"405 742 LINE"
);
}
);
width = 783;
}
);
leftKerningGroup = A;
note = Ahookabove;
rightKerningGroup = A;
unicode = 1EA2;
},
{
glyphname = Amacron;
lastChange = "2015-11-30 02:09:01 +0000";
layers = (
{
layerId = "E876E4BA-4024-4F05-97F6-A7AFE1BCFA82";
name = "Bold Italic";
paths = (
{
closed = 1;
nodes = (
"162 0 LINE",
"248 144 LINE",
"506 144 LINE",
"532 0 LINE",
"708 0 LINE",
"577 699 LINE",
"403 699 LINE",
"-25 0 LINE"
);
},
{
closed = 1;
nodes = (
"456 515 LINE",
"491 280 LINE",
"320 280 LINE"
);
},
{
closed = 1;
nodes = (
"654 752 LINE",
"678 865 LINE",
"334 865 LINE",
"310 752 LINE"
);
}
);
width = 783;
}
);
leftKerningGroup = A;
note = Amacron;
rightKerningGroup = A;
unicode = 0100;
},
{
glyphname = Aogonek;
lastChange = "2015-11-30 02:09:02 +0000";
layers = (
{
layerId = "E876E4BA-4024-4F05-97F6-A7AFE1BCFA82";
name = "Bold Italic";
paths = (
{
closed = 1;
nodes = (
"601 -216 OFFCURVE",
"640 -210 OFFCURVE",
"668 -201 CURVE",
"688 -105 LINE",
"671 -113 OFFCURVE",
"654 -117 OFFCURVE",
"638 -117 CURVE SMOOTH",
"617 -117 OFFCURVE",
"606 -104 OFFCURVE",
"611 -84 CURVE",
"617 -55 OFFCURVE",
"647 -29 OFFCURVE",
"708 0 CURVE",
"577 699 LINE",
"403 699 LINE",
"-25 0 LINE",
"162 0 LINE",
"248 144 LINE",
"506 144 LINE",
"532 0 LINE",
"501 -25 OFFCURVE",
"463 -66 OFFCURVE",
"452 -119 CURVE SMOOTH",
"438 -187 OFFCURVE",
"490 -216 OFFCURVE",
"563 -216 CURVE SMOOTH"
);
},
{
closed = 1;
nodes = (
"456 515 LINE",
"491 280 LINE",
"320 280 LINE"
);
}
);
width = 783;
}
);
leftKerningGroup = A;
note = Aogonek;
rightKerningGroup = A;
unicode = 0104;
},
{
glyphname = Aring;
lastChange = "2015-11-30 02:09:01 +0000";
layers = (
{
layerId = "E876E4BA-4024-4F05-97F6-A7AFE1BCFA82";
name = "Bold Italic";
paths = (
{
closed = 1;
nodes = (
"162 0 LINE",
"248 144 LINE",
"506 144 LINE",
"532 0 LINE",
"708 0 LINE",
"582 673 LINE",
"614 698 OFFCURVE",
"639 734 OFFCURVE",
"648 774 CURVE SMOOTH",
"664 852 OFFCURVE",
"614 914 OFFCURVE",
"536 914 CURVE SMOOTH",
"458 914 OFFCURVE",
"381 852 OFFCURVE",
"365 774 CURVE SMOOTH",
"357 734 OFFCURVE",
"366 698 OFFCURVE",
"387 673 CURVE",
"-25 0 LINE"
);
},
{
closed = 1;
nodes = (
"456 515 LINE",
"491 280 LINE",
"320 280 LINE"
);
},
{
closed = 1;
nodes = (
"465 728 OFFCURVE",
"455 749 OFFCURVE",
"460 774 CURVE SMOOTH",
"465 800 OFFCURVE",
"491 820 OFFCURVE",
"516 820 CURVE SMOOTH",
"547 820 OFFCURVE",
"557 800 OFFCURVE",
"552 774 CURVE SMOOTH",
"547 749 OFFCURVE",
"522 728 OFFCURVE",
"496 728 CURVE SMOOTH"
);
}
);
width = 783;
}
);
leftKerningGroup = A;
note = Aring;
rightKerningGroup = A;
unicode = 00C5;
},
{
glyphname = Aringacute;
lastChange = "2015-11-30 02:09:01 +0000";
layers = (
{
layerId = "E876E4BA-4024-4F05-97F6-A7AFE1BCFA82";
name = "Bold Italic";
paths = (
{
closed = 1;
nodes = (
"162 0 LINE",
"248 144 LINE",
"506 144 LINE",
"532 0 LINE",
"708 0 LINE",
"582 673 LINE",
"614 698 OFFCURVE",
"639 734 OFFCURVE",
"648 774 CURVE SMOOTH",
"664 852 OFFCURVE",
"614 914 OFFCURVE",
"536 914 CURVE SMOOTH",
"458 914 OFFCURVE",
"381 852 OFFCURVE",
"365 774 CURVE SMOOTH",
"357 734 OFFCURVE",
"366 698 OFFCURVE",
"387 673 CURVE",
"-25 0 LINE"
);
},
{
closed = 1;
nodes = (
"456 515 LINE",
"491 280 LINE",
"320 280 LINE"
);
},
{
closed = 1;
nodes = (
"465 728 OFFCURVE",
"455 749 OFFCURVE",
"460 774 CURVE SMOOTH",
"465 800 OFFCURVE",
"491 820 OFFCURVE",
"516 820 CURVE SMOOTH",
"547 820 OFFCURVE",
"557 800 OFFCURVE",
"552 774 CURVE SMOOTH",
"547 749 OFFCURVE",
"522 728 OFFCURVE",
"496 728 CURVE SMOOTH"
);
},
{
closed = 1;
nodes = (
"614 929 LINE",
"743 1071 LINE",
"558 1071 LINE",
"451 929 LINE"
);
}
);
width = 783;
}
);
leftKerningGroup = A;
note = Aringacute;
rightKerningGroup = A;
unicode = 01FA;
},
{
glyphname = Atilde;
lastChange = "2015-11-30 02:09:02 +0000";
layers = (
{
layerId = "E876E4BA-4024-4F05-97F6-A7AFE1BCFA82";
name = "Bold Italic";
paths = (
{
closed = 1;
nodes = (
"162 0 LINE",
"248 144 LINE",
"506 144 LINE",
"532 0 LINE",
"708 0 LINE",
"577 699 LINE",
"403 699 LINE",
"-25 0 LINE"
);
},
{
closed = 1;
nodes = (
"456 515 LINE",
"491 280 LINE",
"320 280 LINE"
);
},
{
closed = 1;
nodes = (
"315 779 OFFCURVE",
"353 793 OFFCURVE",
"392 793 CURVE SMOOTH",
"456 793 OFFCURVE",
"506 743 OFFCURVE",
"579 743 CURVE SMOOTH",
"623 743 OFFCURVE",
"661 754 OFFCURVE",
"691 784 CURVE",
"718 912 LINE",
"681 876 OFFCURVE",
"644 862 OFFCURVE",
"604 862 CURVE SMOOTH",
"539 862 OFFCURVE",
"485 912 OFFCURVE",
"417 912 CURVE SMOOTH",
"374 912 OFFCURVE",
"335 900 OFFCURVE",
"304 870 CURVE",
"276 742 LINE"
);
}
);
width = 783;
}
);
leftKerningGroup = A;
note = Atilde;
rightKerningGroup = A;
unicode = 00C3;
},
{
glyphname = AE;
lastChange = "2015-11-30 02:09:02 +0000";
layers = (
{
layerId = "E876E4BA-4024-4F05-97F6-A7AFE1BCFA82";
name = "Bold Italic";
paths = (
{
closed = 1;
nodes = (
"165 0 LINE",
"259 145 LINE",
"404 145 LINE",
"374 0 LINE",
"842 0 LINE",
"873 149 LINE",
"583 149 LINE",
"611 280 LINE",
"816 280 LINE",
"846 419 LINE",
"641 419 LINE",
"668 550 LINE",
"958 550 LINE",
"990 699 LINE",
"429 699 LINE",
"-25 0 LINE"
);
},
{
closed = 1;
nodes = (
"490 550 LINE",
"491 550 LINE",
"434 284 LINE",
"339 284 LINE"
);
}
);
width = 907;
}
);
leftKerningGroup = A;
note = AE;
rightKerningGroup = E;
unicode = 00C6;
},
{
glyphname = AEacute;
lastChange = "2015-11-30 02:09:01 +0000";
layers = (
{
layerId = "E876E4BA-4024-4F05-97F6-A7AFE1BCFA82";
name = "Bold Italic";
paths = (
{
closed = 1;
nodes = (
"165 0 LINE",
"259 145 LINE",
"404 145 LINE",
"374 0 LINE",
"842 0 LINE",
"873 149 LINE",
"583 149 LINE",
"611 280 LINE",
"816 280 LINE",
"846 419 LINE",
"641 419 LINE",
"668 550 LINE",
"958 550 LINE",
"990 699 LINE",
"429 699 LINE",
"-25 0 LINE"
);
},
{
closed = 1;
nodes = (
"490 550 LINE",
"491 550 LINE",
"434 284 LINE",
"339 284 LINE"
);
},
{
closed = 1;
nodes = (
"709 742 LINE",
"838 920 LINE",
"653 920 LINE",
"546 742 LINE"
);
}
);
width = 917;
}
);
leftKerningGroup = A;
note = AEacute;
rightKerningGroup = E;
unicode = 01FC;
},
{
glyphname = B;
lastChange = "2015-11-30 02:09:01 +0000";
layers = (
{
layerId = "E876E4BA-4024-4F05-97F6-A7AFE1BCFA82";
name = "Bold Italic";
paths = (
{
closed = 1;
nodes = (
"366 0 LINE SMOOTH",
"503 0 OFFCURVE",
"605 77 OFFCURVE",
"633 209 CURVE SMOOTH",
"650 290 OFFCURVE",
"628 337 OFFCURVE",
"567 364 CURVE",
"622 394 OFFCURVE",
"662 447 OFFCURVE",
"674 506 CURVE SMOOTH",
"701 633 OFFCURVE",
"614 699 OFFCURVE",
"497 699 CURVE SMOOTH",
"143 699 LINE",
"-5 0 LINE"
);
},
{
closed = 1;
nodes = (
"233 291 LINE",
"378 291 LINE SMOOTH",
"439 291 OFFCURVE",
"466 268 OFFCURVE",
"454 209 CURVE SMOOTH",
"441 149 OFFCURVE",
"406 132 OFFCURVE",
"349 132 CURVE SMOOTH",
"200 132 LINE"
);
},
{
closed = 1;
nodes = (
"292 567 LINE",
"427 567 LINE SMOOTH",
"478 567 OFFCURVE",
"505 553 OFFCURVE",
"493 495 CURVE SMOOTH",
"481 442 OFFCURVE",
"446 422 OFFCURVE",
"399 422 CURVE SMOOTH",
"261 422 LINE"
);
}
);
width = 664;
}
);
note = B;
unicode = 0042;
},
{
glyphname = C;
lastChange = "2015-11-30 02:09:02 +0000";
layers = (
{
layerId = "E876E4BA-4024-4F05-97F6-A7AFE1BCFA82";
name = "Bold Italic";
paths = (
{
closed = 1;
nodes = (
"452 -15 OFFCURVE",
"542 5 OFFCURVE",
"617 50 CURVE",
"653 217 LINE",
"576 167 OFFCURVE",
"498 146 OFFCURVE",
"403 146 CURVE SMOOTH",
"230 146 OFFCURVE",
"204 223 OFFCURVE",
"231 349 CURVE SMOOTH",
"257 474 OFFCURVE",
"351 551 OFFCURVE",
"489 551 CURVE SMOOTH",
"582 551 OFFCURVE",
"652 532 OFFCURVE",
"701 484 CURVE",
"737 652 LINE",
"679 695 OFFCURVE",
"606 714 OFFCURVE",
"507 714 CURVE SMOOTH",
"265 714 OFFCURVE",
"97 574 OFFCURVE",
"49 349 CURVE SMOOTH",
"1 124 OFFCURVE",
"153 -15 OFFCURVE",
"352 -15 CURVE SMOOTH"
);
}
);
width = 682;
}
);
leftKerningGroup = C;
note = C;
rightKerningGroup = C;
unicode = 0043;
},
{
glyphname = Cacute;
lastChange = "2015-11-30 02:09:03 +0000";
layers = (
{
layerId = "E876E4BA-4024-4F05-97F6-A7AFE1BCFA82";
name = "Bold Italic";
paths = (
{
closed = 1;
nodes = (
"452 -15 OFFCURVE",
"542 5 OFFCURVE",
"617 50 CURVE",
"653 217 LINE",
"576 167 OFFCURVE",
"498 146 OFFCURVE",
"403 146 CURVE SMOOTH",
"230 146 OFFCURVE",
"204 223 OFFCURVE",
"231 349 CURVE SMOOTH",
"257 474 OFFCURVE",
"351 551 OFFCURVE",
"489 551 CURVE SMOOTH",
"582 551 OFFCURVE",
"652 532 OFFCURVE",
"701 484 CURVE",
"737 652 LINE",
"679 695 OFFCURVE",
"606 714 OFFCURVE",
"507 714 CURVE SMOOTH",
"265 714 OFFCURVE",
"97 574 OFFCURVE",
"49 349 CURVE SMOOTH",
"1 124 OFFCURVE",
"153 -15 OFFCURVE",
"352 -15 CURVE SMOOTH"
);
},
{
closed = 1;
nodes = (
"573 742 LINE",
"702 920 LINE",
"517 920 LINE",
"410 742 LINE"
);
}
);
width = 682;
}
);
leftKerningGroup = C;
note = Cacute;
rightKerningGroup = C;
unicode = 0106;
},
{
glyphname = Ccaron;
lastChange = "2015-11-30 02:09:01 +0000";
layers = (
{
layerId = "E876E4BA-4024-4F05-97F6-A7AFE1BCFA82";
name = "Bold Italic";
paths = (
{
closed = 1;
nodes = (
"452 -15 OFFCURVE",
"542 5 OFFCURVE",
"617 50 CURVE",
"653 217 LINE",
"576 167 OFFCURVE",
"498 146 OFFCURVE",
"403 146 CURVE SMOOTH",
"230 146 OFFCURVE",
"204 223 OFFCURVE",
"231 349 CURVE SMOOTH",
"257 474 OFFCURVE",
"351 551 OFFCURVE",
"489 551 CURVE SMOOTH",
"582 551 OFFCURVE",
"652 532 OFFCURVE",
"701 484 CURVE",
"737 652 LINE",
"679 695 OFFCURVE",
"606 714 OFFCURVE",
"507 714 CURVE SMOOTH",
"265 714 OFFCURVE",
"97 574 OFFCURVE",
"49 349 CURVE SMOOTH",
"1 124 OFFCURVE",
"153 -15 OFFCURVE",
"352 -15 CURVE SMOOTH"
);
},
{
closed = 1;
nodes = (
"569 742 LINE",
"763 923 LINE",
"584 923 LINE",
"506 838 LINE",
"464 923 LINE",
"295 923 LINE",
"412 742 LINE"
);
}
);
width = 669;
}
);
leftKerningGroup = C;
note = Ccaron;
rightKerningGroup = C;
unicode = 010C;
},
{
glyphname = Ccedilla;
lastChange = "2015-11-30 02:09:01 +0000";
layers = (
{
layerId = "E876E4BA-4024-4F05-97F6-A7AFE1BCFA82";
name = "Bold Italic";
paths = (
{
closed = 1;
nodes = (
"405 -248 OFFCURVE",
"478 -215 OFFCURVE",
"492 -141 CURVE SMOOTH",
"501 -92 OFFCURVE",
"473 -56 OFFCURVE",
"423 -46 CURVE",
"446 -8 LINE",
"509 0 OFFCURVE",
"566 19 OFFCURVE",
"617 50 CURVE",
"653 217 LINE",
"576 167 OFFCURVE",
"498 146 OFFCURVE",
"403 146 CURVE SMOOTH",
"230 146 OFFCURVE",
"204 223 OFFCURVE",
"231 349 CURVE SMOOTH",
"257 474 OFFCURVE",
"351 551 OFFCURVE",
"489 551 CURVE SMOOTH",
"582 551 OFFCURVE",
"652 532 OFFCURVE",
"701 484 CURVE",
"737 652 LINE",
"679 695 OFFCURVE",
"606 714 OFFCURVE",
"507 714 CURVE SMOOTH",
"265 714 OFFCURVE",
"97 574 OFFCURVE",
"49 349 CURVE SMOOTH",
"6 148 OFFCURVE",
"123 15 OFFCURVE",
"290 -10 CURVE",
"244 -89 LINE",
"319 -89 OFFCURVE",
"338 -105 OFFCURVE",
"333 -129 CURVE SMOOTH",
"329 -150 OFFCURVE",
"309 -163 OFFCURVE",
"276 -163 CURVE SMOOTH",
"253 -163 OFFCURVE",
"231 -157 OFFCURVE",
"218 -149 CURVE",
"200 -234 LINE",
"219 -242 OFFCURVE",
"264 -248 OFFCURVE",
"310 -248 CURVE SMOOTH"
);
}
);
width = 682;
}
);
leftKerningGroup = C;
note = Ccedilla;
rightKerningGroup = C;
unicode = 00C7;
},
{
glyphname = Ccircumflex;
lastChange = "2015-11-30 02:09:02 +0000";
layers = (
{
layerId = "E876E4BA-4024-4F05-97F6-A7AFE1BCFA82";
name = "Bold Italic";
paths = (
{
closed = 1;
nodes = (
"452 -15 OFFCURVE",
"542 5 OFFCURVE",
"617 50 CURVE",
"653 217 LINE",
"576 167 OFFCURVE",
"498 146 OFFCURVE",
"403 146 CURVE SMOOTH",
"230 146 OFFCURVE",
"204 223 OFFCURVE",
"231 349 CURVE SMOOTH",
"257 474 OFFCURVE",
"351 551 OFFCURVE",
"489 551 CURVE SMOOTH",
"582 551 OFFCURVE",
"652 532 OFFCURVE",
"701 484 CURVE",
"737 652 LINE",
"679 695 OFFCURVE",
"606 714 OFFCURVE",
"507 714 CURVE SMOOTH",
"265 714 OFFCURVE",
"97 574 OFFCURVE",
"49 349 CURVE SMOOTH",
"1 124 OFFCURVE",
"153 -15 OFFCURVE",
"352 -15 CURVE SMOOTH"
);
},
{
closed = 1;
nodes = (
"424 742 LINE",
"502 827 LINE",
"544 742 LINE",
"713 742 LINE",
"595 923 LINE",
"438 923 LINE",
"245 742 LINE"
);
}
);
width = 682;
}
);
leftKerningGroup = C;
note = Ccircumflex;
rightKerningGroup = C;
unicode = 0108;
},
{
glyphname = Cdotaccent;
lastChange = "2015-11-30 02:09:01 +0000";
layers = (
{
layerId = "E876E4BA-4024-4F05-97F6-A7AFE1BCFA82";
name = "Bold Italic";
paths = (
{
closed = 1;
nodes = (
"452 -15 OFFCURVE",
"542 5 OFFCURVE",
"617 50 CURVE",
"653 217 LINE",
"576 167 OFFCURVE",
"498 146 OFFCURVE",
"403 146 CURVE SMOOTH",
"230 146 OFFCURVE",
"204 223 OFFCURVE",
"231 349 CURVE SMOOTH",
"257 474 OFFCURVE",
"351 551 OFFCURVE",
"489 551 CURVE SMOOTH",
"582 551 OFFCURVE",
"652 532 OFFCURVE",
"701 484 CURVE",
"737 652 LINE",
"679 695 OFFCURVE",
"606 714 OFFCURVE",
"507 714 CURVE SMOOTH",
"265 714 OFFCURVE",
"97 574 OFFCURVE",
"49 349 CURVE SMOOTH",
"1 124 OFFCURVE",
"153 -15 OFFCURVE",
"352 -15 CURVE SMOOTH"
);
},
{
closed = 1;
nodes = (
"542 752 OFFCURVE",
"583 785 OFFCURVE",
"592 828 CURVE SMOOTH",
"601 871 OFFCURVE",
"574 906 OFFCURVE",
"532 906 CURVE SMOOTH",
"490 906 OFFCURVE",
"447 871 OFFCURVE",
"438 828 CURVE SMOOTH",
"429 785 OFFCURVE",
"458 752 OFFCURVE",
"500 752 CURVE SMOOTH"
);
}
);
width = 682;
}
);
leftKerningGroup = C;
note = Cdotaccent;
rightKerningGroup = C;
unicode = 010A;
},
{
glyphname = D;
lastChange = "2015-11-30 02:09:01 +0000";
layers = (
{
layerId = "E876E4BA-4024-4F05-97F6-A7AFE1BCFA82";
name = "Bold Italic";
paths = (
{
closed = 1;
nodes = (
"258 0 LINE SMOOTH",
"493 0 OFFCURVE",
"654 115 OFFCURVE",
"701 353 CURVE SMOOTH",
"741 557 OFFCURVE",
"606 699 OFFCURVE",
"394 699 CURVE SMOOTH",
"143 699 LINE",
"-5 0 LINE"
);
},
{
closed = 1;
nodes = (
"288 550 LINE",
"378 550 LINE SMOOTH",
"522 550 OFFCURVE",
"542 464 OFFCURVE",
"519 353 CURVE SMOOTH",
"492 230 OFFCURVE",
"411 149 OFFCURVE",
"287 149 CURVE SMOOTH",
"203 149 LINE"
);
}
);
width = 701;
}
);
note = D;
rightKerningGroup = D;
unicode = 0044;
},
{
glyphname = Eth;
lastChange = "2015-11-30 02:09:01 +0000";
layers = (
{
layerId = "E876E4BA-4024-4F05-97F6-A7AFE1BCFA82";
name = "Bold Italic";
paths = (
{
closed = 1;
nodes = (
"299 0 LINE SMOOTH",
"534 0 OFFCURVE",
"695 115 OFFCURVE",
"742 353 CURVE SMOOTH",
"782 557 OFFCURVE",
"647 699 OFFCURVE",
"435 699 CURVE SMOOTH",
"184 699 LINE",
"124 415 LINE",
"73 415 LINE",
"45 283 LINE",
"96 283 LINE",
"36 0 LINE"
);
},
{
closed = 1;
nodes = (
"272 283 LINE",
"416 283 LINE",
"444 415 LINE",
"300 415 LINE",
"329 550 LINE",
"419 550 LINE SMOOTH",
"563 550 OFFCURVE",
"583 464 OFFCURVE",
"560 353 CURVE SMOOTH",
"533 230 OFFCURVE",
"452 149 OFFCURVE",
"328 149 CURVE SMOOTH",
"244 149 LINE"
);
}
);
width = 742;
}
);
note = Eth;
rightKerningGroup = D;
unicode = 00D0;
},
{
glyphname = Dcaron;
lastChange = "2015-11-30 02:09:01 +0000";
layers = (
{
layerId = "E876E4BA-4024-4F05-97F6-A7AFE1BCFA82";
name = "Bold Italic";
paths = (
{
closed = 1;
nodes = (
"258 0 LINE SMOOTH",
"493 0 OFFCURVE",
"654 115 OFFCURVE",
"701 353 CURVE SMOOTH",
"741 557 OFFCURVE",
"606 699 OFFCURVE",
"394 699 CURVE SMOOTH",
"143 699 LINE",
"-5 0 LINE"
);
},
{
closed = 1;
nodes = (
"288 550 LINE",
"378 550 LINE SMOOTH",
"522 550 OFFCURVE",
"542 464 OFFCURVE",
"519 353 CURVE SMOOTH",
"492 230 OFFCURVE",
"411 149 OFFCURVE",
"287 149 CURVE SMOOTH",
"203 149 LINE"
);
},
{
closed = 1;
nodes = (
"490 742 LINE",
"684 923 LINE",
"505 923 LINE",
"427 838 LINE",
"385 923 LINE",
"216 923 LINE",
"333 742 LINE"
);
}
);
width = 701;
}
);
note = Dcaron;
rightKerningGroup = D;
unicode = 010E;
},
{
glyphname = Dcroat;
lastChange = "2015-11-30 02:09:03 +0000";
layers = (
{
layerId = "E876E4BA-4024-4F05-97F6-A7AFE1BCFA82";
name = "Bold Italic";
paths = (
{
closed = 1;
nodes = (
"299 0 LINE SMOOTH",
"534 0 OFFCURVE",
"695 115 OFFCURVE",
"742 353 CURVE SMOOTH",
"782 557 OFFCURVE",
"647 699 OFFCURVE",
"435 699 CURVE SMOOTH",
"184 699 LINE",
"124 415 LINE",
"73 415 LINE",
"45 283 LINE",
"96 283 LINE",
"36 0 LINE"
);
},
{
closed = 1;
nodes = (
"272 283 LINE",
"416 283 LINE",
"444 415 LINE",
"300 415 LINE",
"329 550 LINE",
"419 550 LINE SMOOTH",
"563 550 OFFCURVE",
"583 464 OFFCURVE",
"560 353 CURVE SMOOTH",
"533 230 OFFCURVE",
"452 149 OFFCURVE",
"328 149 CURVE SMOOTH",
"244 149 LINE"
);
}
);
width = 742;
}
);
note = Dcroat;
rightKerningGroup = D;
unicode = 0110;
},
{
glyphname = Ddotbelow;
lastChange = "2015-11-30 02:09:01 +0000";
layers = (
{
layerId = "E876E4BA-4024-4F05-97F6-A7AFE1BCFA82";
name = "Bold Italic";
paths = (
{
closed = 1;
nodes = (
"258 0 LINE SMOOTH",
"493 0 OFFCURVE",
"654 115 OFFCURVE",
"701 353 CURVE SMOOTH",
"741 557 OFFCURVE",
"606 699 OFFCURVE",
"394 699 CURVE SMOOTH",
"143 699 LINE",
"-5 0 LINE"
);
},
{
closed = 1;
nodes = (
"258 -200 OFFCURVE",
"298 -166 OFFCURVE",
"307 -123 CURVE SMOOTH",
"316 -80 OFFCURVE",
"290 -46 OFFCURVE",
"249 -46 CURVE SMOOTH",
"207 -46 OFFCURVE",
"163 -80 OFFCURVE",
"154 -123 CURVE SMOOTH",
"145 -166 OFFCURVE",
"174 -200 OFFCURVE",
"216 -200 CURVE SMOOTH"
);
},
{
closed = 1;
nodes = (
"288 550 LINE",
"378 550 LINE SMOOTH",
"522 550 OFFCURVE",
"542 464 OFFCURVE",
"519 353 CURVE SMOOTH",
"492 230 OFFCURVE",
"411 149 OFFCURVE",
"287 149 CURVE SMOOTH",
"203 149 LINE"
);
}
);
width = 701;
}
);
note = Ddotbelow;
rightKerningGroup = D;
unicode = 1E0C;
},
{
glyphname = Dlinebelow;
lastChange = "2015-11-30 02:09:02 +0000";
layers = (
{
layerId = "E876E4BA-4024-4F05-97F6-A7AFE1BCFA82";
name = "Bold Italic";
paths = (
{
closed = 1;
nodes = (
"258 0 LINE SMOOTH",
"493 0 OFFCURVE",
"654 115 OFFCURVE",
"701 353 CURVE SMOOTH",
"741 557 OFFCURVE",
"606 699 OFFCURVE",
"394 699 CURVE SMOOTH",
"143 699 LINE",
"-5 0 LINE"
);
},
{
closed = 1;
nodes = (
"399 -172 LINE",
"423 -59 LINE",
"79 -59 LINE",
"55 -172 LINE"
);
},
{
closed = 1;
nodes = (
"288 550 LINE",
"378 550 LINE SMOOTH",
"522 550 OFFCURVE",
"542 464 OFFCURVE",
"519 353 CURVE SMOOTH",
"492 230 OFFCURVE",
"411 149 OFFCURVE",
"287 149 CURVE SMOOTH",
"203 149 LINE"
);
}
);
width = 701;
}
);
note = Dlinebelow;
rightKerningGroup = D;
unicode = 1E0E;
},
{
glyphname = E;
lastChange = "2015-11-30 02:09:02 +0000";
layers = (
{
layerId = "E876E4BA-4024-4F05-97F6-A7AFE1BCFA82";
name = "Bold Italic";
paths = (
{
closed = 1;
nodes = (
"491 0 LINE",
"522 149 LINE",
"203 149 LINE",
"231 280 LINE",
"464 280 LINE",
"494 419 LINE",
"261 419 LINE",
"288 550 LINE",
"607 550 LINE",
"639 699 LINE",
"143 699 LINE",
"-5 0 LINE"
);
}
);
width = 566;
}
);
leftKerningGroup = E;
note = E;
rightKerningGroup = E;
unicode = 0045;
},
{
glyphname = Eacute;
lastChange = "2015-11-30 02:09:02 +0000";
layers = (
{
layerId = "E876E4BA-4024-4F05-97F6-A7AFE1BCFA82";
name = "Bold Italic";
paths = (
{
closed = 1;
nodes = (
"491 0 LINE",
"522 149 LINE",
"203 149 LINE",
"231 280 LINE",
"464 280 LINE",
"494 419 LINE",
"261 419 LINE",
"288 550 LINE",
"607 550 LINE",
"639 699 LINE",
"143 699 LINE",
"-5 0 LINE"
);
},
{
closed = 1;
nodes = (
"454 734 LINE",
"583 912 LINE",
"398 912 LINE",
"291 734 LINE"
);
}
);
width = 566;
}
);
leftKerningGroup = E;
note = Eacute;
rightKerningGroup = E;
unicode = 00C9;
},
{
glyphname = Ebreve;
lastChange = "2015-11-30 02:09:01 +0000";
layers = (
{
layerId = "E876E4BA-4024-4F05-97F6-A7AFE1BCFA82";
name = "Bold Italic";
paths = (
{
closed = 1;
nodes = (
"491 0 LINE",
"522 149 LINE",
"203 149 LINE",
"231 280 LINE",
"464 280 LINE",
"494 419 LINE",
"261 419 LINE",
"288 550 LINE",
"607 550 LINE",
"639 699 LINE",
"143 699 LINE",
"-5 0 LINE"
);
},
{
closed = 1;
nodes = (
"512 742 OFFCURVE",
"592 810 OFFCURVE",
"615 915 CURVE",
"479 915 LINE",
"470 874 OFFCURVE",
"446 853 OFFCURVE",
"413 853 CURVE SMOOTH",
"379 853 OFFCURVE",
"366 874 OFFCURVE",
"375 915 CURVE",
"250 915 LINE",
"227 810 OFFCURVE",
"278 742 OFFCURVE",
"395 742 CURVE SMOOTH"
);
}
);
width = 566;
}
);
leftKerningGroup = E;
note = Ebreve;
rightKerningGroup = E;
unicode = 0114;
},
{
glyphname = Ecaron;
lastChange = "2015-11-30 02:09:02 +0000";
layers = (
{
layerId = "E876E4BA-4024-4F05-97F6-A7AFE1BCFA82";
name = "Bold Italic";
paths = (
{
closed = 1;
nodes = (
"491 0 LINE",
"522 149 LINE",
"203 149 LINE",
"231 280 LINE",
"464 280 LINE",
"494 419 LINE",
"261 419 LINE",
"288 550 LINE",
"607 550 LINE",
"639 699 LINE",
"143 699 LINE",
"-5 0 LINE"
);
},
{
closed = 1;
nodes = (
"471 742 LINE",
"665 923 LINE",
"486 923 LINE",
"408 838 LINE",
"366 923 LINE",
"197 923 LINE",
"314 742 LINE"
);
}
);
width = 566;
}
);
leftKerningGroup = E;
note = Ecaron;
rightKerningGroup = E;
unicode = 011A;
},
{
glyphname = Ecircumflex;
lastChange = "2015-11-30 02:09:02 +0000";
layers = (
{
layerId = "E876E4BA-4024-4F05-97F6-A7AFE1BCFA82";
name = "Bold Italic";
paths = (
{
closed = 1;
nodes = (
"491 0 LINE",
"522 149 LINE",
"203 149 LINE",
"231 280 LINE",
"464 280 LINE",
"494 419 LINE",
"261 419 LINE",
"288 550 LINE",
"607 550 LINE",
"639 699 LINE",
"143 699 LINE",
"-5 0 LINE"
);
},
{
closed = 1;
nodes = (
"324 742 LINE",
"402 827 LINE",
"444 742 LINE",
"613 742 LINE",
"495 923 LINE",
"338 923 LINE",
"145 742 LINE"
);
}
);
width = 566;
}
);
leftKerningGroup = E;
note = Ecircumflex;
rightKerningGroup = E;
unicode = 00CA;
},
{
glyphname = Ecircumflexacute;
lastChange = "2015-11-30 02:09:02 +0000";
layers = (
{
layerId = "E876E4BA-4024-4F05-97F6-A7AFE1BCFA82";
name = "Bold Italic";
paths = (
{
closed = 1;
nodes = (
"491 0 LINE",
"522 149 LINE",
"203 149 LINE",
"231 280 LINE",
"464 280 LINE",
"494 419 LINE",
"261 419 LINE",
"288 550 LINE",
"607 550 LINE",
"639 699 LINE",
"143 699 LINE",
"-5 0 LINE"
);
},
{
closed = 1;
nodes = (
"346 742 LINE",
"419 809 LINE",
"462 742 LINE",
"617 742 LINE",
"500 899 LINE",
"376 899 LINE",
"190 742 LINE"
);
},
{
closed = 1;
nodes = (
"697 858 LINE",
"808 997 LINE",
"646 997 LINE",
"557 858 LINE"
);
}
);
width = 566;
}
);
leftKerningGroup = E;
note = Ecircumflexacute;
rightKerningGroup = E;
unicode = 1EBE;
},
{
glyphname = Ecircumflexdotbelow;
lastChange = "2015-11-30 02:09:01 +0000";
layers = (
{
layerId = "E876E4BA-4024-4F05-97F6-A7AFE1BCFA82";
name = "Bold Italic";
paths = (
{
closed = 1;
nodes = (
"491 0 LINE",
"522 149 LINE",
"203 149 LINE",
"231 280 LINE",
"464 280 LINE",
"494 419 LINE",
"261 419 LINE",
"288 550 LINE",
"607 550 LINE",
"639 699 LINE",
"143 699 LINE",
"-5 0 LINE"
);
},
{
closed = 1;
nodes = (
"256 -200 OFFCURVE",
"296 -166 OFFCURVE",
"305 -123 CURVE SMOOTH",
"314 -80 OFFCURVE",
"288 -46 OFFCURVE",
"247 -46 CURVE SMOOTH",
"205 -46 OFFCURVE",
"161 -80 OFFCURVE",
"152 -123 CURVE SMOOTH",
"143 -166 OFFCURVE",
"172 -200 OFFCURVE",
"214 -200 CURVE SMOOTH"
);
},
{
closed = 1;
nodes = (
"337 742 LINE",
"415 827 LINE",
"457 742 LINE",
"626 742 LINE",
"508 923 LINE",
"351 923 LINE",
"158 742 LINE"
);
}
);
width = 566;
}
);
leftKerningGroup = E;
note = Ecircumflexdotbelow;
rightKerningGroup = E;
unicode = 1EC6;
},
{
glyphname = Ecircumflexgrave;
lastChange = "2015-11-30 02:09:01 +0000";
layers = (
{
layerId = "E876E4BA-4024-4F05-97F6-A7AFE1BCFA82";
name = "Bold Italic";
paths = (
{
closed = 1;
nodes = (
"491 0 LINE",
"522 149 LINE",
"203 149 LINE",
"231 280 LINE",
"464 280 LINE",
"494 419 LINE",
"261 419 LINE",
"288 550 LINE",
"607 550 LINE",
"639 699 LINE",
"143 699 LINE",
"-5 0 LINE"
);
},
{
closed = 1;
nodes = (
"311 858 LINE",
"282 997 LINE",
"120 997 LINE",
"171 858 LINE"
);
},
{
closed = 1;
nodes = (
"357 742 LINE",
"430 809 LINE",
"473 742 LINE",
"628 742 LINE",
"510 899 LINE",
"387 899 LINE",
"201 742 LINE"
);
}
);
width = 566;
}
);
leftKerningGroup = E;
note = Ecircumflexgrave;
rightKerningGroup = E;
unicode = 1EC0;
},
{
glyphname = Ecircumflexhookabove;
lastChange = "2015-11-30 02:09:02 +0000";
layers = (
{
layerId = "E876E4BA-4024-4F05-97F6-A7AFE1BCFA82";
name = "Bold Italic";
paths = (
{
closed = 1;
nodes = (
"491 0 LINE",
"522 149 LINE",
"203 149 LINE",
"231 280 LINE",
"464 280 LINE",
"494 419 LINE",
"261 419 LINE",
"288 550 LINE",
"607 550 LINE",
"639 699 LINE",
"143 699 LINE",
"-5 0 LINE"
);
},
{
closed = 1;
nodes = (
"347 742 LINE",
"420 809 LINE",
"463 742 LINE",
"618 742 LINE",
"501 899 LINE",
"377 899 LINE",
"191 742 LINE"
);
},
{
closed = 1;
nodes = (
"667 847 LINE",
"672 872 LINE",
"712 881 OFFCURVE",
"740 904 OFFCURVE",
"747 937 CURVE SMOOTH",
"756 981 OFFCURVE",
"725 1011 OFFCURVE",
"655 1011 CURVE SMOOTH",
"628 1011 OFFCURVE",
"588 1005 OFFCURVE",
"566 999 CURVE",
"554 940 LINE",
"563 944 OFFCURVE",
"580 947 OFFCURVE",
"592 947 CURVE SMOOTH",
"619 947 OFFCURVE",
"630 940 OFFCURVE",
"627 924 CURVE SMOOTH",
"623 904 OFFCURVE",
"603 898 OFFCURVE",
"570 898 CURVE",
"559 847 LINE"
);
}
);
width = 566;
}
);
leftKerningGroup = E;
note = Ecircumflexhookabove;
rightKerningGroup = E;
unicode = 1EC2;
},
{
glyphname = Ecircumflextilde;
lastChange = "2015-11-30 02:09:03 +0000";
layers = (
{
layerId = "E876E4BA-4024-4F05-97F6-A7AFE1BCFA82";
name = "Bold Italic";
paths = (
{
closed = 1;
nodes = (
"491 0 LINE",
"522 149 LINE",
"203 149 LINE",
"231 280 LINE",
"464 280 LINE",
"494 419 LINE",
"261 419 LINE",
"288 550 LINE",
"607 550 LINE",
"639 699 LINE",
"143 699 LINE",
"-5 0 LINE"
);
},
{
closed = 1;
nodes = (
"352 742 LINE",
"425 809 LINE",
"468 742 LINE",
"623 742 LINE",
"506 899 LINE",
"382 899 LINE",
"196 742 LINE"
);
},
{
closed = 1;
nodes = (
"568 910 OFFCURVE",
"598 920 OFFCURVE",
"622 943 CURVE",
"644 1045 LINE",
"615 1016 OFFCURVE",
"584 1004 OFFCURVE",
"553 1004 CURVE SMOOTH",
"503 1004 OFFCURVE",
"455 1046 OFFCURVE",
"403 1046 CURVE SMOOTH",
"367 1046 OFFCURVE",
"337 1036 OFFCURVE",
"313 1012 CURVE",
"291 911 LINE",
"321 940 OFFCURVE",
"351 952 OFFCURVE",
"383 952 CURVE SMOOTH",
"432 952 OFFCURVE",
"477 910 OFFCURVE",
"533 910 CURVE SMOOTH"
);
}
);
width = 566;
}
);
leftKerningGroup = E;
note = Ecircumflextilde;
rightKerningGroup = E;
unicode = 1EC4;
},
{
glyphname = Edieresis;
lastChange = "2015-11-30 02:09:01 +0000";
layers = (
{
layerId = "E876E4BA-4024-4F05-97F6-A7AFE1BCFA82";
name = "Bold Italic";
paths = (
{
closed = 1;
nodes = (
"491 0 LINE",
"522 149 LINE",
"203 149 LINE",
"231 280 LINE",
"464 280 LINE",
"494 419 LINE",
"261 419 LINE",
"288 550 LINE",
"607 550 LINE",
"639 699 LINE",
"143 699 LINE",
"-5 0 LINE"
);
},
{
closed = 1;
nodes = (
"311 752 OFFCURVE",
"352 785 OFFCURVE",
"361 828 CURVE SMOOTH",
"370 871 OFFCURVE",
"343 906 OFFCURVE",
"301 906 CURVE SMOOTH",
"260 906 OFFCURVE",
"217 871 OFFCURVE",
"208 828 CURVE SMOOTH",
"199 785 OFFCURVE",
"228 752 OFFCURVE",
"269 752 CURVE SMOOTH"
);
},
{
closed = 1;
nodes = (
"546 752 OFFCURVE",
"588 785 OFFCURVE",
"597 828 CURVE SMOOTH",
"606 871 OFFCURVE",
"578 906 OFFCURVE",
"537 906 CURVE SMOOTH",
"495 906 OFFCURVE",
"452 871 OFFCURVE",
"443 828 CURVE SMOOTH",
"434 785 OFFCURVE",
"463 752 OFFCURVE",
"505 752 CURVE SMOOTH"
);
}
);
width = 566;
}
);
leftKerningGroup = E;
note = Edieresis;
rightKerningGroup = E;
unicode = 00CB;
},
{
glyphname = Edotaccent;
lastChange = "2015-11-30 02:09:01 +0000";
layers = (
{
layerId = "E876E4BA-4024-4F05-97F6-A7AFE1BCFA82";
name = "Bold Italic";
paths = (
{
closed = 1;
nodes = (
"491 0 LINE",
"522 149 LINE",
"203 149 LINE",
"231 280 LINE",
"464 280 LINE",
"494 419 LINE",
"261 419 LINE",
"288 550 LINE",
"607 550 LINE",
"639 699 LINE",
"143 699 LINE",
"-5 0 LINE"
);
},
{
closed = 1;
nodes = (
"438 752 OFFCURVE",
"479 785 OFFCURVE",
"488 828 CURVE SMOOTH",
"497 871 OFFCURVE",
"470 906 OFFCURVE",
"428 906 CURVE SMOOTH",
"386 906 OFFCURVE",
"343 871 OFFCURVE",
"334 828 CURVE SMOOTH",
"325 785 OFFCURVE",
"354 752 OFFCURVE",
"396 752 CURVE SMOOTH"
);
}
);
width = 566;
}
);
leftKerningGroup = E;
note = Edotaccent;
rightKerningGroup = E;
unicode = 0116;
},
{
glyphname = Edotbelow;
lastChange = "2015-11-30 02:09:02 +0000";
layers = (
{
layerId = "E876E4BA-4024-4F05-97F6-A7AFE1BCFA82";
name = "Bold Italic";
paths = (
{
closed = 1;
nodes = (
"491 0 LINE",
"522 149 LINE",
"203 149 LINE",
"231 280 LINE",
"464 280 LINE",
"494 419 LINE",
"261 419 LINE",
"288 550 LINE",
"607 550 LINE",
"639 699 LINE",
"143 699 LINE",
"-5 0 LINE"
);
},
{
closed = 1;
nodes = (
"246 -200 OFFCURVE",
"286 -166 OFFCURVE",
"295 -123 CURVE SMOOTH",
"304 -80 OFFCURVE",
"278 -46 OFFCURVE",
"237 -46 CURVE SMOOTH",
"195 -46 OFFCURVE",
"151 -80 OFFCURVE",
"142 -123 CURVE SMOOTH",
"133 -166 OFFCURVE",
"162 -200 OFFCURVE",
"204 -200 CURVE SMOOTH"
);
}
);
width = 566;
}
);
leftKerningGroup = E;
note = Edotbelow;
rightKerningGroup = E;
unicode = 1EB8;
},
{
glyphname = Egrave;
lastChange = "2015-11-30 02:09:03 +0000";
layers = (
{
layerId = "E876E4BA-4024-4F05-97F6-A7AFE1BCFA82";
name = "Bold Italic";
paths = (
{
closed = 1;
nodes = (
"491 0 LINE",
"522 149 LINE",
"203 149 LINE",
"231 280 LINE",
"464 280 LINE",
"494 419 LINE",
"261 419 LINE",
"288 550 LINE",
"607 550 LINE",
"639 699 LINE",
"143 699 LINE",
"-5 0 LINE"
);
},
{
closed = 1;
nodes = (
"473 742 LINE",
"442 920 LINE",
"257 920 LINE",
"310 742 LINE"
);
}
);
width = 566;
}
);
leftKerningGroup = E;
note = Egrave;
rightKerningGroup = E;
unicode = 00C8;
},
{
glyphname = Ehookabove;
lastChange = "2015-11-30 02:09:02 +0000";
layers = (
{
layerId = "E876E4BA-4024-4F05-97F6-A7AFE1BCFA82";
name = "Bold Italic";
paths = (
{
closed = 1;
nodes = (
"491 0 LINE",
"522 149 LINE",
"203 149 LINE",
"231 280 LINE",
"464 280 LINE",
"494 419 LINE",
"261 419 LINE",
"288 550 LINE",
"607 550 LINE",
"639 699 LINE",
"143 699 LINE",
"-5 0 LINE"
);
},
{
closed = 1;
nodes = (
"456 742 LINE",
"461 767 LINE",
"520 781 OFFCURVE",
"561 821 OFFCURVE",
"571 869 CURVE SMOOTH",
"584 932 OFFCURVE",
"541 975 OFFCURVE",
"435 975 CURVE SMOOTH",
"395 975 OFFCURVE",
"343 968 OFFCURVE",
"312 959 CURVE",
"294 875 LINE",
"308 881 OFFCURVE",
"337 885 OFFCURVE",
"353 885 CURVE SMOOTH",
"395 885 OFFCURVE",
"410 873 OFFCURVE",
"405 852 CURVE",
"399 821 OFFCURVE",
"365 812 OFFCURVE",
"317 812 CURVE",
"302 742 LINE"
);
}
);
width = 566;
}
);
leftKerningGroup = E;
note = Ehookabove;
rightKerningGroup = E;
unicode = 1EBA;
},
{
glyphname = Emacron;
lastChange = "2015-11-30 02:09:02 +0000";
layers = (
{
layerId = "E876E4BA-4024-4F05-97F6-A7AFE1BCFA82";
name = "Bold Italic";
paths = (
{
closed = 1;
nodes = (
"491 0 LINE",
"522 149 LINE",
"203 149 LINE",
"231 280 LINE",
"464 280 LINE",
"494 419 LINE",
"261 419 LINE",
"288 550 LINE",
"607 550 LINE",
"639 699 LINE",
"143 699 LINE",
"-5 0 LINE"
);
},
{
closed = 1;
nodes = (
"572 752 LINE",
"596 865 LINE",
"252 865 LINE",
"228 752 LINE"
);
}
);
width = 566;
}
);
leftKerningGroup = E;
note = Emacron;
rightKerningGroup = E;
unicode = 0112;
},
{
glyphname = Eogonek;
lastChange = "2015-11-30 02:09:01 +0000";
layers = (
{
layerId = "E876E4BA-4024-4F05-97F6-A7AFE1BCFA82";
name = "Bold Italic";
paths = (
{
closed = 1;
nodes = (
"491 0 LINE",
"522 149 LINE",
"203 149 LINE",
"231 280 LINE",
"464 280 LINE",
"494 419 LINE",
"261 419 LINE",
"288 550 LINE",
"607 550 LINE",
"639 699 LINE",
"143 699 LINE",
"-5 0 LINE"
);
},
{
closed = 1;
nodes = (
"390 -216 OFFCURVE",
"429 -210 OFFCURVE",
"457 -201 CURVE",
"477 -105 LINE",
"460 -113 OFFCURVE",
"443 -117 OFFCURVE",
"427 -117 CURVE SMOOTH",
"406 -117 OFFCURVE",
"395 -104 OFFCURVE",
"400 -84 CURVE",
"406 -55 OFFCURVE",
"436 -29 OFFCURVE",
"497 0 CURVE",
"337 0 LINE",
"290 -25 OFFCURVE",
"252 -66 OFFCURVE",
"241 -119 CURVE SMOOTH",
"227 -187 OFFCURVE",
"279 -216 OFFCURVE",
"352 -216 CURVE SMOOTH"
);
}
);
width = 566;
}
);
leftKerningGroup = E;
note = Eogonek;
rightKerningGroup = E;
unicode = 0118;
},
{
glyphname = Etilde;
lastChange = "2015-11-30 02:09:01 +0000";
layers = (
{
layerId = "E876E4BA-4024-4F05-97F6-A7AFE1BCFA82";
name = "Bold Italic";
paths = (
{
closed = 1;
nodes = (
"491 0 LINE",
"522 149 LINE",
"203 149 LINE",
"231 280 LINE",
"464 280 LINE",
"494 419 LINE",
"261 419 LINE",
"288 550 LINE",
"607 550 LINE",
"639 699 LINE",
"143 699 LINE",
"-5 0 LINE"
);
},
{
closed = 1;
nodes = (
"232 779 OFFCURVE",
"270 793 OFFCURVE",
"309 793 CURVE SMOOTH",
"373 793 OFFCURVE",
"423 743 OFFCURVE",
"496 743 CURVE SMOOTH",
"540 743 OFFCURVE",
"578 754 OFFCURVE",
"608 784 CURVE",
"635 912 LINE",
"598 876 OFFCURVE",
"561 862 OFFCURVE",
"521 862 CURVE SMOOTH",
"456 862 OFFCURVE",
"402 912 OFFCURVE",
"334 912 CURVE SMOOTH",
"291 912 OFFCURVE",
"252 900 OFFCURVE",
"221 870 CURVE",
"193 742 LINE"
);
}
);
width = 566;
}
);
leftKerningGroup = E;
note = Etilde;
rightKerningGroup = E;
unicode = 1EBC;
},
{
glyphname = F;
lastChange = "2015-11-30 02:09:01 +0000";
layers = (
{
layerId = "E876E4BA-4024-4F05-97F6-A7AFE1BCFA82";
name = "Bold Italic";
paths = (
{
closed = 1;
nodes = (
"172 0 LINE",
"231 280 LINE",
"464 280 LINE",
"494 419 LINE",
"261 419 LINE",
"288 550 LINE",
"607 550 LINE",
"639 699 LINE",
"143 699 LINE",
"-5 0 LINE"
);
}
);
width = 546;
}
);
note = F;
unicode = 0046;
},
{
glyphname = G;
lastChange = "2015-11-30 02:09:01 +0000";
layers = (
{
layerId = "E876E4BA-4024-4F05-97F6-A7AFE1BCFA82";
name = "Bold Italic";
paths = (
{
closed = 1;
nodes = (
"462 -15 OFFCURVE",
"552 8 OFFCURVE",
"630 50 CURVE",
"704 398 LINE",
"429 398 LINE",
"403 274 LINE",
"510 274 LINE",
"486 162 LINE",
"459 150 OFFCURVE",
"430 144 OFFCURVE",
"393 144 CURVE SMOOTH",
"244 144 OFFCURVE",
"204 223 OFFCURVE",
"231 349 CURVE SMOOTH",
"257 474 OFFCURVE",
"349 551 OFFCURVE",
"489 551 CURVE SMOOTH",
"582 551 OFFCURVE",
"652 533 OFFCURVE",
"702 485 CURVE",
"737 653 LINE",
"679 696 OFFCURVE",
"608 714 OFFCURVE",
"507 714 CURVE SMOOTH",
"277 714 OFFCURVE",
"97 574 OFFCURVE",
"49 349 CURVE SMOOTH",
"1 124 OFFCURVE",
"143 -15 OFFCURVE",
"352 -15 CURVE SMOOTH"
);
}
);
width = 695;
}
);
leftKerningGroup = C;
note = G;
unicode = 0047;
},
{
glyphname = Gbreve;
lastChange = "2015-11-30 02:09:01 +0000";
layers = (
{
layerId = "E876E4BA-4024-4F05-97F6-A7AFE1BCFA82";
name = "Bold Italic";
paths = (
{
closed = 1;
nodes = (
"462 -15 OFFCURVE",
"552 8 OFFCURVE",
"630 50 CURVE",
"704 398 LINE",
"429 398 LINE",
"403 274 LINE",
"510 274 LINE",
"486 162 LINE",
"459 150 OFFCURVE",
"430 144 OFFCURVE",
"393 144 CURVE SMOOTH",
"244 144 OFFCURVE",
"204 223 OFFCURVE",
"231 349 CURVE SMOOTH",
"257 474 OFFCURVE",
"349 551 OFFCURVE",
"489 551 CURVE SMOOTH",
"582 551 OFFCURVE",
"652 533 OFFCURVE",
"702 485 CURVE",
"737 653 LINE",
"679 696 OFFCURVE",
"608 714 OFFCURVE",
"507 714 CURVE SMOOTH",
"277 714 OFFCURVE",
"97 574 OFFCURVE",
"49 349 CURVE SMOOTH",
"1 124 OFFCURVE",
"143 -15 OFFCURVE",
"352 -15 CURVE SMOOTH"
);
},
{
closed = 1;
nodes = (
"618 742 OFFCURVE",
"698 810 OFFCURVE",
"721 915 CURVE",
"585 915 LINE",
"576 874 OFFCURVE",
"552 853 OFFCURVE",
"519 853 CURVE SMOOTH",
"485 853 OFFCURVE",
"472 874 OFFCURVE",
"481 915 CURVE",
"356 915 LINE",
"333 810 OFFCURVE",
"384 742 OFFCURVE",
"501 742 CURVE SMOOTH"
);
}
);
width = 695;
}
);
leftKerningGroup = C;
note = Gbreve;
unicode = 011E;
},
{
glyphname = Gcaron;
lastChange = "2015-11-30 02:09:01 +0000";
layers = (
{
layerId = "E876E4BA-4024-4F05-97F6-A7AFE1BCFA82";
name = "Bold Italic";
paths = (
{
closed = 1;
nodes = (
"462 -15 OFFCURVE",
"552 8 OFFCURVE",
"630 50 CURVE",
"704 398 LINE",
"429 398 LINE",
"403 274 LINE",
"510 274 LINE",
"486 162 LINE",
"459 150 OFFCURVE",
"430 144 OFFCURVE",
"393 144 CURVE SMOOTH",
"244 144 OFFCURVE",
"204 223 OFFCURVE",
"231 349 CURVE SMOOTH",
"257 474 OFFCURVE",
"349 551 OFFCURVE",
"489 551 CURVE SMOOTH",
"582 551 OFFCURVE",
"652 533 OFFCURVE",
"702 485 CURVE",
"737 653 LINE",
"679 696 OFFCURVE",
"608 714 OFFCURVE",
"507 714 CURVE SMOOTH",
"277 714 OFFCURVE",
"97 574 OFFCURVE",
"49 349 CURVE SMOOTH",
"1 124 OFFCURVE",
"143 -15 OFFCURVE",
"352 -15 CURVE SMOOTH"
);
},
{
closed = 1;
nodes = (
"535 742 LINE",
"729 923 LINE",
"550 923 LINE",
"472 838 LINE",
"430 923 LINE",
"261 923 LINE",
"378 742 LINE"
);
}
);
width = 695;
}
);
leftKerningGroup = C;
note = Gcaron;
unicode = 01E6;
},
{
glyphname = Gcircumflex;
lastChange = "2015-11-30 02:09:01 +0000";
layers = (
{
layerId = "E876E4BA-4024-4F05-97F6-A7AFE1BCFA82";
name = "Bold Italic";
paths = (
{
closed = 1;
nodes = (
"462 -15 OFFCURVE",
"552 8 OFFCURVE",
"630 50 CURVE",
"704 398 LINE",
"429 398 LINE",
"403 274 LINE",
"510 274 LINE",
"486 162 LINE",
"459 150 OFFCURVE",
"430 144 OFFCURVE",
"393 144 CURVE SMOOTH",
"244 144 OFFCURVE",
"204 223 OFFCURVE",
"231 349 CURVE SMOOTH",
"257 474 OFFCURVE",
"349 551 OFFCURVE",
"489 551 CURVE SMOOTH",
"582 551 OFFCURVE",
"652 533 OFFCURVE",
"702 485 CURVE",
"737 653 LINE",
"679 696 OFFCURVE",
"608 714 OFFCURVE",
"507 714 CURVE SMOOTH",
"277 714 OFFCURVE",
"97 574 OFFCURVE",
"49 349 CURVE SMOOTH",
"1 124 OFFCURVE",
"143 -15 OFFCURVE",
"352 -15 CURVE SMOOTH"
);
},
{
closed = 1;
nodes = (
"429 742 LINE",
"507 827 LINE",
"549 742 LINE",
"718 742 LINE",
"600 923 LINE",
"443 923 LINE",
"250 742 LINE"
);
}
);
width = 695;
}
);
leftKerningGroup = C;
note = Gcircumflex;
unicode = 011C;
},
{
glyphname = Gcommaaccent;
lastChange = "2015-11-30 02:09:02 +0000";
layers = (
{
layerId = "E876E4BA-4024-4F05-97F6-A7AFE1BCFA82";
name = "Bold Italic";
paths = (
{
closed = 1;
nodes = (
"462 -15 OFFCURVE",
"552 8 OFFCURVE",
"630 50 CURVE",
"704 398 LINE",
"429 398 LINE",
"403 274 LINE",
"510 274 LINE",
"486 162 LINE",
"459 150 OFFCURVE",
"430 144 OFFCURVE",
"393 144 CURVE SMOOTH",
"244 144 OFFCURVE",
"204 223 OFFCURVE",
"231 349 CURVE SMOOTH",
"257 474 OFFCURVE",
"349 551 OFFCURVE",
"489 551 CURVE SMOOTH",
"582 551 OFFCURVE",
"652 533 OFFCURVE",
"702 485 CURVE",
"737 653 LINE",
"679 696 OFFCURVE",
"608 714 OFFCURVE",
"507 714 CURVE SMOOTH",
"277 714 OFFCURVE",
"97 574 OFFCURVE",
"49 349 CURVE SMOOTH",
"1 124 OFFCURVE",
"143 -15 OFFCURVE",
"352 -15 CURVE SMOOTH"
);
},
{
closed = 1;
nodes = (
"302 -260 LINE",
"452 -49 LINE",
"270 -49 LINE",
"143 -260 LINE"
);
}
);
width = 695;
}
);
leftKerningGroup = C;
note = Gcommaaccent;
unicode = 0122;
},
{
glyphname = Gdotaccent;
lastChange = "2015-11-30 02:09:01 +0000";
layers = (
{
layerId = "E876E4BA-4024-4F05-97F6-A7AFE1BCFA82";
name = "Bold Italic";
paths = (
{
closed = 1;
nodes = (
"462 -15 OFFCURVE",
"552 8 OFFCURVE",
"630 50 CURVE",
"704 398 LINE",
"429 398 LINE",
"403 274 LINE",
"510 274 LINE",
"486 162 LINE",
"459 150 OFFCURVE",
"430 144 OFFCURVE",
"393 144 CURVE SMOOTH",
"244 144 OFFCURVE",
"204 223 OFFCURVE",
"231 349 CURVE SMOOTH",
"257 474 OFFCURVE",
"349 551 OFFCURVE",
"489 551 CURVE SMOOTH",
"582 551 OFFCURVE",
"652 533 OFFCURVE",
"702 485 CURVE",
"737 653 LINE",
"679 696 OFFCURVE",
"608 714 OFFCURVE",
"507 714 CURVE SMOOTH",
"277 714 OFFCURVE",
"97 574 OFFCURVE",
"49 349 CURVE SMOOTH",
"1 124 OFFCURVE",
"143 -15 OFFCURVE",
"352 -15 CURVE SMOOTH"
);
},
{
closed = 1;
nodes = (
"534 752 OFFCURVE",
"575 785 OFFCURVE",
"584 828 CURVE SMOOTH",
"593 871 OFFCURVE",
"566 906 OFFCURVE",
"524 906 CURVE SMOOTH",
"482 906 OFFCURVE",
"439 871 OFFCURVE",
"430 828 CURVE SMOOTH",
"421 785 OFFCURVE",
"450 752 OFFCURVE",
"492 752 CURVE SMOOTH"
);
}
);
width = 695;
}
);
leftKerningGroup = C;
note = Gdotaccent;
unicode = 0120;
},
{
glyphname = Gmacron;
lastChange = "2015-11-30 02:09:01 +0000";
layers = (
{
layerId = "E876E4BA-4024-4F05-97F6-A7AFE1BCFA82";
name = "Bold Italic";
paths = (
{
closed = 1;
nodes = (
"462 -15 OFFCURVE",
"552 8 OFFCURVE",
"630 50 CURVE",
"704 398 LINE",
"429 398 LINE",
"403 274 LINE",
"510 274 LINE",
"486 162 LINE",
"459 150 OFFCURVE",
"430 144 OFFCURVE",
"393 144 CURVE SMOOTH",
"244 144 OFFCURVE",
"204 223 OFFCURVE",
"231 349 CURVE SMOOTH",
"257 474 OFFCURVE",
"349 551 OFFCURVE",
"489 551 CURVE SMOOTH",
"582 551 OFFCURVE",
"652 533 OFFCURVE",
"702 485 CURVE",
"737 653 LINE",
"679 696 OFFCURVE",
"608 714 OFFCURVE",
"507 714 CURVE SMOOTH",
"277 714 OFFCURVE",
"97 574 OFFCURVE",
"49 349 CURVE SMOOTH",
"1 124 OFFCURVE",
"143 -15 OFFCURVE",
"352 -15 CURVE SMOOTH"
);
},
{
closed = 1;
nodes = (
"674 752 LINE",
"698 865 LINE",
"354 865 LINE",
"330 752 LINE"
);
}
);
width = 695;
}
);
leftKerningGroup = C;
note = Gmacron;
unicode = 1E20;
},
{
glyphname = H;
lastChange = "2015-11-30 02:09:02 +0000";
layers = (
{
layerId = "E876E4BA-4024-4F05-97F6-A7AFE1BCFA82";
name = "Bold Italic";
paths = (
{
closed = 1;
nodes = (
"172 0 LINE",
"231 282 LINE",
"505 282 LINE",
"446 0 LINE",
"623 0 LINE",
"771 699 LINE",
"594 699 LINE",
"537 429 LINE",
"263 429 LINE",
"320 699 LINE",
"143 699 LINE",
"-5 0 LINE"
);
}
);
width = 718;
}
);
note = H;
unicode = 0048;
},
{
glyphname = Hbar;
lastChange = "2015-11-30 02:09:01 +0000";
layers = (
{
layerId = "E876E4BA-4024-4F05-97F6-A7AFE1BCFA82";
name = "Bold Italic";
paths = (
{
closed = 1;
nodes = (
"213 0 LINE",
"270 270 LINE",
"528 270 LINE",
"471 0 LINE",
"656 0 LINE",
"762 500 LINE",
"808 500 LINE",
"836 634 LINE",
"790 634 LINE",
"804 699 LINE",
"619 699 LINE",
"605 634 LINE",
"347 634 LINE",
"361 699 LINE",
"176 699 LINE",
"162 634 LINE",
"119 634 LINE",
"91 500 LINE",
"134 500 LINE",
"28 0 LINE"
);
},
{
closed = 1;
nodes = (
"318 500 LINE",
"576 500 LINE",
"564 441 LINE",
"306 441 LINE"
);
}
);
width = 787;
}
);
note = Hbar;
unicode = 0126;
},
{
glyphname = Hbrevebelow;
lastChange = "2015-11-30 02:09:01 +0000";
layers = (
{
layerId = "E876E4BA-4024-4F05-97F6-A7AFE1BCFA82";
name = "Bold Italic";
paths = (
{
closed = 1;
nodes = (
"172 0 LINE",
"231 282 LINE",
"505 282 LINE",
"446 0 LINE",
"623 0 LINE",
"771 699 LINE",
"594 699 LINE",
"537 429 LINE",
"263 429 LINE",
"320 699 LINE",
"143 699 LINE",
"-5 0 LINE"
);
},
{
closed = 1;
nodes = (
"377 -227 OFFCURVE",
"458 -159 OFFCURVE",
"480 -54 CURVE",
"344 -54 LINE",
"335 -95 OFFCURVE",
"312 -116 OFFCURVE",
"280 -116 CURVE SMOOTH",
"246 -116 OFFCURVE",
"232 -95 OFFCURVE",
"241 -54 CURVE",
"115 -54 LINE",
"93 -159 OFFCURVE",
"144 -227 OFFCURVE",
"261 -227 CURVE SMOOTH"
);
}
);
width = 718;
}
);
note = Hbrevebelow;
unicode = 1E2A;
},
{
glyphname = Hcircumflex;
lastChange = "2015-11-30 02:09:01 +0000";
layers = (
{
layerId = "E876E4BA-4024-4F05-97F6-A7AFE1BCFA82";
name = "Bold Italic";
paths = (
{
closed = 1;
nodes = (
"172 0 LINE",
"231 282 LINE",
"505 282 LINE",
"446 0 LINE",
"623 0 LINE",
"771 699 LINE",
"594 699 LINE",
"537 429 LINE",
"263 429 LINE",
"320 699 LINE",
"143 699 LINE",
"-5 0 LINE"
);
},
{
closed = 1;
nodes = (
"392 742 LINE",
"470 827 LINE",
"512 742 LINE",
"681 742 LINE",
"563 923 LINE",
"406 923 LINE",
"213 742 LINE"
);
}
);
width = 718;
}
);
note = Hcircumflex;
unicode = 0124;
},
{
glyphname = Hdotbelow;
lastChange = "2015-11-30 02:09:02 +0000";
layers = (
{
layerId = "E876E4BA-4024-4F05-97F6-A7AFE1BCFA82";
name = "Bold Italic";
paths = (
{
closed = 1;
nodes = (
"172 0 LINE",
"231 282 LINE",
"505 282 LINE",
"446 0 LINE",
"623 0 LINE",
"771 699 LINE",
"594 699 LINE",
"537 429 LINE",
"263 429 LINE",
"320 699 LINE",
"143 699 LINE",
"-5 0 LINE"
);
},
{
closed = 1;
nodes = (
"310 -200 OFFCURVE",
"350 -166 OFFCURVE",
"359 -123 CURVE SMOOTH",
"368 -80 OFFCURVE",
"342 -46 OFFCURVE",
"301 -46 CURVE SMOOTH",
"259 -46 OFFCURVE",
"215 -80 OFFCURVE",
"206 -123 CURVE SMOOTH",
"197 -166 OFFCURVE",
"226 -200 OFFCURVE",
"268 -200 CURVE SMOOTH"
);
}
);
width = 718;
}
);
note = Hdotbelow;
unicode = 1E24;
},
{
glyphname = I;
lastChange = "2015-11-30 02:09:02 +0000";
layers = (
{
layerId = "E876E4BA-4024-4F05-97F6-A7AFE1BCFA82";
name = "Bold Italic";
paths = (
{
closed = 1;
nodes = (
"172 0 LINE",
"320 699 LINE",
"143 699 LINE",
"-5 0 LINE"
);
}
);
width = 267;
}
);
note = I;
unicode = 0049;
},
{
glyphname = IJ;
lastChange = "2015-11-30 02:09:01 +0000";
layers = (
{
layerId = "E876E4BA-4024-4F05-97F6-A7AFE1BCFA82";
name = "Bold Italic";
paths = (
{
closed = 1;
nodes = (
"499 -15 OFFCURVE",
"582 65 OFFCURVE",
"613 209 CURVE SMOOTH",
"717 699 LINE",
"540 699 LINE",
"440 229 LINE SMOOTH",
"428 172 OFFCURVE",
"407 149 OFFCURVE",
"343 149 CURVE SMOOTH",
"313 149 OFFCURVE",
"279 154 OFFCURVE",
"260 164 CURVE",
"227 8 LINE",
"248 -5 OFFCURVE",
"310 -15 OFFCURVE",
"353 -15 CURVE SMOOTH"
);
},
{
closed = 1;
nodes = (
"172 0 LINE",
"320 699 LINE",
"143 699 LINE",
"-5 0 LINE"
);
}
);
width = 659;
}
);
note = IJ;
rightKerningGroup = J;
unicode = 0132;
},
{
glyphname = Iacute;
lastChange = "2015-11-30 02:09:01 +0000";
layers = (
{
layerId = "E876E4BA-4024-4F05-97F6-A7AFE1BCFA82";
name = "Bold Italic";
paths = (
{
closed = 1;
nodes = (
"172 0 LINE",
"320 699 LINE",
"143 699 LINE",
"-5 0 LINE"
);
},
{
closed = 1;
nodes = (
"300 742 LINE",
"429 920 LINE",
"244 920 LINE",
"137 742 LINE"
);
}
);
width = 267;
}
);
note = Iacute;
unicode = 00CD;
},
{
glyphname = Ibreve;
lastChange = "2015-11-30 02:09:01 +0000";
layers = (
{
layerId = "E876E4BA-4024-4F05-97F6-A7AFE1BCFA82";
name = "Bold Italic";
paths = (
{
closed = 1;
nodes = (
"172 0 LINE",
"320 699 LINE",
"143 699 LINE",
"-5 0 LINE"
);
},
{
closed = 1;
nodes = (
"337 742 OFFCURVE",
"417 810 OFFCURVE",
"440 915 CURVE",
"304 915 LINE",
"295 874 OFFCURVE",
"271 853 OFFCURVE",
"238 853 CURVE SMOOTH",
"204 853 OFFCURVE",
"191 874 OFFCURVE",
"200 915 CURVE",
"75 915 LINE",
"52 810 OFFCURVE",
"103 742 OFFCURVE",
"220 742 CURVE SMOOTH"
);
}
);
width = 267;
}
);
note = Ibreve;
unicode = 012C;
},
{
glyphname = Icaron;
lastChange = "2015-11-30 02:09:01 +0000";
layers = (
{
layerId = "E876E4BA-4024-4F05-97F6-A7AFE1BCFA82";
name = "Bold Italic";
paths = (
{
closed = 1;
nodes = (
"172 0 LINE",
"320 699 LINE",
"143 699 LINE",
"-5 0 LINE"
);
},
{
closed = 1;
nodes = (
"298 742 LINE",
"492 923 LINE",
"313 923 LINE",
"235 838 LINE",
"193 923 LINE",
"24 923 LINE",
"141 742 LINE"
);
}
);
width = 267;
}
);
note = Icaron;
unicode = 01CF;
},
{
glyphname = Icircumflex;
lastChange = "2015-11-30 02:09:01 +0000";
layers = (
{
layerId = "E876E4BA-4024-4F05-97F6-A7AFE1BCFA82";
name = "Bold Italic";
paths = (
{
closed = 1;
nodes = (
"172 0 LINE",
"320 699 LINE",
"143 699 LINE",
"-5 0 LINE"
);
},
{
closed = 1;
nodes = (
"166 742 LINE",
"244 827 LINE",
"286 742 LINE",
"455 742 LINE",
"337 923 LINE",
"180 923 LINE",
"-13 742 LINE"
);
}
);
width = 267;
}
);
note = Icircumflex;
unicode = 00CE;
},
{
glyphname = Idieresis;
lastChange = "2015-11-30 02:09:01 +0000";
layers = (
{
layerId = "E876E4BA-4024-4F05-97F6-A7AFE1BCFA82";
name = "Bold Italic";
paths = (
{
closed = 1;
nodes = (
"172 0 LINE",
"320 699 LINE",
"143 699 LINE",
"-5 0 LINE"
);
},
{
closed = 1;
nodes = (
"147 752 OFFCURVE",
"188 785 OFFCURVE",
"197 828 CURVE SMOOTH",
"206 871 OFFCURVE",
"179 906 OFFCURVE",
"137 906 CURVE SMOOTH",
"96 906 OFFCURVE",
"53 871 OFFCURVE",
"44 828 CURVE SMOOTH",
"35 785 OFFCURVE",
"64 752 OFFCURVE",
"105 752 CURVE SMOOTH"
);
},
{
closed = 1;
nodes = (
"382 752 OFFCURVE",
"424 785 OFFCURVE",
"433 828 CURVE SMOOTH",
"442 871 OFFCURVE",
"414 906 OFFCURVE",
"373 906 CURVE SMOOTH",
"331 906 OFFCURVE",
"288 871 OFFCURVE",
"279 828 CURVE SMOOTH",
"270 785 OFFCURVE",
"299 752 OFFCURVE",
"341 752 CURVE SMOOTH"
);
}
);
width = 267;
}
);
note = Idieresis;
unicode = 00CF;
},
{
glyphname = Idotaccent;
lastChange = "2015-11-30 02:09:02 +0000";
layers = (
{
layerId = "E876E4BA-4024-4F05-97F6-A7AFE1BCFA82";
name = "Bold Italic";
paths = (
{
closed = 1;
nodes = (
"172 0 LINE",
"320 699 LINE",
"143 699 LINE",
"-5 0 LINE"
);
},
{
closed = 1;
nodes = (
"265 752 OFFCURVE",
"306 785 OFFCURVE",
"315 828 CURVE SMOOTH",
"324 871 OFFCURVE",
"297 906 OFFCURVE",
"255 906 CURVE SMOOTH",
"213 906 OFFCURVE",
"170 871 OFFCURVE",
"161 828 CURVE SMOOTH",
"152 785 OFFCURVE",
"181 752 OFFCURVE",
"223 752 CURVE SMOOTH"
);
}
);
width = 267;
}
);
note = Idotaccent;
unicode = 0130;
},
{
glyphname = Idotbelow;
lastChange = "2015-11-30 02:09:03 +0000";
layers = (
{
layerId = "E876E4BA-4024-4F05-97F6-A7AFE1BCFA82";
name = "Bold Italic";
paths = (
{
closed = 1;
nodes = (
"172 0 LINE",
"320 699 LINE",
"143 699 LINE",
"-5 0 LINE"
);
},
{
closed = 1;
nodes = (
"84 -200 OFFCURVE",
"124 -166 OFFCURVE",
"133 -123 CURVE SMOOTH",
"142 -80 OFFCURVE",
"116 -46 OFFCURVE",
"75 -46 CURVE SMOOTH",
"33 -46 OFFCURVE",
"-11 -80 OFFCURVE",
"-20 -123 CURVE SMOOTH",
"-29 -166 OFFCURVE",
"0 -200 OFFCURVE",
"42 -200 CURVE SMOOTH"
);
}
);
width = 267;
}
);
note = Idotbelow;
unicode = 1ECA;
},
{
glyphname = Igrave;
lastChange = "2015-11-30 02:09:01 +0000";
layers = (
{
layerId = "E876E4BA-4024-4F05-97F6-A7AFE1BCFA82";
name = "Bold Italic";
paths = (
{
closed = 1;
nodes = (
"172 0 LINE",
"320 699 LINE",
"143 699 LINE",
"-5 0 LINE"
);
},
{
closed = 1;
nodes = (
"306 742 LINE",
"275 920 LINE",
"90 920 LINE",
"143 742 LINE"
);
}
);
width = 267;
}
);
note = Igrave;
unicode = 00CC;
},
{
glyphname = Ihookabove;
lastChange = "2015-11-30 02:09:01 +0000";
layers = (
{
layerId = "E876E4BA-4024-4F05-97F6-A7AFE1BCFA82";
name = "Bold Italic";
paths = (
{
closed = 1;
nodes = (
"172 0 LINE",
"320 699 LINE",
"143 699 LINE",
"-5 0 LINE"
);
},
{
closed = 1;
nodes = (
"298 742 LINE",
"303 767 LINE",
"362 781 OFFCURVE",
"403 821 OFFCURVE",
"413 869 CURVE SMOOTH",
"426 932 OFFCURVE",
"383 975 OFFCURVE",
"277 975 CURVE SMOOTH",
"237 975 OFFCURVE",
"185 968 OFFCURVE",
"154 959 CURVE",
"136 875 LINE",
"150 881 OFFCURVE",
"179 885 OFFCURVE",
"195 885 CURVE SMOOTH",
"237 885 OFFCURVE",
"252 873 OFFCURVE",
"247 852 CURVE",
"241 821 OFFCURVE",
"207 812 OFFCURVE",
"159 812 CURVE",
"144 742 LINE"
);
}
);
width = 267;
}
);
note = Ihookabove;
unicode = 1EC8;
},
{
glyphname = Imacron;
lastChange = "2015-11-30 02:09:01 +0000";
layers = (
{
layerId = "E876E4BA-4024-4F05-97F6-A7AFE1BCFA82";
name = "Bold Italic";
paths = (
{
closed = 1;
nodes = (
"172 0 LINE",
"320 699 LINE",
"143 699 LINE",
"-5 0 LINE"
);
},
{
closed = 1;
nodes = (
"423 752 LINE",
"447 865 LINE",
"88 865 LINE",
"64 752 LINE"
);
}
);
width = 267;
}
);
note = Imacron;
unicode = 012A;
},
{
glyphname = Iogonek;
lastChange = "2015-11-30 02:09:02 +0000";
layers = (
{
layerId = "E876E4BA-4024-4F05-97F6-A7AFE1BCFA82";
name = "Bold Italic";
paths = (
{
closed = 1;
nodes = (
"172 0 LINE",
"320 699 LINE",
"143 699 LINE",
"-5 0 LINE"
);
},
{
closed = 1;
nodes = (
"59 -216 OFFCURVE",
"98 -210 OFFCURVE",
"126 -201 CURVE",
"146 -105 LINE",
"129 -113 OFFCURVE",
"112 -117 OFFCURVE",
"96 -117 CURVE SMOOTH",
"75 -117 OFFCURVE",
"64 -104 OFFCURVE",
"69 -84 CURVE",
"75 -55 OFFCURVE",
"105 -29 OFFCURVE",
"166 0 CURVE",
"6 0 LINE",
"-41 -25 OFFCURVE",
"-79 -66 OFFCURVE",
"-90 -119 CURVE SMOOTH",
"-104 -187 OFFCURVE",
"-52 -216 OFFCURVE",
"21 -216 CURVE SMOOTH"
);
}
);
width = 267;
}
);
note = Iogonek;
unicode = 012E;
},
{
glyphname = Itilde;
lastChange = "2015-11-30 02:09:02 +0000";
layers = (
{
layerId = "E876E4BA-4024-4F05-97F6-A7AFE1BCFA82";
name = "Bold Italic";
paths = (
{
closed = 1;
nodes = (
"172 0 LINE",
"320 699 LINE",
"143 699 LINE",
"-5 0 LINE"
);
},
{
closed = 1;
nodes = (
"57 779 OFFCURVE",
"95 793 OFFCURVE",
"134 793 CURVE SMOOTH",
"198 793 OFFCURVE",
"248 743 OFFCURVE",
"321 743 CURVE SMOOTH",
"365 743 OFFCURVE",
"403 754 OFFCURVE",
"433 784 CURVE",
"460 912 LINE",
"423 876 OFFCURVE",
"386 862 OFFCURVE",
"346 862 CURVE SMOOTH",
"281 862 OFFCURVE",
"227 912 OFFCURVE",
"159 912 CURVE SMOOTH",
"116 912 OFFCURVE",
"77 900 OFFCURVE",
"46 870 CURVE",
"18 742 LINE"
);
}
);
width = 267;
}
);
note = Itilde;
unicode = 0128;
},
{
glyphname = J;
lastChange = "2015-11-30 02:09:03 +0000";
layers = (
{
layerId = "E876E4BA-4024-4F05-97F6-A7AFE1BCFA82";
name = "Bold Italic";
paths = (
{
closed = 1;
nodes = (
"228 -15 OFFCURVE",
"311 65 OFFCURVE",
"342 209 CURVE SMOOTH",
"446 699 LINE",
"269 699 LINE",
"169 229 LINE SMOOTH",
"157 172 OFFCURVE",
"136 149 OFFCURVE",
"72 149 CURVE SMOOTH",
"42 149 OFFCURVE",
"8 154 OFFCURVE",
"-11 164 CURVE",
"-44 8 LINE",
"-23 -5 OFFCURVE",
"39 -15 OFFCURVE",
"82 -15 CURVE SMOOTH"
);
}
);
width = 388;
}
);
note = J;
rightKerningGroup = J;
unicode = 004A;
},
{
glyphname = Jcircumflex;
lastChange = "2015-11-30 02:09:03 +0000";
layers = (
{
layerId = "E876E4BA-4024-4F05-97F6-A7AFE1BCFA82";
name = "Bold Italic";
paths = (
{
closed = 1;
nodes = (
"228 -15 OFFCURVE",
"311 65 OFFCURVE",
"342 209 CURVE SMOOTH",
"446 699 LINE",
"269 699 LINE",
"169 229 LINE SMOOTH",
"157 172 OFFCURVE",
"136 149 OFFCURVE",
"72 149 CURVE SMOOTH",
"42 149 OFFCURVE",
"8 154 OFFCURVE",
"-11 164 CURVE",
"-44 8 LINE",
"-23 -5 OFFCURVE",
"39 -15 OFFCURVE",
"82 -15 CURVE SMOOTH"
);
},
{
closed = 1;
nodes = (
"288 742 LINE",
"366 827 LINE",
"408 742 LINE",
"577 742 LINE",
"459 923 LINE",
"302 923 LINE",
"109 742 LINE"
);
}
);
width = 388;
}
);
note = Jcircumflex;
rightKerningGroup = J;
unicode = 0134;
},
{
glyphname = K;
lastChange = "2015-11-30 02:09:01 +0000";
layers = (
{
layerId = "E876E4BA-4024-4F05-97F6-A7AFE1BCFA82";
name = "Bold Italic";
paths = (
{
closed = 1;
nodes = (
"172 0 LINE",
"237 309 LINE",
"432 0 LINE",
"637 0 LINE",
"416 354 LINE",
"771 699 LINE",
"556 699 LINE",
"258 409 LINE",
"320 699 LINE",
"143 699 LINE",
"-5 0 LINE"
);
}
);
width = 717;
}
);
leftKerningGroup = K;
note = K;
rightKerningGroup = K;
unicode = 004B;
},
{
glyphname = Kcommaaccent;
lastChange = "2015-11-30 02:09:01 +0000";
layers = (
{
layerId = "E876E4BA-4024-4F05-97F6-A7AFE1BCFA82";
name = "Bold Italic";
paths = (
{
closed = 1;
nodes = (
"172 0 LINE",
"237 309 LINE",
"432 0 LINE",
"637 0 LINE",
"416 354 LINE",
"771 699 LINE",
"556 699 LINE",
"258 409 LINE",
"320 699 LINE",
"143 699 LINE",
"-5 0 LINE"
);
},
{
closed = 1;
nodes = (
"230 -260 LINE",
"380 -49 LINE",
"198 -49 LINE",
"71 -260 LINE"
);
}
);
width = 717;
}
);
leftKerningGroup = K;
note = Kcommaaccent;
rightKerningGroup = K;
unicode = 0136;
},
{
glyphname = L;
lastChange = "2015-11-30 02:09:01 +0000";
layers = (
{
layerId = "E876E4BA-4024-4F05-97F6-A7AFE1BCFA82";
name = "Bold Italic";
paths = (
{
closed = 1;
nodes = (
"476 0 LINE",
"507 149 LINE",
"203 149 LINE",
"320 699 LINE",
"143 699 LINE",
"-5 0 LINE"
);
}
);
width = 531;
}
);
note = L;
rightKerningGroup = L;
unicode = 004C;
},
{
glyphname = Lacute;
lastChange = "2015-11-30 02:09:03 +0000";
layers = (
{
layerId = "E876E4BA-4024-4F05-97F6-A7AFE1BCFA82";
name = "Bold Italic";
paths = (
{
closed = 1;
nodes = (
"476 0 LINE",
"507 149 LINE",
"203 149 LINE",
"320 699 LINE",
"143 699 LINE",
"-5 0 LINE"
);
},
{
closed = 1;
nodes = (
"308 742 LINE",
"437 920 LINE",
"252 920 LINE",
"145 742 LINE"
);
}
);
width = 531;
}
);
note = Lacute;
rightKerningGroup = L;
unicode = 0139;
},
{
glyphname = Lcaron;
lastChange = "2015-11-30 02:09:02 +0000";
layers = (
{
layerId = "E876E4BA-4024-4F05-97F6-A7AFE1BCFA82";
name = "Bold Italic";
paths = (
{
closed = 1;
nodes = (
"476 0 LINE",
"507 149 LINE",
"203 149 LINE",
"320 699 LINE",
"143 699 LINE",
"-5 0 LINE"
);
},
{
closed = 1;
nodes = (
"520 503 LINE",
"670 714 LINE",
"488 714 LINE",
"361 503 LINE"
);
}
);
width = 523;
}
);
note = Lcaron;
rightKerningGroup = L;
unicode = 013D;
},
{
glyphname = Lcommaaccent;
lastChange = "2015-11-30 02:09:03 +0000";
layers = (
{
layerId = "E876E4BA-4024-4F05-97F6-A7AFE1BCFA82";
name = "Bold Italic";
paths = (
{
closed = 1;
nodes = (
"476 0 LINE",
"507 149 LINE",
"203 149 LINE",
"320 699 LINE",
"143 699 LINE",
"-5 0 LINE"
);
},
{
closed = 1;
nodes = (
"187 -260 LINE",
"337 -49 LINE",
"155 -49 LINE",
"28 -260 LINE"
);
}
);
width = 531;
}
);
note = Lcommaaccent;
rightKerningGroup = L;
unicode = 013B;
},
{
glyphname = Ldot;
lastChange = "2015-11-30 02:09:01 +0000";
layers = (
{
layerId = "E876E4BA-4024-4F05-97F6-A7AFE1BCFA82";
name = "Bold Italic";
paths = (
{
closed = 1;
nodes = (
"476 0 LINE",
"507 149 LINE",
"203 149 LINE",
"320 699 LINE",
"143 699 LINE",
"-5 0 LINE"
);
},
{
closed = 1;
nodes = (
"455 318 OFFCURVE",
"496 351 OFFCURVE",
"505 394 CURVE SMOOTH",
"514 437 OFFCURVE",
"487 472 OFFCURVE",
"445 472 CURVE SMOOTH",
"403 472 OFFCURVE",
"360 437 OFFCURVE",
"351 394 CURVE SMOOTH",
"342 351 OFFCURVE",
"371 318 OFFCURVE",
"413 318 CURVE SMOOTH"
);
}
);
width = 531;
}
);
note = Ldot;
rightKerningGroup = L;
unicode = 013F;
},
{
glyphname = Ldotbelow;
lastChange = "2015-11-30 02:09:01 +0000";
layers = (
{
layerId = "E876E4BA-4024-4F05-97F6-A7AFE1BCFA82";
name = "Bold Italic";
paths = (
{
closed = 1;
nodes = (
"476 0 LINE",
"507 149 LINE",
"203 149 LINE",
"320 699 LINE",
"143 699 LINE",
"-5 0 LINE"
);
},
{
closed = 1;
nodes = (
"228 -200 OFFCURVE",
"268 -166 OFFCURVE",
"277 -123 CURVE SMOOTH",
"286 -80 OFFCURVE",
"260 -46 OFFCURVE",
"219 -46 CURVE SMOOTH",
"177 -46 OFFCURVE",
"133 -80 OFFCURVE",
"124 -123 CURVE SMOOTH",
"115 -166 OFFCURVE",
"144 -200 OFFCURVE",
"186 -200 CURVE SMOOTH"
);
}
);
width = 531;
}
);
note = Ldotbelow;
rightKerningGroup = L;
unicode = 1E36;
},
{
glyphname = Ldotbelowmacron;
lastChange = "2015-11-30 02:09:02 +0000";
layers = (
{
layerId = "E876E4BA-4024-4F05-97F6-A7AFE1BCFA82";
name = "Bold Italic";
paths = (
{
closed = 1;
nodes = (
"458 0 LINE",
"489 149 LINE",
"185 149 LINE",
"302 699 LINE",
"125 699 LINE",
"-23 0 LINE"
);
},
{
closed = 1;
nodes = (
"221 -200 OFFCURVE",
"261 -166 OFFCURVE",
"270 -123 CURVE SMOOTH",
"279 -80 OFFCURVE",
"253 -46 OFFCURVE",
"212 -46 CURVE SMOOTH",
"170 -46 OFFCURVE",
"126 -80 OFFCURVE",
"117 -123 CURVE SMOOTH",
"108 -166 OFFCURVE",
"137 -200 OFFCURVE",
"179 -200 CURVE SMOOTH"
);
},
{
closed = 1;
nodes = (
"439 752 LINE",
"463 865 LINE",
"119 865 LINE",
"95 752 LINE"
);
}
);
width = 513;
}
);
note = Ldotbelowmacron;
rightKerningGroup = L;
unicode = 1E38;
},
{
glyphname = Llinebelow;
lastChange = "2015-11-30 02:09:02 +0000";
layers = (
{
layerId = "E876E4BA-4024-4F05-97F6-A7AFE1BCFA82";
name = "Bold Italic";
paths = (
{
closed = 1;
nodes = (
"476 0 LINE",
"507 149 LINE",
"203 149 LINE",
"320 699 LINE",
"143 699 LINE",
"-5 0 LINE"
);
},
{
closed = 1;
nodes = (
"370 -172 LINE",
"394 -59 LINE",
"50 -59 LINE",
"26 -172 LINE"
);
}
);
width = 531;
}
);
note = Llinebelow;
rightKerningGroup = L;
unicode = 1E3A;
},
{
glyphname = Lslash;
lastChange = "2015-11-30 02:09:01 +0000";
layers = (
{
layerId = "E876E4BA-4024-4F05-97F6-A7AFE1BCFA82";
name = "Bold Italic";
paths = (
{
closed = 1;
nodes = (
"492 0 LINE",
"524 155 LINE",
"229 155 LINE",
"268 339 LINE",
"415 399 LINE",
"451 568 LINE",
"304 508 LINE",
"345 699 LINE",
"160 699 LINE",
"102 425 LINE",
"18 391 LINE",
"-18 222 LINE",
"66 256 LINE",
"12 0 LINE"
);
}
);
width = 547;
}
);
note = Lslash;
rightKerningGroup = L;
unicode = 0141;
},
{
glyphname = M;
lastChange = "2015-11-30 02:09:02 +0000";
layers = (
{
layerId = "E876E4BA-4024-4F05-97F6-A7AFE1BCFA82";
name = "Bold Italic";
paths = (
{
closed = 1;
nodes = (
"161 0 LINE",
"235 351 LINE",
"327 0 LINE",
"407 0 LINE",
"648 351 LINE",
"574 0 LINE",
"739 0 LINE",
"887 699 LINE",
"713 699 LINE",
"418 266 LINE",
"308 699 LINE",
"143 699 LINE",
"-5 0 LINE"
);
}
);
width = 834;
}
);
note = M;
unicode = 004D;
},
{
glyphname = Mdotbelow;
lastChange = "2015-11-30 02:09:01 +0000";
layers = (
{
layerId = "E876E4BA-4024-4F05-97F6-A7AFE1BCFA82";
name = "Bold Italic";
paths = (
{
closed = 1;
nodes = (
"161 0 LINE",
"235 351 LINE",
"327 0 LINE",
"407 0 LINE",
"648 351 LINE",
"574 0 LINE",
"739 0 LINE",
"887 699 LINE",
"713 699 LINE",
"418 266 LINE",
"308 699 LINE",
"143 699 LINE",
"-5 0 LINE"
);
},
{
closed = 1;
nodes = (
"368 -200 OFFCURVE",
"408 -166 OFFCURVE",
"417 -123 CURVE SMOOTH",
"426 -80 OFFCURVE",
"400 -46 OFFCURVE",
"359 -46 CURVE SMOOTH",
"317 -46 OFFCURVE",
"273 -80 OFFCURVE",
"264 -123 CURVE SMOOTH",
"255 -166 OFFCURVE",
"284 -200 OFFCURVE",
"326 -200 CURVE SMOOTH"
);
}
);
width = 834;
}
);
note = Mdotbelow;
unicode = 1E42;
},
{
glyphname = N;
lastChange = "2015-11-30 02:09:02 +0000";
layers = (
{
layerId = "E876E4BA-4024-4F05-97F6-A7AFE1BCFA82";
name = "Bold Italic";
paths = (
{
closed = 1;
nodes = (
"177 0 LINE",
"265 417 LINE",
"435 0 LINE",
"604 0 LINE",
"752 699 LINE",
"580 699 LINE",
"492 283 LINE",
"323 699 LINE",
"143 699 LINE",
"-5 0 LINE"
);
}
);
width = 699;
}
);
note = N;
unicode = 004E;
},
{
glyphname = Nacute;
lastChange = "2015-11-30 02:09:02 +0000";
layers = (
{
layerId = "E876E4BA-4024-4F05-97F6-A7AFE1BCFA82";
name = "Bold Italic";
paths = (
{
closed = 1;
nodes = (
"177 0 LINE",
"265 417 LINE",
"435 0 LINE",
"604 0 LINE",
"752 699 LINE",
"580 699 LINE",
"492 283 LINE",
"323 699 LINE",
"143 699 LINE",
"-5 0 LINE"
);
},
{
closed = 1;
nodes = (
"515 742 LINE",
"644 920 LINE",
"459 920 LINE",
"352 742 LINE"
);
}
);
width = 699;
}
);
note = Nacute;
unicode = 0143;
},
{
glyphname = Ncaron;
lastChange = "2015-11-30 02:09:01 +0000";
layers = (
{
layerId = "E876E4BA-4024-4F05-97F6-A7AFE1BCFA82";
name = "Bold Italic";
paths = (
{
closed = 1;
nodes = (
"177 0 LINE",
"265 417 LINE",
"435 0 LINE",
"604 0 LINE",
"752 699 LINE",
"580 699 LINE",
"492 283 LINE",
"323 699 LINE",
"143 699 LINE",
"-5 0 LINE"
);
},
{
closed = 1;
nodes = (
"520 742 LINE",
"714 923 LINE",
"535 923 LINE",
"457 838 LINE",
"415 923 LINE",
"246 923 LINE",
"363 742 LINE"
);
}
);
width = 699;
}
);
note = Ncaron;
unicode = 0147;
},
{
glyphname = Ncommaaccent;
lastChange = "2015-11-30 02:09:02 +0000";
layers = (
{
layerId = "E876E4BA-4024-4F05-97F6-A7AFE1BCFA82";
name = "Bold Italic";
paths = (
{
closed = 1;
nodes = (
"177 0 LINE",
"265 417 LINE",
"435 0 LINE",
"604 0 LINE",
"752 699 LINE",
"580 699 LINE",
"492 283 LINE",
"323 699 LINE",
"143 699 LINE",
"-5 0 LINE"
);
},
{
closed = 1;
nodes = (
"242 -260 LINE",
"392 -49 LINE",
"210 -49 LINE",
"83 -260 LINE"
);
}
);
width = 699;
}
);
note = Ncommaaccent;
unicode = 0145;
},
{
glyphname = Ndotaccent;
lastChange = "2015-11-30 02:09:02 +0000";
layers = (
{
layerId = "E876E4BA-4024-4F05-97F6-A7AFE1BCFA82";
name = "Bold Italic";
paths = (
{
closed = 1;
nodes = (
"177 0 LINE",
"265 417 LINE",
"435 0 LINE",
"604 0 LINE",
"752 699 LINE",
"580 699 LINE",
"492 283 LINE",
"323 699 LINE",
"143 699 LINE",
"-5 0 LINE"
);
},
{
closed = 1;
nodes = (
"495 752 OFFCURVE",
"536 785 OFFCURVE",
"545 828 CURVE SMOOTH",
"554 871 OFFCURVE",
"527 906 OFFCURVE",
"485 906 CURVE SMOOTH",
"443 906 OFFCURVE",
"400 871 OFFCURVE",
"391 828 CURVE SMOOTH",
"382 785 OFFCURVE",
"411 752 OFFCURVE",
"453 752 CURVE SMOOTH"
);
}
);
width = 699;
}
);
note = Ndotaccent;
unicode = 1E44;
},
{
glyphname = Ndotbelow;
lastChange = "2015-11-30 02:09:02 +0000";
layers = (
{
layerId = "E876E4BA-4024-4F05-97F6-A7AFE1BCFA82";
name = "Bold Italic";
paths = (
{
closed = 1;
nodes = (
"177 0 LINE",
"265 417 LINE",
"435 0 LINE",
"604 0 LINE",
"752 699 LINE",
"580 699 LINE",
"492 283 LINE",
"323 699 LINE",
"143 699 LINE",
"-5 0 LINE"
);
},
{
closed = 1;
nodes = (
"313 -200 OFFCURVE",
"353 -166 OFFCURVE",
"362 -123 CURVE SMOOTH",
"371 -80 OFFCURVE",
"345 -46 OFFCURVE",
"304 -46 CURVE SMOOTH",
"262 -46 OFFCURVE",
"218 -80 OFFCURVE",
"209 -123 CURVE SMOOTH",
"200 -166 OFFCURVE",
"229 -200 OFFCURVE",
"271 -200 CURVE SMOOTH"
);
}
);
width = 699;
}
);
note = Ndotbelow;
unicode = 1E46;
},
{
glyphname = Eng;
lastChange = "2015-11-30 02:09:01 +0000";
layers = (
{
layerId = "E876E4BA-4024-4F05-97F6-A7AFE1BCFA82";
name = "Bold Italic";
paths = (
{
closed = 1;
nodes = (
"472 -231 OFFCURVE",
"568 -170 OFFCURVE",
"596 -36 CURVE SMOOTH",
"752 699 LINE",
"580 699 LINE",
"492 283 LINE",
"323 699 LINE",
"143 699 LINE",
"-5 0 LINE",
"177 0 LINE",
"265 417 LINE",
"432 6 LINE",
"428 -15 LINE SMOOTH",
"417 -66 OFFCURVE",
"383 -88 OFFCURVE",
"338 -88 CURVE SMOOTH",
"310 -88 OFFCURVE",
"290 -83 OFFCURVE",
"273 -74 CURVE",
"243 -214 LINE",
"265 -225 OFFCURVE",
"295 -231 OFFCURVE",
"335 -231 CURVE SMOOTH"
);
}
);
width = 711;
}
);
note = Eng;
unicode = 014A;
},
{
glyphname = Nlinebelow;
lastChange = "2015-11-30 02:09:02 +0000";
layers = (
{
layerId = "E876E4BA-4024-4F05-97F6-A7AFE1BCFA82";
name = "Bold Italic";
paths = (
{
closed = 1;
nodes = (
"177 0 LINE",
"265 417 LINE",
"435 0 LINE",
"604 0 LINE",
"752 699 LINE",
"580 699 LINE",
"492 283 LINE",
"323 699 LINE",
"143 699 LINE",
"-5 0 LINE"
);
},
{
closed = 1;
nodes = (
"451 -172 LINE",
"475 -59 LINE",
"131 -59 LINE",
"107 -172 LINE"
);
}
);
width = 699;
}
);
note = Nlinebelow;
unicode = 1E48;
},
{
glyphname = Ntilde;
lastChange = "2015-11-30 02:09:03 +0000";
layers = (
{
layerId = "E876E4BA-4024-4F05-97F6-A7AFE1BCFA82";
name = "Bold Italic";
paths = (
{
closed = 1;
nodes = (
"177 0 LINE",
"265 417 LINE",
"435 0 LINE",
"604 0 LINE",
"752 699 LINE",
"580 699 LINE",
"492 283 LINE",
"323 699 LINE",
"143 699 LINE",
"-5 0 LINE"
);
},
{
closed = 1;
nodes = (
"281 779 OFFCURVE",
"319 793 OFFCURVE",
"358 793 CURVE SMOOTH",
"422 793 OFFCURVE",
"472 743 OFFCURVE",
"545 743 CURVE SMOOTH",
"589 743 OFFCURVE",
"627 754 OFFCURVE",
"657 784 CURVE",
"684 912 LINE",
"647 876 OFFCURVE",
"610 862 OFFCURVE",
"570 862 CURVE SMOOTH",
"505 862 OFFCURVE",
"451 912 OFFCURVE",
"383 912 CURVE SMOOTH",
"340 912 OFFCURVE",
"301 900 OFFCURVE",
"270 870 CURVE",
"242 742 LINE"
);
}
);
width = 699;
}
);
note = Ntilde;
unicode = 00D1;
},
{
glyphname = O;
lastChange = "2015-11-30 02:09:03 +0000";
layers = (
{
layerId = "E876E4BA-4024-4F05-97F6-A7AFE1BCFA82";
name = "Bold Italic";
paths = (
{
closed = 1;
nodes = (
"558 -15 OFFCURVE",
"752 131 OFFCURVE",
"799 349 CURVE SMOOTH",
"845 568 OFFCURVE",
"713 714 OFFCURVE",
"502 714 CURVE SMOOTH",
"290 714 OFFCURVE",
"95 568 OFFCURVE",
"49 349 CURVE SMOOTH",
"2 131 OFFCURVE",
"135 -15 OFFCURVE",
"347 -15 CURVE SMOOTH"
);
},
{
closed = 1;
nodes = (
"257 151 OFFCURVE",
"204 225 OFFCURVE",
"231 349 CURVE SMOOTH",
"257 471 OFFCURVE",
"358 547 OFFCURVE",
"467 547 CURVE SMOOTH",
"591 547 OFFCURVE",
"644 471 OFFCURVE",
"618 349 CURVE SMOOTH",
"591 225 OFFCURVE",
"489 151 OFFCURVE",
"383 151 CURVE SMOOTH"
);
}
);
width = 800;
}
);
leftKerningGroup = O;
note = O;
rightKerningGroup = O;
unicode = 004F;
},
{
glyphname = Oacute;
lastChange = "2015-11-30 02:09:03 +0000";
layers = (
{
layerId = "E876E4BA-4024-4F05-97F6-A7AFE1BCFA82";
name = "Bold Italic";
paths = (
{
closed = 1;
nodes = (
"558 -15 OFFCURVE",
"752 131 OFFCURVE",
"799 349 CURVE SMOOTH",
"845 568 OFFCURVE",
"713 714 OFFCURVE",
"502 714 CURVE SMOOTH",
"290 714 OFFCURVE",
"95 568 OFFCURVE",
"49 349 CURVE SMOOTH",
"2 131 OFFCURVE",
"135 -15 OFFCURVE",
"347 -15 CURVE SMOOTH"
);
},
{
closed = 1;
nodes = (
"257 151 OFFCURVE",
"204 225 OFFCURVE",
"231 349 CURVE SMOOTH",
"257 471 OFFCURVE",
"358 547 OFFCURVE",
"467 547 CURVE SMOOTH",
"591 547 OFFCURVE",
"644 471 OFFCURVE",
"618 349 CURVE SMOOTH",
"591 225 OFFCURVE",
"489 151 OFFCURVE",
"383 151 CURVE SMOOTH"
);
},
{
closed = 1;
nodes = (
"568 742 LINE",
"697 920 LINE",
"512 920 LINE",
"405 742 LINE"
);
}
);
width = 800;
}
);
leftKerningGroup = O;
note = Oacute;
rightKerningGroup = O;
unicode = 00D3;
},
{
glyphname = Obreve;
lastChange = "2015-11-30 02:09:01 +0000";
layers = (
{
layerId = "E876E4BA-4024-4F05-97F6-A7AFE1BCFA82";
name = "Bold Italic";
paths = (
{
closed = 1;
nodes = (
"558 -15 OFFCURVE",
"752 131 OFFCURVE",
"799 349 CURVE SMOOTH",
"845 568 OFFCURVE",
"713 714 OFFCURVE",
"502 714 CURVE SMOOTH",
"290 714 OFFCURVE",
"95 568 OFFCURVE",
"49 349 CURVE SMOOTH",
"2 131 OFFCURVE",
"135 -15 OFFCURVE",
"347 -15 CURVE SMOOTH"
);
},
{
closed = 1;
nodes = (
"257 151 OFFCURVE",
"204 225 OFFCURVE",
"231 349 CURVE SMOOTH",
"257 471 OFFCURVE",
"358 547 OFFCURVE",
"467 547 CURVE SMOOTH",
"591 547 OFFCURVE",
"644 471 OFFCURVE",
"618 349 CURVE SMOOTH",
"591 225 OFFCURVE",
"489 151 OFFCURVE",
"383 151 CURVE SMOOTH"
);
},
{
closed = 1;
nodes = (
"604 742 OFFCURVE",
"684 810 OFFCURVE",
"707 915 CURVE",
"571 915 LINE",
"562 874 OFFCURVE",
"538 853 OFFCURVE",
"505 853 CURVE SMOOTH",
"471 853 OFFCURVE",
"458 874 OFFCURVE",
"467 915 CURVE",
"342 915 LINE",
"319 810 OFFCURVE",
"370 742 OFFCURVE",
"487 742 CURVE SMOOTH"
);
}
);
width = 800;
}
);
leftKerningGroup = O;
note = Obreve;
rightKerningGroup = O;
unicode = 014E;
},
{
glyphname = Ocaron;
lastChange = "2015-11-30 02:09:01 +0000";
layers = (
{
layerId = "E876E4BA-4024-4F05-97F6-A7AFE1BCFA82";
name = "Bold Italic";
paths = (
{
closed = 1;
nodes = (
"558 -15 OFFCURVE",
"752 131 OFFCURVE",
"799 349 CURVE SMOOTH",
"845 568 OFFCURVE",
"713 714 OFFCURVE",
"502 714 CURVE SMOOTH",
"290 714 OFFCURVE",
"95 568 OFFCURVE",
"49 349 CURVE SMOOTH",
"2 131 OFFCURVE",
"135 -15 OFFCURVE",
"347 -15 CURVE SMOOTH"
);
},
{
closed = 1;
nodes = (
"257 151 OFFCURVE",
"204 225 OFFCURVE",
"231 349 CURVE SMOOTH",
"257 471 OFFCURVE",
"358 547 OFFCURVE",
"467 547 CURVE SMOOTH",
"591 547 OFFCURVE",
"644 471 OFFCURVE",
"618 349 CURVE SMOOTH",
"591 225 OFFCURVE",
"489 151 OFFCURVE",
"383 151 CURVE SMOOTH"
);
},
{
closed = 1;
nodes = (
"566 742 LINE",
"760 923 LINE",
"581 923 LINE",
"503 838 LINE",
"461 923 LINE",
"292 923 LINE",
"409 742 LINE"
);
}
);
width = 800;
}
);
leftKerningGroup = O;
note = Ocaron;
rightKerningGroup = O;
unicode = 01D1;
},
{
glyphname = Ocircumflex;
lastChange = "2015-11-30 02:09:01 +0000";
layers = (
{
layerId = "E876E4BA-4024-4F05-97F6-A7AFE1BCFA82";
name = "Bold Italic";
paths = (
{
closed = 1;
nodes = (
"558 -15 OFFCURVE",
"752 131 OFFCURVE",
"799 349 CURVE SMOOTH",
"845 568 OFFCURVE",
"713 714 OFFCURVE",
"502 714 CURVE SMOOTH",
"290 714 OFFCURVE",
"95 568 OFFCURVE",
"49 349 CURVE SMOOTH",
"2 131 OFFCURVE",
"135 -15 OFFCURVE",
"347 -15 CURVE SMOOTH"
);
},
{
closed = 1;
nodes = (
"257 151 OFFCURVE",
"204 225 OFFCURVE",
"231 349 CURVE SMOOTH",
"257 471 OFFCURVE",
"358 547 OFFCURVE",
"467 547 CURVE SMOOTH",
"591 547 OFFCURVE",
"644 471 OFFCURVE",
"618 349 CURVE SMOOTH",
"591 225 OFFCURVE",
"489 151 OFFCURVE",
"383 151 CURVE SMOOTH"
);
},
{
closed = 1;
nodes = (
"433 742 LINE",
"511 827 LINE",
"553 742 LINE",
"722 742 LINE",
"604 923 LINE",
"447 923 LINE",
"254 742 LINE"
);
}
);
width = 800;
}
);
leftKerningGroup = O;
note = Ocircumflex;
rightKerningGroup = O;
unicode = 00D4;
},
{
glyphname = Ocircumflexacute;
lastChange = "2015-11-30 02:09:01 +0000";
layers = (
{
layerId = "E876E4BA-4024-4F05-97F6-A7AFE1BCFA82";
name = "Bold Italic";
paths = (
{
closed = 1;
nodes = (
"558 -15 OFFCURVE",
"752 131 OFFCURVE",
"799 349 CURVE SMOOTH",
"845 568 OFFCURVE",
"713 714 OFFCURVE",
"502 714 CURVE SMOOTH",
"290 714 OFFCURVE",
"95 568 OFFCURVE",
"49 349 CURVE SMOOTH",
"2 131 OFFCURVE",
"135 -15 OFFCURVE",
"347 -15 CURVE SMOOTH"
);
},
{
closed = 1;
nodes = (
"257 151 OFFCURVE",
"204 225 OFFCURVE",
"231 349 CURVE SMOOTH",
"257 471 OFFCURVE",
"358 547 OFFCURVE",
"467 547 CURVE SMOOTH",
"591 547 OFFCURVE",
"644 471 OFFCURVE",
"618 349 CURVE SMOOTH",
"591 225 OFFCURVE",
"489 151 OFFCURVE",
"383 151 CURVE SMOOTH"
);
},
{
closed = 1;
nodes = (
"454 742 LINE",
"527 809 LINE",
"570 742 LINE",
"725 742 LINE",
"608 899 LINE",
"484 899 LINE",
"298 742 LINE"
);
},
{
closed = 1;
nodes = (
"805 858 LINE",
"916 997 LINE",
"754 997 LINE",
"665 858 LINE"
);
}
);
width = 778;
}
);
leftKerningGroup = O;
note = Ocircumflexacute;
rightKerningGroup = O;
unicode = 1ED0;
},
{
glyphname = Ocircumflexdotbelow;
lastChange = "2015-11-30 02:09:01 +0000";
layers = (
{
layerId = "E876E4BA-4024-4F05-97F6-A7AFE1BCFA82";
name = "Bold Italic";
paths = (
{
closed = 1;
nodes = (
"558 -15 OFFCURVE",
"752 131 OFFCURVE",
"799 349 CURVE SMOOTH",
"845 568 OFFCURVE",
"713 714 OFFCURVE",
"502 714 CURVE SMOOTH",
"290 714 OFFCURVE",
"95 568 OFFCURVE",
"49 349 CURVE SMOOTH",
"2 131 OFFCURVE",
"135 -15 OFFCURVE",
"347 -15 CURVE SMOOTH"
);
},
{
closed = 1;
nodes = (
"353 -200 OFFCURVE",
"393 -166 OFFCURVE",
"402 -123 CURVE SMOOTH",
"411 -80 OFFCURVE",
"385 -46 OFFCURVE",
"344 -46 CURVE SMOOTH",
"302 -46 OFFCURVE",
"258 -80 OFFCURVE",
"249 -123 CURVE SMOOTH",
"240 -166 OFFCURVE",
"269 -200 OFFCURVE",
"311 -200 CURVE SMOOTH"
);
},
{
closed = 1;
nodes = (
"257 151 OFFCURVE",
"204 225 OFFCURVE",
"231 349 CURVE SMOOTH",
"257 471 OFFCURVE",
"358 547 OFFCURVE",
"467 547 CURVE SMOOTH",
"591 547 OFFCURVE",
"644 471 OFFCURVE",
"618 349 CURVE SMOOTH",
"591 225 OFFCURVE",
"489 151 OFFCURVE",
"383 151 CURVE SMOOTH"
);
},
{
closed = 1;
nodes = (
"433 742 LINE",
"511 827 LINE",
"553 742 LINE",
"722 742 LINE",
"604 923 LINE",
"447 923 LINE",
"254 742 LINE"
);
}
);
width = 800;
}
);
leftKerningGroup = O;
note = Ocircumflexdotbelow;
rightKerningGroup = O;
unicode = 1ED8;
},
{
glyphname = Ocircumflexgrave;
lastChange = "2015-11-30 02:09:01 +0000";
layers = (
{
layerId = "E876E4BA-4024-4F05-97F6-A7AFE1BCFA82";
name = "Bold Italic";
paths = (
{
closed = 1;
nodes = (
"536 -15 OFFCURVE",
"730 131 OFFCURVE",
"777 349 CURVE SMOOTH",
"823 568 OFFCURVE",
"691 714 OFFCURVE",
"480 714 CURVE SMOOTH",
"268 714 OFFCURVE",
"73 568 OFFCURVE",
"27 349 CURVE SMOOTH",
"-20 131 OFFCURVE",
"113 -15 OFFCURVE",
"325 -15 CURVE SMOOTH"
);
},
{
closed = 1;
nodes = (
"235 151 OFFCURVE",
"182 225 OFFCURVE",
"209 349 CURVE SMOOTH",
"235 471 OFFCURVE",
"336 547 OFFCURVE",
"445 547 CURVE SMOOTH",
"569 547 OFFCURVE",
"622 471 OFFCURVE",
"596 349 CURVE SMOOTH",
"569 225 OFFCURVE",
"467 151 OFFCURVE",
"361 151 CURVE SMOOTH"
);
},
{
closed = 1;
nodes = (
"384 858 LINE",
"355 997 LINE",
"193 997 LINE",
"244 858 LINE"
);
},
{
closed = 1;
nodes = (
"430 742 LINE",
"503 809 LINE",
"546 742 LINE",
"701 742 LINE",
"583 899 LINE",
"460 899 LINE",
"274 742 LINE"
);
}
);
width = 778;
}
);
leftKerningGroup = O;
note = Ocircumflexgrave;
rightKerningGroup = O;
unicode = 1ED2;
},
{
glyphname = Ocircumflexhookabove;
lastChange = "2015-11-30 02:09:02 +0000";
layers = (
{
layerId = "E876E4BA-4024-4F05-97F6-A7AFE1BCFA82";
name = "Bold Italic";
paths = (
{
closed = 1;
nodes = (
"558 -15 OFFCURVE",
"752 131 OFFCURVE",
"799 349 CURVE SMOOTH",
"845 568 OFFCURVE",
"713 714 OFFCURVE",
"502 714 CURVE SMOOTH",
"290 714 OFFCURVE",
"95 568 OFFCURVE",
"49 349 CURVE SMOOTH",
"2 131 OFFCURVE",
"135 -15 OFFCURVE",
"347 -15 CURVE SMOOTH"
);
},
{
closed = 1;
nodes = (
"257 151 OFFCURVE",
"204 225 OFFCURVE",
"231 349 CURVE SMOOTH",
"257 471 OFFCURVE",
"358 547 OFFCURVE",
"467 547 CURVE SMOOTH",
"591 547 OFFCURVE",
"644 471 OFFCURVE",
"618 349 CURVE SMOOTH",
"591 225 OFFCURVE",
"489 151 OFFCURVE",
"383 151 CURVE SMOOTH"
);
},
{
closed = 1;
nodes = (
"451 742 LINE",
"524 809 LINE",
"567 742 LINE",
"722 742 LINE",
"605 899 LINE",
"481 899 LINE",
"295 742 LINE"
);
},
{
closed = 1;
nodes = (
"771 847 LINE",
"776 872 LINE",
"816 881 OFFCURVE",
"844 904 OFFCURVE",
"851 937 CURVE SMOOTH",
"860 981 OFFCURVE",
"829 1011 OFFCURVE",
"759 1011 CURVE SMOOTH",
"732 1011 OFFCURVE",
"692 1005 OFFCURVE",
"670 999 CURVE",
"658 940 LINE",
"667 944 OFFCURVE",
"684 947 OFFCURVE",
"696 947 CURVE SMOOTH",
"723 947 OFFCURVE",
"734 940 OFFCURVE",
"731 924 CURVE SMOOTH",
"727 904 OFFCURVE",
"707 898 OFFCURVE",
"674 898 CURVE",
"663 847 LINE"
);
}
);
width = 800;
}
);
leftKerningGroup = O;
note = Ocircumflexhookabove;
rightKerningGroup = O;
unicode = 1ED4;
},
{
glyphname = Ocircumflextilde;
lastChange = "2015-11-30 02:09:02 +0000";
layers = (
{
layerId = "E876E4BA-4024-4F05-97F6-A7AFE1BCFA82";
name = "Bold Italic";
paths = (
{
closed = 1;
nodes = (
"558 -15 OFFCURVE",
"752 131 OFFCURVE",
"799 349 CURVE SMOOTH",
"845 568 OFFCURVE",
"713 714 OFFCURVE",
"502 714 CURVE SMOOTH",
"290 714 OFFCURVE",
"95 568 OFFCURVE",
"49 349 CURVE SMOOTH",
"2 131 OFFCURVE",
"135 -15 OFFCURVE",
"347 -15 CURVE SMOOTH"
);
},
{
closed = 1;
nodes = (
"257 151 OFFCURVE",
"204 225 OFFCURVE",
"231 349 CURVE SMOOTH",
"257 471 OFFCURVE",
"358 547 OFFCURVE",
"467 547 CURVE SMOOTH",
"591 547 OFFCURVE",
"644 471 OFFCURVE",
"618 349 CURVE SMOOTH",
"591 225 OFFCURVE",
"489 151 OFFCURVE",
"383 151 CURVE SMOOTH"
);
},
{
closed = 1;
nodes = (
"612 742 OFFCURVE",
"692 798 OFFCURVE",
"712 892 CURVE",
"598 892 LINE",
"590 854 OFFCURVE",
"566 838 OFFCURVE",
"528 838 CURVE SMOOTH",
"490 838 OFFCURVE",
"475 854 OFFCURVE",
"483 892 CURVE",
"367 892 LINE",
"347 798 OFFCURVE",
"404 742 OFFCURVE",
"508 742 CURVE SMOOTH"
);
},
{
closed = 1;
nodes = (
"661 922 OFFCURVE",
"691 932 OFFCURVE",
"715 955 CURVE",
"737 1057 LINE",
"707 1028 OFFCURVE",
"677 1016 OFFCURVE",
"646 1016 CURVE SMOOTH",
"595 1016 OFFCURVE",
"548 1058 OFFCURVE",
"495 1058 CURVE SMOOTH",
"459 1058 OFFCURVE",
"429 1048 OFFCURVE",
"405 1024 CURVE",
"383 923 LINE",
"413 952 OFFCURVE",
"443 964 OFFCURVE",
"475 964 CURVE SMOOTH",
"525 964 OFFCURVE",
"569 922 OFFCURVE",
"626 922 CURVE SMOOTH"
);
}
);
width = 800;
}
);
leftKerningGroup = O;
note = Ocircumflextilde;
rightKerningGroup = O;
unicode = 1ED6;
},
{
glyphname = Odieresis;
lastChange = "2015-11-30 02:09:02 +0000";
layers = (
{
layerId = "E876E4BA-4024-4F05-97F6-A7AFE1BCFA82";
name = "Bold Italic";
paths = (
{
closed = 1;
nodes = (
"558 -15 OFFCURVE",
"752 131 OFFCURVE",
"799 349 CURVE SMOOTH",
"845 568 OFFCURVE",
"713 714 OFFCURVE",
"502 714 CURVE SMOOTH",
"290 714 OFFCURVE",
"95 568 OFFCURVE",
"49 349 CURVE SMOOTH",
"2 131 OFFCURVE",
"135 -15 OFFCURVE",
"347 -15 CURVE SMOOTH"
);
},
{
closed = 1;
nodes = (
"257 151 OFFCURVE",
"204 225 OFFCURVE",
"231 349 CURVE SMOOTH",
"257 471 OFFCURVE",
"358 547 OFFCURVE",
"467 547 CURVE SMOOTH",
"591 547 OFFCURVE",
"644 471 OFFCURVE",
"618 349 CURVE SMOOTH",
"591 225 OFFCURVE",
"489 151 OFFCURVE",
"383 151 CURVE SMOOTH"
);
},
{
closed = 1;
nodes = (
"413 747 OFFCURVE",
"454 780 OFFCURVE",
"463 823 CURVE SMOOTH",
"472 866 OFFCURVE",
"445 901 OFFCURVE",
"403 901 CURVE SMOOTH",
"362 901 OFFCURVE",
"319 866 OFFCURVE",
"310 823 CURVE SMOOTH",
"301 780 OFFCURVE",
"330 747 OFFCURVE",
"371 747 CURVE SMOOTH"
);
},
{
closed = 1;
nodes = (
"648 747 OFFCURVE",
"690 780 OFFCURVE",
"699 823 CURVE SMOOTH",
"708 866 OFFCURVE",
"680 901 OFFCURVE",
"639 901 CURVE SMOOTH",
"597 901 OFFCURVE",
"554 866 OFFCURVE",
"545 823 CURVE SMOOTH",
"536 780 OFFCURVE",
"565 747 OFFCURVE",
"607 747 CURVE SMOOTH"
);
}
);
width = 800;
}
);
leftKerningGroup = O;
note = Odieresis;
rightKerningGroup = O;
unicode = 00D6;
},
{
glyphname = Odotbelow;
lastChange = "2015-11-30 02:09:02 +0000";
layers = (
{
layerId = "E876E4BA-4024-4F05-97F6-A7AFE1BCFA82";
name = "Bold Italic";
paths = (
{
closed = 1;
nodes = (
"558 -15 OFFCURVE",
"752 131 OFFCURVE",
"799 349 CURVE SMOOTH",
"845 568 OFFCURVE",
"713 714 OFFCURVE",
"502 714 CURVE SMOOTH",
"290 714 OFFCURVE",
"95 568 OFFCURVE",
"49 349 CURVE SMOOTH",
"2 131 OFFCURVE",
"135 -15 OFFCURVE",
"347 -15 CURVE SMOOTH"
);
},
{
closed = 1;
nodes = (
"351 -200 OFFCURVE",
"391 -166 OFFCURVE",
"400 -123 CURVE SMOOTH",
"409 -80 OFFCURVE",
"383 -46 OFFCURVE",
"342 -46 CURVE SMOOTH",
"300 -46 OFFCURVE",
"256 -80 OFFCURVE",
"247 -123 CURVE SMOOTH",
"238 -166 OFFCURVE",
"267 -200 OFFCURVE",
"309 -200 CURVE SMOOTH"
);
},
{
closed = 1;
nodes = (
"257 151 OFFCURVE",
"204 225 OFFCURVE",
"231 349 CURVE SMOOTH",
"257 471 OFFCURVE",
"358 547 OFFCURVE",
"467 547 CURVE SMOOTH",
"591 547 OFFCURVE",
"644 471 OFFCURVE",
"618 349 CURVE SMOOTH",
"591 225 OFFCURVE",
"489 151 OFFCURVE",
"383 151 CURVE SMOOTH"
);
}
);
width = 800;
}
);
leftKerningGroup = O;
note = Odotbelow;
rightKerningGroup = O;
unicode = 1ECC;
},
{
glyphname = Ograve;
lastChange = "2015-11-30 02:09:01 +0000";
layers = (
{
layerId = "E876E4BA-4024-4F05-97F6-A7AFE1BCFA82";
name = "Bold Italic";
paths = (
{
closed = 1;
nodes = (
"558 -15 OFFCURVE",
"752 131 OFFCURVE",
"799 349 CURVE SMOOTH",
"845 568 OFFCURVE",
"713 714 OFFCURVE",
"502 714 CURVE SMOOTH",
"290 714 OFFCURVE",
"95 568 OFFCURVE",
"49 349 CURVE SMOOTH",
"2 131 OFFCURVE",
"135 -15 OFFCURVE",
"347 -15 CURVE SMOOTH"
);
},
{
closed = 1;
nodes = (
"257 151 OFFCURVE",
"204 225 OFFCURVE",
"231 349 CURVE SMOOTH",
"257 471 OFFCURVE",
"358 547 OFFCURVE",
"467 547 CURVE SMOOTH",
"591 547 OFFCURVE",
"644 471 OFFCURVE",
"618 349 CURVE SMOOTH",
"591 225 OFFCURVE",
"489 151 OFFCURVE",
"383 151 CURVE SMOOTH"
);
},
{
closed = 1;
nodes = (
"591 742 LINE",
"560 920 LINE",
"375 920 LINE",
"428 742 LINE"
);
}
);
width = 800;
}
);
leftKerningGroup = O;
note = Ograve;
rightKerningGroup = O;
unicode = 00D2;
},
{
glyphname = Ohookabove;
lastChange = "2015-11-30 02:09:01 +0000";
layers = (
{
layerId = "E876E4BA-4024-4F05-97F6-A7AFE1BCFA82";
name = "Bold Italic";
paths = (
{
closed = 1;
nodes = (
"558 -15 OFFCURVE",
"752 131 OFFCURVE",
"799 349 CURVE SMOOTH",
"845 568 OFFCURVE",
"713 714 OFFCURVE",
"502 714 CURVE SMOOTH",
"290 714 OFFCURVE",
"95 568 OFFCURVE",
"49 349 CURVE SMOOTH",
"2 131 OFFCURVE",
"135 -15 OFFCURVE",
"347 -15 CURVE SMOOTH"
);
},
{
closed = 1;
nodes = (
"257 151 OFFCURVE",
"204 225 OFFCURVE",
"231 349 CURVE SMOOTH",
"257 471 OFFCURVE",
"358 547 OFFCURVE",
"467 547 CURVE SMOOTH",
"591 547 OFFCURVE",
"644 471 OFFCURVE",
"618 349 CURVE SMOOTH",
"591 225 OFFCURVE",
"489 151 OFFCURVE",
"383 151 CURVE SMOOTH"
);
},
{
closed = 1;
nodes = (
"564 742 LINE",
"569 767 LINE",
"628 781 OFFCURVE",
"669 821 OFFCURVE",
"679 869 CURVE SMOOTH",
"692 932 OFFCURVE",
"649 975 OFFCURVE",
"543 975 CURVE SMOOTH",
"503 975 OFFCURVE",
"451 968 OFFCURVE",
"420 959 CURVE",
"402 875 LINE",
"416 881 OFFCURVE",
"445 885 OFFCURVE",
"461 885 CURVE SMOOTH",
"503 885 OFFCURVE",
"518 873 OFFCURVE",
"513 852 CURVE",
"507 821 OFFCURVE",
"473 812 OFFCURVE",
"425 812 CURVE",
"410 742 LINE"
);
}
);
width = 800;
}
);
leftKerningGroup = O;
note = Ohookabove;
rightKerningGroup = O;
unicode = 1ECE;
},
{
glyphname = Ohorn;
lastChange = "2015-11-30 02:09:02 +0000";
layers = (
{
layerId = "E876E4BA-4024-4F05-97F6-A7AFE1BCFA82";
name = "Bold Italic";
paths = (
{
closed = 1;
nodes = (
"558 -15 OFFCURVE",
"752 131 OFFCURVE",
"799 349 CURVE SMOOTH",
"811 409 OFFCURVE",
"810 463 OFFCURVE",
"798 511 CURVE",
"900 531 OFFCURVE",
"969 607 OFFCURVE",
"990 702 CURVE SMOOTH",
"999 747 LINE",
"851 747 LINE",
"844 713 LINE SMOOTH",
"832 657 OFFCURVE",
"805 630 OFFCURVE",
"733 629 CURVE",
"679 683 OFFCURVE",
"599 714 OFFCURVE",
"502 714 CURVE SMOOTH",
"290 714 OFFCURVE",
"95 568 OFFCURVE",
"49 349 CURVE SMOOTH",
"2 131 OFFCURVE",
"135 -15 OFFCURVE",
"347 -15 CURVE SMOOTH"
);
},
{
closed = 1;
nodes = (
"257 151 OFFCURVE",
"204 225 OFFCURVE",
"231 349 CURVE SMOOTH",
"257 471 OFFCURVE",
"358 547 OFFCURVE",
"467 547 CURVE SMOOTH",
"591 547 OFFCURVE",
"644 471 OFFCURVE",
"618 349 CURVE SMOOTH",
"591 225 OFFCURVE",
"489 151 OFFCURVE",
"383 151 CURVE SMOOTH"
);
}
);
width = 896;
}
);
leftKerningGroup = O;
note = Ohorn;
rightKerningGroup = O;
unicode = 01A0;
},
{
glyphname = Ohornacute;
lastChange = "2015-11-30 02:09:02 +0000";
layers = (
{
layerId = "E876E4BA-4024-4F05-97F6-A7AFE1BCFA82";
name = "Bold Italic";
paths = (
{
closed = 1;
nodes = (
"558 -15 OFFCURVE",
"752 131 OFFCURVE",
"799 349 CURVE SMOOTH",
"811 409 OFFCURVE",
"810 463 OFFCURVE",
"798 511 CURVE",
"900 531 OFFCURVE",
"969 607 OFFCURVE",
"990 702 CURVE SMOOTH",
"999 747 LINE",
"851 747 LINE",
"844 713 LINE SMOOTH",
"832 657 OFFCURVE",
"805 630 OFFCURVE",
"733 629 CURVE",
"679 683 OFFCURVE",
"599 714 OFFCURVE",
"502 714 CURVE SMOOTH",
"290 714 OFFCURVE",
"95 568 OFFCURVE",
"49 349 CURVE SMOOTH",
"2 131 OFFCURVE",
"135 -15 OFFCURVE",
"347 -15 CURVE SMOOTH"
);
},
{
closed = 1;
nodes = (
"257 151 OFFCURVE",
"204 225 OFFCURVE",
"231 349 CURVE SMOOTH",
"257 471 OFFCURVE",
"358 547 OFFCURVE",
"467 547 CURVE SMOOTH",
"591 547 OFFCURVE",
"644 471 OFFCURVE",
"618 349 CURVE SMOOTH",
"591 225 OFFCURVE",
"489 151 OFFCURVE",
"383 151 CURVE SMOOTH"
);
},
{
closed = 1;
nodes = (
"582 742 LINE",
"711 920 LINE",
"526 920 LINE",
"419 742 LINE"
);
}
);
width = 896;
}
);
leftKerningGroup = O;
note = Ohornacute;
rightKerningGroup = O;
unicode = 1EDA;
},
{
glyphname = Ohorndotbelow;
lastChange = "2015-11-30 02:09:01 +0000";
layers = (
{
layerId = "E876E4BA-4024-4F05-97F6-A7AFE1BCFA82";
name = "Bold Italic";
paths = (
{
closed = 1;
nodes = (
"558 -15 OFFCURVE",
"752 131 OFFCURVE",
"799 349 CURVE SMOOTH",
"811 409 OFFCURVE",
"810 463 OFFCURVE",
"798 511 CURVE",
"900 531 OFFCURVE",
"969 607 OFFCURVE",
"990 702 CURVE SMOOTH",
"999 747 LINE",
"851 747 LINE",
"844 713 LINE SMOOTH",
"832 657 OFFCURVE",
"805 630 OFFCURVE",
"733 629 CURVE",
"679 683 OFFCURVE",
"599 714 OFFCURVE",
"502 714 CURVE SMOOTH",
"290 714 OFFCURVE",
"95 568 OFFCURVE",
"49 349 CURVE SMOOTH",
"2 131 OFFCURVE",
"135 -15 OFFCURVE",
"347 -15 CURVE SMOOTH"
);
},
{
closed = 1;
nodes = (
"363 -200 OFFCURVE",
"403 -166 OFFCURVE",
"412 -123 CURVE SMOOTH",
"421 -80 OFFCURVE",
"395 -46 OFFCURVE",
"354 -46 CURVE SMOOTH",
"312 -46 OFFCURVE",
"268 -80 OFFCURVE",
"259 -123 CURVE SMOOTH",
"250 -166 OFFCURVE",
"279 -200 OFFCURVE",
"321 -200 CURVE SMOOTH"
);
},
{
closed = 1;
nodes = (
"257 151 OFFCURVE",
"204 225 OFFCURVE",
"231 349 CURVE SMOOTH",
"257 471 OFFCURVE",
"358 547 OFFCURVE",
"467 547 CURVE SMOOTH",
"591 547 OFFCURVE",
"644 471 OFFCURVE",
"618 349 CURVE SMOOTH",
"591 225 OFFCURVE",
"489 151 OFFCURVE",
"383 151 CURVE SMOOTH"
);
}
);
width = 896;
}
);
leftKerningGroup = O;
note = Ohorndotbelow;
rightKerningGroup = O;
unicode = 1EE2;
},
{
glyphname = Ohorngrave;
lastChange = "2015-11-30 02:09:02 +0000";
layers = (
{
layerId = "E876E4BA-4024-4F05-97F6-A7AFE1BCFA82";
name = "Bold Italic";
paths = (
{
closed = 1;
nodes = (
"558 -15 OFFCURVE",
"752 131 OFFCURVE",
"799 349 CURVE SMOOTH",
"811 409 OFFCURVE",
"810 463 OFFCURVE",
"798 511 CURVE",
"900 531 OFFCURVE",
"969 607 OFFCURVE",
"990 702 CURVE SMOOTH",
"999 747 LINE",
"851 747 LINE",
"844 713 LINE SMOOTH",
"832 657 OFFCURVE",
"805 630 OFFCURVE",
"733 629 CURVE",
"679 683 OFFCURVE",
"599 714 OFFCURVE",
"502 714 CURVE SMOOTH",
"290 714 OFFCURVE",
"95 568 OFFCURVE",
"49 349 CURVE SMOOTH",
"2 131 OFFCURVE",
"135 -15 OFFCURVE",
"347 -15 CURVE SMOOTH"
);
},
{
closed = 1;
nodes = (
"257 151 OFFCURVE",
"204 225 OFFCURVE",
"231 349 CURVE SMOOTH",
"257 471 OFFCURVE",
"358 547 OFFCURVE",
"467 547 CURVE SMOOTH",
"591 547 OFFCURVE",
"644 471 OFFCURVE",
"618 349 CURVE SMOOTH",
"591 225 OFFCURVE",
"489 151 OFFCURVE",
"383 151 CURVE SMOOTH"
);
},
{
closed = 1;
nodes = (
"576 742 LINE",
"545 920 LINE",
"360 920 LINE",
"413 742 LINE"
);
}
);
width = 896;
}
);
leftKerningGroup = O;
note = Ohorngrave;
rightKerningGroup = O;
unicode = 1EDC;
},
{
glyphname = Ohornhookabove;
lastChange = "2015-11-30 02:09:01 +0000";
layers = (
{
layerId = "E876E4BA-4024-4F05-97F6-A7AFE1BCFA82";
name = "Bold Italic";
paths = (
{
closed = 1;
nodes = (
"558 -15 OFFCURVE",
"752 131 OFFCURVE",
"799 349 CURVE SMOOTH",
"811 409 OFFCURVE",
"810 463 OFFCURVE",
"798 511 CURVE",
"900 531 OFFCURVE",
"969 607 OFFCURVE",
"990 702 CURVE SMOOTH",
"999 747 LINE",
"851 747 LINE",
"844 713 LINE SMOOTH",
"832 657 OFFCURVE",
"805 630 OFFCURVE",
"733 629 CURVE",
"679 683 OFFCURVE",
"599 714 OFFCURVE",
"502 714 CURVE SMOOTH",
"290 714 OFFCURVE",
"95 568 OFFCURVE",
"49 349 CURVE SMOOTH",
"2 131 OFFCURVE",
"135 -15 OFFCURVE",
"347 -15 CURVE SMOOTH"
);
},
{
closed = 1;
nodes = (
"257 151 OFFCURVE",
"204 225 OFFCURVE",
"231 349 CURVE SMOOTH",
"257 471 OFFCURVE",
"358 547 OFFCURVE",
"467 547 CURVE SMOOTH",
"591 547 OFFCURVE",
"644 471 OFFCURVE",
"618 349 CURVE SMOOTH",
"591 225 OFFCURVE",
"489 151 OFFCURVE",
"383 151 CURVE SMOOTH"
);
},
{
closed = 1;
nodes = (
"574 742 LINE",
"579 767 LINE",
"638 781 OFFCURVE",
"679 821 OFFCURVE",
"689 869 CURVE SMOOTH",
"702 932 OFFCURVE",
"659 975 OFFCURVE",
"553 975 CURVE SMOOTH",
"513 975 OFFCURVE",
"461 968 OFFCURVE",
"430 959 CURVE",
"412 875 LINE",
"426 881 OFFCURVE",
"455 885 OFFCURVE",
"471 885 CURVE SMOOTH",
"513 885 OFFCURVE",
"528 873 OFFCURVE",
"523 852 CURVE",
"517 821 OFFCURVE",
"483 812 OFFCURVE",
"435 812 CURVE",
"420 742 LINE"
);
}
);
width = 896;
}
);
leftKerningGroup = O;
note = Ohornhookabove;
rightKerningGroup = O;
unicode = 1EDE;
},
{
glyphname = Ohorntilde;
lastChange = "2015-11-30 02:09:02 +0000";
layers = (
{
layerId = "E876E4BA-4024-4F05-97F6-A7AFE1BCFA82";
name = "Bold Italic";
paths = (
{
closed = 1;
nodes = (
"558 -15 OFFCURVE",
"752 131 OFFCURVE",
"799 349 CURVE SMOOTH",
"811 409 OFFCURVE",
"810 463 OFFCURVE",
"798 511 CURVE",
"900 531 OFFCURVE",
"969 607 OFFCURVE",
"990 702 CURVE SMOOTH",
"999 747 LINE",
"851 747 LINE",
"844 713 LINE SMOOTH",
"832 657 OFFCURVE",
"805 630 OFFCURVE",
"733 629 CURVE",
"679 683 OFFCURVE",
"599 714 OFFCURVE",
"502 714 CURVE SMOOTH",
"290 714 OFFCURVE",
"95 568 OFFCURVE",
"49 349 CURVE SMOOTH",
"2 131 OFFCURVE",
"135 -15 OFFCURVE",
"347 -15 CURVE SMOOTH"
);
},
{
closed = 1;
nodes = (
"257 151 OFFCURVE",
"204 225 OFFCURVE",
"231 349 CURVE SMOOTH",
"257 471 OFFCURVE",
"358 547 OFFCURVE",
"467 547 CURVE SMOOTH",
"591 547 OFFCURVE",
"644 471 OFFCURVE",
"618 349 CURVE SMOOTH",
"591 225 OFFCURVE",
"489 151 OFFCURVE",
"383 151 CURVE SMOOTH"
);
},
{
closed = 1;
nodes = (
"334 779 OFFCURVE",
"372 793 OFFCURVE",
"411 793 CURVE SMOOTH",
"475 793 OFFCURVE",
"525 743 OFFCURVE",
"598 743 CURVE SMOOTH",
"642 743 OFFCURVE",
"680 754 OFFCURVE",
"710 784 CURVE",
"737 912 LINE",
"700 876 OFFCURVE",
"663 862 OFFCURVE",
"623 862 CURVE SMOOTH",
"558 862 OFFCURVE",
"504 912 OFFCURVE",
"436 912 CURVE SMOOTH",
"393 912 OFFCURVE",
"354 900 OFFCURVE",
"323 870 CURVE",
"295 742 LINE"
);
}
);
width = 896;
}
);
leftKerningGroup = O;
note = Ohorntilde;
rightKerningGroup = O;
unicode = 1EE0;
},
{
glyphname = Ohungarumlaut;
lastChange = "2015-11-30 02:09:02 +0000";
layers = (
{
layerId = "E876E4BA-4024-4F05-97F6-A7AFE1BCFA82";
name = "Bold Italic";
paths = (
{
closed = 1;
nodes = (
"558 -15 OFFCURVE",
"752 131 OFFCURVE",
"799 349 CURVE SMOOTH",
"845 568 OFFCURVE",
"713 714 OFFCURVE",
"502 714 CURVE SMOOTH",
"290 714 OFFCURVE",
"95 568 OFFCURVE",
"49 349 CURVE SMOOTH",
"2 131 OFFCURVE",
"135 -15 OFFCURVE",
"347 -15 CURVE SMOOTH"
);
},
{
closed = 1;
nodes = (
"257 151 OFFCURVE",
"204 225 OFFCURVE",
"231 349 CURVE SMOOTH",
"257 471 OFFCURVE",
"358 547 OFFCURVE",
"467 547 CURVE SMOOTH",
"591 547 OFFCURVE",
"644 471 OFFCURVE",
"618 349 CURVE SMOOTH",
"591 225 OFFCURVE",
"489 151 OFFCURVE",
"383 151 CURVE SMOOTH"
);
},
{
closed = 1;
nodes = (
"425 742 LINE",
"553 919 LINE",
"384 919 LINE",
"278 742 LINE"
);
},
{
closed = 1;
nodes = (
"677 742 LINE",
"804 919 LINE",
"635 919 LINE",
"529 742 LINE"
);
}
);
width = 800;
}
);
leftKerningGroup = O;
note = Ohungarumlaut;
rightKerningGroup = O;
unicode = 0150;
},
{
glyphname = Omacron;
lastChange = "2015-11-30 02:09:01 +0000";
layers = (
{
layerId = "E876E4BA-4024-4F05-97F6-A7AFE1BCFA82";
name = "Bold Italic";
paths = (
{
closed = 1;
nodes = (
"558 -15 OFFCURVE",
"752 131 OFFCURVE",
"799 349 CURVE SMOOTH",
"845 568 OFFCURVE",
"713 714 OFFCURVE",
"502 714 CURVE SMOOTH",
"290 714 OFFCURVE",
"95 568 OFFCURVE",
"49 349 CURVE SMOOTH",
"2 131 OFFCURVE",
"135 -15 OFFCURVE",
"347 -15 CURVE SMOOTH"
);
},
{
closed = 1;
nodes = (
"257 151 OFFCURVE",
"204 225 OFFCURVE",
"231 349 CURVE SMOOTH",
"257 471 OFFCURVE",
"358 547 OFFCURVE",
"467 547 CURVE SMOOTH",
"591 547 OFFCURVE",
"644 471 OFFCURVE",
"618 349 CURVE SMOOTH",
"591 225 OFFCURVE",
"489 151 OFFCURVE",
"383 151 CURVE SMOOTH"
);
},
{
closed = 1;
nodes = (
"662 752 LINE",
"686 865 LINE",
"342 865 LINE",
"318 752 LINE"
);
}
);
width = 800;
}
);
leftKerningGroup = O;
note = Omacron;
rightKerningGroup = O;
unicode = 014C;
},
{
glyphname = Oslash;
lastChange = "2015-11-30 02:09:01 +0000";
layers = (
{
layerId = "E876E4BA-4024-4F05-97F6-A7AFE1BCFA82";
name = "Bold Italic";
paths = (
{
closed = 1;
nodes = (
"216 -86 LINE",
"264 -7 LINE",
"290 -12 OFFCURVE",
"318 -15 OFFCURVE",
"347 -15 CURVE SMOOTH",
"558 -15 OFFCURVE",
"752 131 OFFCURVE",
"799 349 CURVE SMOOTH",
"830 496 OFFCURVE",
"780 610 OFFCURVE",
"680 669 CURVE",
"751 784 LINE",
"629 784 LINE",
"581 706 LINE",
"556 711 OFFCURVE",
"530 714 OFFCURVE",
"502 714 CURVE SMOOTH",
"290 714 OFFCURVE",
"95 568 OFFCURVE",
"49 349 CURVE SMOOTH",
"17 203 OFFCURVE",
"66 90 OFFCURVE",
"165 30 CURVE",
"94 -86 LINE"
);
},
{
closed = 1;
nodes = (
"226 222 OFFCURVE",
"215 277 OFFCURVE",
"231 349 CURVE SMOOTH",
"257 471 OFFCURVE",
"358 547 OFFCURVE",
"467 547 CURVE SMOOTH",
"472 547 OFFCURVE",
"478 547 OFFCURVE",
"483 546 CURVE",
"263 189 LINE"
);
},
{
closed = 1;
nodes = (
"583 510 LINE",
"621 476 OFFCURVE",
"633 421 OFFCURVE",
"618 349 CURVE SMOOTH",
"591 225 OFFCURVE",
"489 151 OFFCURVE",
"383 151 CURVE SMOOTH",
"362 151 LINE"
);
}
);
width = 800;
}
);
leftKerningGroup = O;
note = Oslash;
rightKerningGroup = O;
unicode = 00D8;
},
{
glyphname = Oslashacute;
lastChange = "2015-11-30 02:09:01 +0000";
layers = (
{
layerId = "E876E4BA-4024-4F05-97F6-A7AFE1BCFA82";
name = "Bold Italic";
paths = (
{
closed = 1;
nodes = (
"221 -86 LINE",
"269 -8 LINE",
"293 -12 OFFCURVE",
"319 -15 OFFCURVE",
"347 -15 CURVE SMOOTH",
"558 -15 OFFCURVE",
"752 131 OFFCURVE",
"799 349 CURVE SMOOTH",
"829 494 OFFCURVE",
"781 607 OFFCURVE",
"684 667 CURVE",
"756 784 LINE",
"624 784 LINE",
"577 707 LINE",
"553 712 OFFCURVE",
"528 714 OFFCURVE",
"502 714 CURVE SMOOTH",
"290 714 OFFCURVE",
"95 568 OFFCURVE",
"49 349 CURVE SMOOTH",
"18 205 OFFCURVE",
"65 93 OFFCURVE",
"162 33 CURVE",
"89 -86 LINE"
);
},
{
closed = 1;
nodes = (
"235 235 OFFCURVE",
"223 285 OFFCURVE",
"237 349 CURVE SMOOTH",
"262 467 OFFCURVE",
"359 541 OFFCURVE",
"465 541 CURVE SMOOTH",
"474 541 LINE",
"266 202 LINE"
);
},
{
closed = 1;
nodes = (
"580 497 LINE",
"612 464 OFFCURVE",
"625 413 OFFCURVE",
"612 349 CURVE SMOOTH",
"586 229 OFFCURVE",
"487 157 OFFCURVE",
"384 157 CURVE SMOOTH",
"370 157 LINE"
);
},
{
closed = 1;
nodes = (
"559 742 LINE",
"687 919 LINE",
"502 919 LINE",
"396 742 LINE"
);
}
);
width = 800;
}
);
leftKerningGroup = O;
note = Oslashacute;
rightKerningGroup = O;
unicode = 01FE;
},
{
glyphname = Otilde;
lastChange = "2015-11-30 02:09:01 +0000";
layers = (
{
layerId = "E876E4BA-4024-4F05-97F6-A7AFE1BCFA82";
name = "Bold Italic";
paths = (
{
closed = 1;
nodes = (
"558 -15 OFFCURVE",
"752 131 OFFCURVE",
"799 349 CURVE SMOOTH",
"845 568 OFFCURVE",
"713 714 OFFCURVE",
"502 714 CURVE SMOOTH",
"290 714 OFFCURVE",
"95 568 OFFCURVE",
"49 349 CURVE SMOOTH",
"2 131 OFFCURVE",
"135 -15 OFFCURVE",
"347 -15 CURVE SMOOTH"
);
},
{
closed = 1;
nodes = (
"257 151 OFFCURVE",
"204 225 OFFCURVE",
"231 349 CURVE SMOOTH",
"257 471 OFFCURVE",
"358 547 OFFCURVE",
"467 547 CURVE SMOOTH",
"591 547 OFFCURVE",
"644 471 OFFCURVE",
"618 349 CURVE SMOOTH",
"591 225 OFFCURVE",
"489 151 OFFCURVE",
"383 151 CURVE SMOOTH"
);
},
{
closed = 1;
nodes = (
"323 779 OFFCURVE",
"361 793 OFFCURVE",
"400 793 CURVE SMOOTH",
"464 793 OFFCURVE",
"514 743 OFFCURVE",
"587 743 CURVE SMOOTH",
"631 743 OFFCURVE",
"669 754 OFFCURVE",
"699 784 CURVE",
"726 912 LINE",
"689 876 OFFCURVE",
"652 862 OFFCURVE",
"612 862 CURVE SMOOTH",
"547 862 OFFCURVE",
"493 912 OFFCURVE",
"425 912 CURVE SMOOTH",
"382 912 OFFCURVE",
"343 900 OFFCURVE",
"312 870 CURVE",
"284 742 LINE"
);
}
);
width = 800;
}
);
leftKerningGroup = O;
note = Otilde;
rightKerningGroup = O;
unicode = 00D5;
},
{
glyphname = OE;
lastChange = "2015-11-30 02:09:02 +0000";
layers = (
{
layerId = "E876E4BA-4024-4F05-97F6-A7AFE1BCFA82";
name = "Bold Italic";
paths = (
{
closed = 1;
nodes = (
"814 0 LINE",
"845 149 LINE",
"564 149 LINE",
"592 280 LINE",
"787 280 LINE",
"817 419 LINE",
"622 419 LINE",
"649 550 LINE",
"930 550 LINE",
"962 699 LINE",
"522 699 LINE SMOOTH",
"263 699 OFFCURVE",
"95 568 OFFCURVE",
"49 349 CURVE SMOOTH",
"2 131 OFFCURVE",
"157 0 OFFCURVE",
"374 0 CURVE SMOOTH"
);
},
{
closed = 1;
nodes = (
"244 149 OFFCURVE",
"204 224 OFFCURVE",
"231 349 CURVE SMOOTH",
"257 473 OFFCURVE",
"348 550 OFFCURVE",
"472 550 CURVE",
"387 149 LINE"
);
}
);
width = 889;
}
);
leftKerningGroup = O;
note = OE;
rightKerningGroup = E;
unicode = 0152;
},
{
glyphname = P;
lastChange = "2015-11-30 02:09:02 +0000";
layers = (
{
layerId = "E876E4BA-4024-4F05-97F6-A7AFE1BCFA82";
name = "Bold Italic";
paths = (
{
closed = 1;
nodes = (
"172 0 LINE",
"216 209 LINE",
"347 209 LINE SMOOTH",
"524 209 OFFCURVE",
"634 296 OFFCURVE",
"667 456 CURVE SMOOTH",
"699 610 OFFCURVE",
"597 699 OFFCURVE",
"451 699 CURVE SMOOTH",
"143 699 LINE",
"-5 0 LINE"
);
},
{
closed = 1;
nodes = (
"288 550 LINE",
"391 550 LINE SMOOTH",
"455 550 OFFCURVE",
"502 533 OFFCURVE",
"485 456 CURVE SMOOTH",
"469 379 OFFCURVE",
"427 358 OFFCURVE",
"351 358 CURVE SMOOTH",
"248 358 LINE"
);
}
);
width = 636;
}
);
note = P;
unicode = 0050;
},
{
glyphname = Thorn;
lastChange = "2015-11-30 02:09:02 +0000";
layers = (
{
layerId = "E876E4BA-4024-4F05-97F6-A7AFE1BCFA82";
name = "Bold Italic";
paths = (
{
closed = 1;
nodes = (
"172 0 LINE",
"196 116 LINE",
"331 116 LINE SMOOTH",
"514 116 OFFCURVE",
"611 192 OFFCURVE",
"645 352 CURVE SMOOTH",
"677 503 OFFCURVE",
"579 588 OFFCURVE",
"431 588 CURVE SMOOTH",
"296 588 LINE",
"320 699 LINE",
"143 699 LINE",
"-5 0 LINE"
);
},
{
closed = 1;
nodes = (
"265 439 LINE",
"368 439 LINE SMOOTH",
"432 439 OFFCURVE",
"479 425 OFFCURVE",
"463 352 CURVE SMOOTH",
"448 279 OFFCURVE",
"395 265 OFFCURVE",
"331 265 CURVE SMOOTH",
"228 265 LINE"
);
}
);
width = 636;
}
);
note = Thorn;
unicode = 00DE;
},
{
glyphname = Q;
lastChange = "2015-11-30 02:09:01 +0000";
layers = (
{
layerId = "E876E4BA-4024-4F05-97F6-A7AFE1BCFA82";
name = "Bold Italic";
paths = (
{
closed = 1;
nodes = (
"743 0 LINE",
"772 138 LINE",
"655 138 LINE",
"718 183 OFFCURVE",
"781 268 OFFCURVE",
"799 350 CURVE SMOOTH",
"845 569 OFFCURVE",
"713 714 OFFCURVE",
"502 714 CURVE SMOOTH",
"278 714 OFFCURVE",
"95 569 OFFCURVE",
"49 350 CURVE SMOOTH",
"3 134 OFFCURVE",
"133 0 OFFCURVE",
"373 0 CURVE SMOOTH"
);
},
{
closed = 1;
nodes = (
"257 151 OFFCURVE",
"204 225 OFFCURVE",
"231 349 CURVE SMOOTH",
"257 471 OFFCURVE",
"358 547 OFFCURVE",
"467 547 CURVE SMOOTH",
"593 547 OFFCURVE",
"644 471 OFFCURVE",
"618 349 CURVE SMOOTH",
"591 225 OFFCURVE",
"489 151 OFFCURVE",
"383 151 CURVE SMOOTH"
);
}
);
width = 803;
}
);
leftKerningGroup = O;
note = Q;
rightKerningGroup = O;
unicode = 0051;
},
{
glyphname = R;
lastChange = "2015-11-30 02:09:01 +0000";
layers = (
{
layerId = "E876E4BA-4024-4F05-97F6-A7AFE1BCFA82";
name = "Bold Italic";
paths = (
{
closed = 1;
nodes = (
"172 0 LINE",
"218 219 LINE",
"318 219 LINE",
"383 0 LINE",
"565 0 LINE",
"493 244 LINE",
"582 280 OFFCURVE",
"646 354 OFFCURVE",
"668 459 CURVE SMOOTH",
"698 605 OFFCURVE",
"610 699 OFFCURVE",
"457 699 CURVE SMOOTH",
"143 699 LINE",
"-5 0 LINE"
);
},
{
closed = 1;
nodes = (
"288 550 LINE",
"398 550 LINE SMOOTH",
"462 550 OFFCURVE",
"502 533 OFFCURVE",
"486 459 CURVE SMOOTH",
"471 389 OFFCURVE",
"421 368 OFFCURVE",
"356 368 CURVE SMOOTH",
"250 368 LINE"
);
}
);
width = 646;
}
);
note = R;
rightKerningGroup = R;
unicode = 0052;
},
{
glyphname = Racute;
lastChange = "2015-11-30 02:09:01 +0000";
layers = (
{
layerId = "E876E4BA-4024-4F05-97F6-A7AFE1BCFA82";
name = "Bold Italic";
paths = (
{
closed = 1;
nodes = (
"172 0 LINE",
"218 219 LINE",
"318 219 LINE",
"383 0 LINE",
"565 0 LINE",
"493 244 LINE",
"582 280 OFFCURVE",
"646 354 OFFCURVE",
"668 459 CURVE SMOOTH",
"698 605 OFFCURVE",
"610 699 OFFCURVE",
"457 699 CURVE SMOOTH",
"143 699 LINE",
"-5 0 LINE"
);
},
{
closed = 1;
nodes = (
"288 550 LINE",
"398 550 LINE SMOOTH",
"462 550 OFFCURVE",
"502 533 OFFCURVE",
"486 459 CURVE SMOOTH",
"471 389 OFFCURVE",
"421 368 OFFCURVE",
"356 368 CURVE SMOOTH",
"250 368 LINE"
);
},
{
closed = 1;
nodes = (
"450 742 LINE",
"579 920 LINE",
"394 920 LINE",
"287 742 LINE"
);
}
);
width = 646;
}
);
note = Racute;
rightKerningGroup = R;
unicode = 0154;
},
{
glyphname = Rcaron;
lastChange = "2015-11-30 02:09:02 +0000";
layers = (
{
layerId = "E876E4BA-4024-4F05-97F6-A7AFE1BCFA82";
name = "Bold Italic";
paths = (
{
closed = 1;
nodes = (
"172 0 LINE",
"218 219 LINE",
"318 219 LINE",
"383 0 LINE",
"565 0 LINE",
"493 244 LINE",
"582 280 OFFCURVE",
"646 354 OFFCURVE",
"668 459 CURVE SMOOTH",
"698 605 OFFCURVE",
"610 699 OFFCURVE",
"457 699 CURVE SMOOTH",
"143 699 LINE",
"-5 0 LINE"
);
},
{
closed = 1;
nodes = (
"288 550 LINE",
"398 550 LINE SMOOTH",
"462 550 OFFCURVE",
"502 533 OFFCURVE",
"486 459 CURVE SMOOTH",
"471 389 OFFCURVE",
"421 368 OFFCURVE",
"356 368 CURVE SMOOTH",
"250 368 LINE"
);
},
{
closed = 1;
nodes = (
"482 742 LINE",
"676 923 LINE",
"497 923 LINE",
"419 838 LINE",
"377 923 LINE",
"208 923 LINE",
"325 742 LINE"
);
}
);
width = 646;
}
);
note = Rcaron;
rightKerningGroup = R;
unicode = 0158;
},
{
glyphname = Rcommaaccent;
lastChange = "2015-11-30 02:09:02 +0000";
layers = (
{
layerId = "E876E4BA-4024-4F05-97F6-A7AFE1BCFA82";
name = "Bold Italic";
paths = (
{
closed = 1;
nodes = (
"172 0 LINE",
"218 219 LINE",
"318 219 LINE",
"383 0 LINE",
"565 0 LINE",
"493 244 LINE",
"582 280 OFFCURVE",
"646 354 OFFCURVE",
"668 459 CURVE SMOOTH",
"698 605 OFFCURVE",
"610 699 OFFCURVE",
"457 699 CURVE SMOOTH",
"143 699 LINE",
"-5 0 LINE"
);
},
{
closed = 1;
nodes = (
"202 -260 LINE",
"352 -49 LINE",
"170 -49 LINE",
"43 -260 LINE"
);
},
{
closed = 1;
nodes = (
"288 550 LINE",
"398 550 LINE SMOOTH",
"462 550 OFFCURVE",
"502 533 OFFCURVE",
"486 459 CURVE SMOOTH",
"471 389 OFFCURVE",
"421 368 OFFCURVE",
"356 368 CURVE SMOOTH",
"250 368 LINE"
);
}
);
width = 646;
}
);
note = Rcommaaccent;
rightKerningGroup = R;
unicode = 0156;
},
{
glyphname = Rdotbelow;
lastChange = "2015-11-30 02:09:01 +0000";
layers = (
{
layerId = "E876E4BA-4024-4F05-97F6-A7AFE1BCFA82";
name = "Bold Italic";
paths = (
{
closed = 1;
nodes = (
"172 0 LINE",
"218 219 LINE",
"318 219 LINE",
"383 0 LINE",
"565 0 LINE",
"493 244 LINE",
"582 280 OFFCURVE",
"646 354 OFFCURVE",
"668 459 CURVE SMOOTH",
"698 605 OFFCURVE",
"610 699 OFFCURVE",
"457 699 CURVE SMOOTH",
"143 699 LINE",
"-5 0 LINE"
);
},
{
closed = 1;
nodes = (
"274 -200 OFFCURVE",
"314 -166 OFFCURVE",
"323 -123 CURVE SMOOTH",
"332 -80 OFFCURVE",
"306 -46 OFFCURVE",
"265 -46 CURVE SMOOTH",
"223 -46 OFFCURVE",
"179 -80 OFFCURVE",
"170 -123 CURVE SMOOTH",
"161 -166 OFFCURVE",
"190 -200 OFFCURVE",
"232 -200 CURVE SMOOTH"
);
},
{
closed = 1;
nodes = (
"288 550 LINE",
"398 550 LINE SMOOTH",
"462 550 OFFCURVE",
"502 533 OFFCURVE",
"486 459 CURVE SMOOTH",
"471 389 OFFCURVE",
"421 368 OFFCURVE",
"356 368 CURVE SMOOTH",
"250 368 LINE"
);
}
);
width = 646;
}
);
note = Rdotbelow;
rightKerningGroup = R;
unicode = 1E5A;
},
{
glyphname = Rdotbelowmacron;
lastChange = "2015-11-30 02:09:02 +0000";
layers = (
{
layerId = "E876E4BA-4024-4F05-97F6-A7AFE1BCFA82";
name = "Bold Italic";
paths = (
{
closed = 1;
nodes = (
"172 0 LINE",
"218 219 LINE",
"318 219 LINE",
"383 0 LINE",
"565 0 LINE",
"493 244 LINE",
"582 280 OFFCURVE",
"646 354 OFFCURVE",
"668 459 CURVE SMOOTH",
"698 605 OFFCURVE",
"610 699 OFFCURVE",
"457 699 CURVE SMOOTH",
"143 699 LINE",
"-5 0 LINE"
);
},
{
closed = 1;
nodes = (
"257 -200 OFFCURVE",
"297 -166 OFFCURVE",
"306 -123 CURVE SMOOTH",
"315 -80 OFFCURVE",
"289 -46 OFFCURVE",
"248 -46 CURVE SMOOTH",
"206 -46 OFFCURVE",
"162 -80 OFFCURVE",
"153 -123 CURVE SMOOTH",
"144 -166 OFFCURVE",
"173 -200 OFFCURVE",
"215 -200 CURVE SMOOTH"
);
},
{
closed = 1;
nodes = (
"288 550 LINE",
"398 550 LINE SMOOTH",
"462 550 OFFCURVE",
"502 533 OFFCURVE",
"486 459 CURVE SMOOTH",
"471 389 OFFCURVE",
"421 368 OFFCURVE",
"356 368 CURVE SMOOTH",
"250 368 LINE"
);
},
{
closed = 1;
nodes = (
"568 752 LINE",
"592 865 LINE",
"248 865 LINE",
"224 752 LINE"
);
}
);
width = 646;
}
);
note = Rdotbelowmacron;
rightKerningGroup = R;
unicode = 1E5C;
},
{
glyphname = Rlinebelow;
lastChange = "2015-11-30 02:09:02 +0000";
layers = (
{
layerId = "E876E4BA-4024-4F05-97F6-A7AFE1BCFA82";
name = "Bold Italic";
paths = (
{
closed = 1;
nodes = (
"172 0 LINE",
"218 219 LINE",
"318 219 LINE",
"383 0 LINE",
"565 0 LINE",
"493 244 LINE",
"582 280 OFFCURVE",
"646 354 OFFCURVE",
"668 459 CURVE SMOOTH",
"698 605 OFFCURVE",
"610 699 OFFCURVE",
"457 699 CURVE SMOOTH",
"143 699 LINE",
"-5 0 LINE"
);
},
{
closed = 1;
nodes = (
"409 -172 LINE",
"433 -59 LINE",
"89 -59 LINE",
"65 -172 LINE"
);
},
{
closed = 1;
nodes = (
"288 550 LINE",
"398 550 LINE SMOOTH",
"462 550 OFFCURVE",
"502 533 OFFCURVE",
"486 459 CURVE SMOOTH",
"471 389 OFFCURVE",
"421 368 OFFCURVE",
"356 368 CURVE SMOOTH",
"250 368 LINE"
);
}
);
width = 646;
}
);
note = Rlinebelow;
rightKerningGroup = R;
unicode = 1E5E;
},
{
glyphname = S;
lastChange = "2015-11-30 02:09:02 +0000";
layers = (
{
layerId = "E876E4BA-4024-4F05-97F6-A7AFE1BCFA82";
name = "Bold Italic";
paths = (
{
closed = 1;
nodes = (
"415 -15 OFFCURVE",
"508 65 OFFCURVE",
"534 191 CURVE SMOOTH",
"556 299 OFFCURVE",
"518 351 OFFCURVE",
"394 407 CURVE SMOOTH",
"312 442 OFFCURVE",
"269 461 OFFCURVE",
"278 503 CURVE SMOOTH",
"287 542 OFFCURVE",
"334 563 OFFCURVE",
"396 563 CURVE SMOOTH",
"454 563 OFFCURVE",
"511 548 OFFCURVE",
"563 517 CURVE",
"596 672 LINE",
"542 701 OFFCURVE",
"481 714 OFFCURVE",
"395 714 CURVE SMOOTH",
"226 714 OFFCURVE",
"112 630 OFFCURVE",
"86 508 CURVE SMOOTH",
"65 409 OFFCURVE",
"109 348 OFFCURVE",
"226 294 CURVE SMOOTH",
"312 255 OFFCURVE",
"348 237 OFFCURVE",
"339 193 CURVE SMOOTH",
"331 156 OFFCURVE",
"293 135 OFFCURVE",
"227 135 CURVE SMOOTH",
"159 135 OFFCURVE",
"81 153 OFFCURVE",
"15 191 CURVE",
"-19 32 LINE",
"31 3 OFFCURVE",
"122 -15 OFFCURVE",
"209 -15 CURVE SMOOTH"
);
}
);
width = 569;
}
);
leftKerningGroup = S;
note = S;
rightKerningGroup = S;
unicode = 0053;
},
{
glyphname = Sacute;
lastChange = "2015-11-30 02:09:02 +0000";
layers = (
{
layerId = "E876E4BA-4024-4F05-97F6-A7AFE1BCFA82";
name = "Bold Italic";
paths = (
{
closed = 1;
nodes = (
"415 -15 OFFCURVE",
"508 65 OFFCURVE",
"534 191 CURVE SMOOTH",
"556 299 OFFCURVE",
"518 351 OFFCURVE",
"394 407 CURVE SMOOTH",
"312 442 OFFCURVE",
"269 461 OFFCURVE",
"278 503 CURVE SMOOTH",
"287 542 OFFCURVE",
"334 563 OFFCURVE",
"396 563 CURVE SMOOTH",
"454 563 OFFCURVE",
"511 548 OFFCURVE",
"563 517 CURVE",
"596 672 LINE",
"542 701 OFFCURVE",
"481 714 OFFCURVE",
"395 714 CURVE SMOOTH",
"226 714 OFFCURVE",
"112 630 OFFCURVE",
"86 508 CURVE SMOOTH",
"65 409 OFFCURVE",
"109 348 OFFCURVE",
"226 294 CURVE SMOOTH",
"312 255 OFFCURVE",
"348 237 OFFCURVE",
"339 193 CURVE SMOOTH",
"331 156 OFFCURVE",
"293 135 OFFCURVE",
"227 135 CURVE SMOOTH",
"159 135 OFFCURVE",
"81 153 OFFCURVE",
"15 191 CURVE",
"-19 32 LINE",
"31 3 OFFCURVE",
"122 -15 OFFCURVE",
"209 -15 CURVE SMOOTH"
);
},
{
closed = 1;
nodes = (
"455 742 LINE",
"584 920 LINE",
"399 920 LINE",
"292 742 LINE"
);
}
);
width = 569;
}
);
leftKerningGroup = S;
note = Sacute;
rightKerningGroup = S;
unicode = 015A;
},
{
glyphname = Scaron;
lastChange = "2015-11-30 02:09:02 +0000";
layers = (
{
layerId = "E876E4BA-4024-4F05-97F6-A7AFE1BCFA82";
name = "Bold Italic";
paths = (
{
closed = 1;
nodes = (
"415 -15 OFFCURVE",
"508 65 OFFCURVE",
"534 191 CURVE SMOOTH",
"556 299 OFFCURVE",
"518 351 OFFCURVE",
"394 407 CURVE SMOOTH",
"312 442 OFFCURVE",
"269 461 OFFCURVE",
"278 503 CURVE SMOOTH",
"287 542 OFFCURVE",
"334 563 OFFCURVE",
"396 563 CURVE SMOOTH",
"454 563 OFFCURVE",
"511 548 OFFCURVE",
"563 517 CURVE",
"596 672 LINE",
"542 701 OFFCURVE",
"481 714 OFFCURVE",
"395 714 CURVE SMOOTH",
"226 714 OFFCURVE",
"112 630 OFFCURVE",
"86 508 CURVE SMOOTH",
"65 409 OFFCURVE",
"109 348 OFFCURVE",
"226 294 CURVE SMOOTH",
"312 255 OFFCURVE",
"348 237 OFFCURVE",
"339 193 CURVE SMOOTH",
"331 156 OFFCURVE",
"293 135 OFFCURVE",
"227 135 CURVE SMOOTH",
"159 135 OFFCURVE",
"81 153 OFFCURVE",
"15 191 CURVE",
"-19 32 LINE",
"31 3 OFFCURVE",
"122 -15 OFFCURVE",
"209 -15 CURVE SMOOTH"
);
},
{
closed = 1;
nodes = (
"460 742 LINE",
"654 923 LINE",
"475 923 LINE",
"397 838 LINE",
"355 923 LINE",
"186 923 LINE",
"303 742 LINE"
);
}
);
width = 569;
}
);
leftKerningGroup = S;
note = Scaron;
rightKerningGroup = S;
unicode = 0160;
},
{
glyphname = Scedilla;
lastChange = "2015-11-30 02:09:02 +0000";
layers = (
{
layerId = "E876E4BA-4024-4F05-97F6-A7AFE1BCFA82";
name = "Bold Italic";
paths = (
{
closed = 1;
nodes = (
"415 -15 OFFCURVE",
"508 65 OFFCURVE",
"534 191 CURVE SMOOTH",
"556 299 OFFCURVE",
"518 351 OFFCURVE",
"394 407 CURVE SMOOTH",
"312 442 OFFCURVE",
"269 461 OFFCURVE",
"278 503 CURVE SMOOTH",
"287 542 OFFCURVE",
"334 563 OFFCURVE",
"396 563 CURVE SMOOTH",
"454 563 OFFCURVE",
"511 548 OFFCURVE",
"563 517 CURVE",
"596 672 LINE",
"542 701 OFFCURVE",
"481 714 OFFCURVE",
"395 714 CURVE SMOOTH",
"226 714 OFFCURVE",
"112 630 OFFCURVE",
"86 508 CURVE SMOOTH",
"65 409 OFFCURVE",
"109 348 OFFCURVE",
"226 294 CURVE SMOOTH",
"312 255 OFFCURVE",
"348 237 OFFCURVE",
"339 193 CURVE SMOOTH",
"331 156 OFFCURVE",
"293 135 OFFCURVE",
"227 135 CURVE SMOOTH",
"159 135 OFFCURVE",
"81 153 OFFCURVE",
"15 191 CURVE",
"-19 32 LINE",
"31 3 OFFCURVE",
"122 -15 OFFCURVE",
"209 -15 CURVE SMOOTH"
);
},
{
closed = 1;
nodes = (
"261 -248 OFFCURVE",
"334 -215 OFFCURVE",
"348 -141 CURVE SMOOTH",
"357 -92 OFFCURVE",
"329 -56 OFFCURVE",
"279 -46 CURVE",
"307 0 LINE",
"152 0 LINE",
"100 -89 LINE",
"175 -89 OFFCURVE",
"194 -105 OFFCURVE",
"189 -129 CURVE SMOOTH",
"185 -150 OFFCURVE",
"165 -163 OFFCURVE",
"132 -163 CURVE SMOOTH",
"109 -163 OFFCURVE",
"87 -157 OFFCURVE",
"74 -149 CURVE",
"56 -234 LINE",
"75 -242 OFFCURVE",
"120 -248 OFFCURVE",
"166 -248 CURVE SMOOTH"
);
}
);
width = 569;
}
);
leftKerningGroup = S;
note = Scedilla;
rightKerningGroup = S;
unicode = 015E;
},
{
glyphname = Scircumflex;
lastChange = "2015-11-30 02:09:02 +0000";
layers = (
{
layerId = "E876E4BA-4024-4F05-97F6-A7AFE1BCFA82";
name = "Bold Italic";
paths = (
{
closed = 1;
nodes = (
"415 -15 OFFCURVE",
"508 65 OFFCURVE",
"534 191 CURVE SMOOTH",
"556 299 OFFCURVE",
"518 351 OFFCURVE",
"394 407 CURVE SMOOTH",
"312 442 OFFCURVE",
"269 461 OFFCURVE",
"278 503 CURVE SMOOTH",
"287 542 OFFCURVE",
"334 563 OFFCURVE",
"396 563 CURVE SMOOTH",
"454 563 OFFCURVE",
"511 548 OFFCURVE",
"563 517 CURVE",
"596 672 LINE",
"542 701 OFFCURVE",
"481 714 OFFCURVE",
"395 714 CURVE SMOOTH",
"226 714 OFFCURVE",
"112 630 OFFCURVE",
"86 508 CURVE SMOOTH",
"65 409 OFFCURVE",
"109 348 OFFCURVE",
"226 294 CURVE SMOOTH",
"312 255 OFFCURVE",
"348 237 OFFCURVE",
"339 193 CURVE SMOOTH",
"331 156 OFFCURVE",
"293 135 OFFCURVE",
"227 135 CURVE SMOOTH",
"159 135 OFFCURVE",
"81 153 OFFCURVE",
"15 191 CURVE",
"-19 32 LINE",
"31 3 OFFCURVE",
"122 -15 OFFCURVE",
"209 -15 CURVE SMOOTH"
);
},
{
closed = 1;
nodes = (
"323 742 LINE",
"401 827 LINE",
"443 742 LINE",
"612 742 LINE",
"494 923 LINE",
"337 923 LINE",
"144 742 LINE"
);
}
);
width = 569;
}
);
leftKerningGroup = S;
note = Scircumflex;
rightKerningGroup = S;
unicode = 015C;
},
{
glyphname = Scommaaccent;
lastChange = "2015-11-30 02:09:02 +0000";
layers = (
{
layerId = "E876E4BA-4024-4F05-97F6-A7AFE1BCFA82";
name = "Bold Italic";
paths = (
{
closed = 1;
nodes = (
"415 -15 OFFCURVE",
"508 65 OFFCURVE",
"534 191 CURVE SMOOTH",
"556 299 OFFCURVE",
"518 351 OFFCURVE",
"394 407 CURVE SMOOTH",
"312 442 OFFCURVE",
"269 461 OFFCURVE",
"278 503 CURVE SMOOTH",
"287 542 OFFCURVE",
"334 563 OFFCURVE",
"396 563 CURVE SMOOTH",
"454 563 OFFCURVE",
"511 548 OFFCURVE",
"563 517 CURVE",
"596 672 LINE",
"542 701 OFFCURVE",
"481 714 OFFCURVE",
"395 714 CURVE SMOOTH",
"226 714 OFFCURVE",
"112 630 OFFCURVE",
"86 508 CURVE SMOOTH",
"65 409 OFFCURVE",
"109 348 OFFCURVE",
"226 294 CURVE SMOOTH",
"312 255 OFFCURVE",
"348 237 OFFCURVE",
"339 193 CURVE SMOOTH",
"331 156 OFFCURVE",
"293 135 OFFCURVE",
"227 135 CURVE SMOOTH",
"159 135 OFFCURVE",
"81 153 OFFCURVE",
"15 191 CURVE",
"-19 32 LINE",
"31 3 OFFCURVE",
"122 -15 OFFCURVE",
"209 -15 CURVE SMOOTH"
);
},
{
closed = 1;
nodes = (
"175 -259 LINE",
"323 -49 LINE",
"143 -49 LINE",
"15 -259 LINE"
);
}
);
width = 569;
}
);
leftKerningGroup = S;
note = Scommaaccent;
rightKerningGroup = S;
unicode = 0218;
},
{
glyphname = Sdotaccent;
lastChange = "2015-11-30 02:09:02 +0000";
layers = (
{
layerId = "E876E4BA-4024-4F05-97F6-A7AFE1BCFA82";
name = "Bold Italic";
paths = (
{
closed = 1;
nodes = (
"415 -15 OFFCURVE",
"508 65 OFFCURVE",
"534 191 CURVE SMOOTH",
"556 299 OFFCURVE",
"518 351 OFFCURVE",
"394 407 CURVE SMOOTH",
"312 442 OFFCURVE",
"269 461 OFFCURVE",
"278 503 CURVE SMOOTH",
"287 542 OFFCURVE",
"334 563 OFFCURVE",
"396 563 CURVE SMOOTH",
"454 563 OFFCURVE",
"511 548 OFFCURVE",
"563 517 CURVE",
"596 672 LINE",
"542 701 OFFCURVE",
"481 714 OFFCURVE",
"395 714 CURVE SMOOTH",
"226 714 OFFCURVE",
"112 630 OFFCURVE",
"86 508 CURVE SMOOTH",
"65 409 OFFCURVE",
"109 348 OFFCURVE",
"226 294 CURVE SMOOTH",
"312 255 OFFCURVE",
"348 237 OFFCURVE",
"339 193 CURVE SMOOTH",
"331 156 OFFCURVE",
"293 135 OFFCURVE",
"227 135 CURVE SMOOTH",
"159 135 OFFCURVE",
"81 153 OFFCURVE",
"15 191 CURVE",
"-19 32 LINE",
"31 3 OFFCURVE",
"122 -15 OFFCURVE",
"209 -15 CURVE SMOOTH"
);
},
{
closed = 1;
nodes = (
"431 752 OFFCURVE",
"472 785 OFFCURVE",
"481 828 CURVE SMOOTH",
"490 871 OFFCURVE",
"463 906 OFFCURVE",
"421 906 CURVE SMOOTH",
"379 906 OFFCURVE",
"336 871 OFFCURVE",
"327 828 CURVE SMOOTH",
"318 785 OFFCURVE",
"347 752 OFFCURVE",
"389 752 CURVE SMOOTH"
);
}
);
width = 569;
}
);
leftKerningGroup = S;
note = Sdotaccent;
rightKerningGroup = S;
unicode = 1E60;
},
{
glyphname = Sdotbelow;
lastChange = "2015-11-30 02:09:01 +0000";
layers = (
{
layerId = "E876E4BA-4024-4F05-97F6-A7AFE1BCFA82";
name = "Bold Italic";
paths = (
{
closed = 1;
nodes = (
"415 -15 OFFCURVE",
"508 65 OFFCURVE",
"534 191 CURVE SMOOTH",
"556 299 OFFCURVE",
"518 351 OFFCURVE",
"394 407 CURVE SMOOTH",
"312 442 OFFCURVE",
"269 461 OFFCURVE",
"278 503 CURVE SMOOTH",
"287 542 OFFCURVE",
"334 563 OFFCURVE",
"396 563 CURVE SMOOTH",
"454 563 OFFCURVE",
"511 548 OFFCURVE",
"563 517 CURVE",
"596 672 LINE",
"542 701 OFFCURVE",
"481 714 OFFCURVE",
"395 714 CURVE SMOOTH",
"226 714 OFFCURVE",
"112 630 OFFCURVE",
"86 508 CURVE SMOOTH",
"65 409 OFFCURVE",
"109 348 OFFCURVE",
"226 294 CURVE SMOOTH",
"312 255 OFFCURVE",
"348 237 OFFCURVE",
"339 193 CURVE SMOOTH",
"331 156 OFFCURVE",
"293 135 OFFCURVE",
"227 135 CURVE SMOOTH",
"159 135 OFFCURVE",
"81 153 OFFCURVE",
"15 191 CURVE",
"-19 32 LINE",
"31 3 OFFCURVE",
"122 -15 OFFCURVE",
"209 -15 CURVE SMOOTH"
);
},
{
closed = 1;
nodes = (
"236 -200 OFFCURVE",
"276 -166 OFFCURVE",
"285 -123 CURVE SMOOTH",
"294 -80 OFFCURVE",
"268 -46 OFFCURVE",
"227 -46 CURVE SMOOTH",
"185 -46 OFFCURVE",
"141 -80 OFFCURVE",
"132 -123 CURVE SMOOTH",
"123 -166 OFFCURVE",
"152 -200 OFFCURVE",
"194 -200 CURVE SMOOTH"
);
}
);
width = 569;
}
);
leftKerningGroup = S;
note = Sdotbelow;
rightKerningGroup = S;
unicode = 1E62;
},
{
glyphname = Germandbls;
lastChange = "2015-11-30 02:09:01 +0000";
layers = (
{
layerId = "E876E4BA-4024-4F05-97F6-A7AFE1BCFA82";
name = "Bold Italic";
paths = (
{
closed = 1;
nodes = (
"489 -15 OFFCURVE",
"591 66 OFFCURVE",
"618 196 CURVE SMOOTH",
"639 294 OFFCURVE",
"610 359 OFFCURVE",
"516 385 CURVE",
"638 493 LINE",
"646 600 OFFCURVE",
"578 714 OFFCURVE",
"411 714 CURVE SMOOTH",
"216 714 OFFCURVE",
"120 616 OFFCURVE",
"86 454 CURVE SMOOTH",
"-10 0 LINE",
"166 0 LINE",
"266 472 LINE SMOOTH",
"279 536 OFFCURVE",
"320 570 OFFCURVE",
"381 570 CURVE SMOOTH",
"441 570 OFFCURVE",
"450 541 OFFCURVE",
"449 504 CURVE",
"314 385 LINE",
"295 295 LINE",
"353 295 LINE SMOOTH",
"426 295 OFFCURVE",
"455 272 OFFCURVE",
"443 212 CURVE SMOOTH",
"431 156 OFFCURVE",
"399 129 OFFCURVE",
"323 129 CURVE SMOOTH",
"292 129 OFFCURVE",
"264 135 OFFCURVE",
"245 149 CURVE",
"214 3 LINE",
"242 -10 OFFCURVE",
"291 -15 OFFCURVE",
"336 -15 CURVE SMOOTH"
);
}
);
width = 652;
}
);
note = uni1E9E;
unicode = 1E9E;
},
{
glyphname = Schwa;
lastChange = "2015-11-30 02:09:02 +0000";
layers = (
{
layerId = "E876E4BA-4024-4F05-97F6-A7AFE1BCFA82";
name = "Bold Italic";
paths = (
{
closed = 1;
nodes = (
"631 -15 OFFCURVE",
"775 130 OFFCURVE",
"820 352 CURVE SMOOTH",
"865 575 OFFCURVE",
"717 714 OFFCURVE",
"473 714 CURVE SMOOTH",
"361 714 OFFCURVE",
"251 693 OFFCURVE",
"177 665 CURVE",
"146 520 LINE",
"220 547 OFFCURVE",
"322 563 OFFCURVE",
"409 563 CURVE SMOOTH",
"565 563 OFFCURVE",
"618 522 OFFCURVE",
"618 416 CURVE",
"63 416 LINE",
"47 339 LINE SMOOTH",
"4 140 OFFCURVE",
"118 -15 OFFCURVE",
"353 -15 CURVE SMOOTH"
);
},
{
closed = 1;
nodes = (
"250 134 OFFCURVE",
"221 197 OFFCURVE",
"231 282 CURVE",
"590 282 LINE",
"563 197 OFFCURVE",
"496 134 OFFCURVE",
"381 134 CURVE SMOOTH"
);
}
);
width = 821;
}
);
note = uni018F;
unicode = 018F;
},
{
glyphname = T;
lastChange = "2015-11-30 02:09:01 +0000";
layers = (
{
layerId = "E876E4BA-4024-4F05-97F6-A7AFE1BCFA82";
name = "Bold Italic";
paths = (
{
closed = 1;
nodes = (
"334 0 LINE",
"450 550 LINE",
"648 550 LINE",
"680 699 LINE",
"108 699 LINE",
"76 550 LINE",
"273 550 LINE",
"157 0 LINE"
);
}
);
width = 592;
}
);
leftKerningGroup = T;
note = T;
rightKerningGroup = T;
unicode = 0054;
},
{
glyphname = Tbar;
lastChange = "2015-11-30 02:09:01 +0000";
layers = (
{
layerId = "E876E4BA-4024-4F05-97F6-A7AFE1BCFA82";
name = "Bold Italic";
paths = (
{
closed = 1;
nodes = (
"338 0 LINE",
"391 253 LINE",
"499 253 LINE",
"531 401 LINE",
"423 401 LINE",
"453 543 LINE",
"647 543 LINE",
"680 699 LINE",
"108 699 LINE",
"75 543 LINE",
"268 543 LINE",
"238 401 LINE",
"133 401 LINE",
"101 253 LINE",
"206 253 LINE",
"153 0 LINE"
);
}
);
width = 592;
}
);
leftKerningGroup = T;
note = Tbar;
rightKerningGroup = T;
unicode = 0166;
},
{
glyphname = Tcaron;
lastChange = "2015-11-30 02:09:01 +0000";
layers = (
{
layerId = "E876E4BA-4024-4F05-97F6-A7AFE1BCFA82";
name = "Bold Italic";
paths = (
{
closed = 1;
nodes = (
"334 0 LINE",
"450 550 LINE",
"648 550 LINE",
"680 699 LINE",
"108 699 LINE",
"76 550 LINE",
"273 550 LINE",
"157 0 LINE"
);
},
{
closed = 1;
nodes = (
"462 742 LINE",
"656 923 LINE",
"477 923 LINE",
"399 838 LINE",
"357 923 LINE",
"188 923 LINE",
"305 742 LINE"
);
}
);
width = 592;
}
);
leftKerningGroup = T;
note = Tcaron;
rightKerningGroup = T;
unicode = 0164;
},
{
glyphname = Tcedilla;
lastChange = "2015-11-30 02:09:02 +0000";
layers = (
{
layerId = "E876E4BA-4024-4F05-97F6-A7AFE1BCFA82";
name = "Bold Italic";
paths = (
{
closed = 1;
nodes = (
"279 -248 OFFCURVE",
"352 -215 OFFCURVE",
"366 -141 CURVE SMOOTH",
"375 -92 OFFCURVE",
"347 -56 OFFCURVE",
"297 -46 CURVE",
"325 0 LINE",
"334 0 LINE",
"450 550 LINE",
"648 550 LINE",
"680 699 LINE",
"108 699 LINE",
"76 550 LINE",
"273 550 LINE",
"157 0 LINE",
"170 0 LINE",
"118 -89 LINE",
"193 -89 OFFCURVE",
"212 -105 OFFCURVE",
"207 -129 CURVE SMOOTH",
"203 -150 OFFCURVE",
"183 -163 OFFCURVE",
"150 -163 CURVE SMOOTH",
"127 -163 OFFCURVE",
"105 -157 OFFCURVE",
"92 -149 CURVE",
"74 -234 LINE",
"93 -242 OFFCURVE",
"138 -248 OFFCURVE",
"184 -248 CURVE SMOOTH"
);
}
);
width = 592;
}
);
leftKerningGroup = T;
note = Tcedilla;
rightKerningGroup = T;
unicode = 0162;
},
{
glyphname = Tcommaaccent;
lastChange = "2015-11-30 02:09:02 +0000";
layers = (
{
layerId = "E876E4BA-4024-4F05-97F6-A7AFE1BCFA82";
name = "Bold Italic";
paths = (
{
closed = 1;
nodes = (
"334 0 LINE",
"450 550 LINE",
"648 550 LINE",
"680 699 LINE",
"108 699 LINE",
"76 550 LINE",
"273 550 LINE",
"157 0 LINE"
);
},
{
closed = 1;
nodes = (
"172 -260 LINE",
"322 -49 LINE",
"140 -49 LINE",
"13 -260 LINE"
);
}
);
width = 592;
}
);
leftKerningGroup = T;
note = Tcommaaccent;
rightKerningGroup = T;
unicode = 021A;
},
{
glyphname = Tdotbelow;
lastChange = "2015-11-30 02:09:01 +0000";
layers = (
{
layerId = "E876E4BA-4024-4F05-97F6-A7AFE1BCFA82";
name = "Bold Italic";
paths = (
{
closed = 1;
nodes = (
"334 0 LINE",
"450 550 LINE",
"648 550 LINE",
"680 699 LINE",
"108 699 LINE",
"76 550 LINE",
"273 550 LINE",
"157 0 LINE"
);
},
{
closed = 1;
nodes = (
"247 -200 OFFCURVE",
"287 -166 OFFCURVE",
"296 -123 CURVE SMOOTH",
"305 -80 OFFCURVE",
"279 -46 OFFCURVE",
"238 -46 CURVE SMOOTH",
"196 -46 OFFCURVE",
"152 -80 OFFCURVE",
"143 -123 CURVE SMOOTH",
"134 -166 OFFCURVE",
"163 -200 OFFCURVE",
"205 -200 CURVE SMOOTH"
);
}
);
width = 592;
}
);
leftKerningGroup = T;
note = Tdotbelow;
rightKerningGroup = T;
unicode = 1E6C;
},
{
glyphname = Tlinebelow;
lastChange = "2015-11-30 02:09:02 +0000";
layers = (
{
layerId = "E876E4BA-4024-4F05-97F6-A7AFE1BCFA82";
name = "Bold Italic";
paths = (
{
closed = 1;
nodes = (
"334 0 LINE",
"450 550 LINE",
"648 550 LINE",
"680 699 LINE",
"108 699 LINE",
"76 550 LINE",
"273 550 LINE",
"157 0 LINE"
);
},
{
closed = 1;
nodes = (
"382 -172 LINE",
"406 -59 LINE",
"62 -59 LINE",
"38 -172 LINE"
);
}
);
width = 592;
}
);
leftKerningGroup = T;
note = Tlinebelow;
rightKerningGroup = T;
unicode = 1E6E;
},
{
glyphname = U;
lastChange = "2015-11-30 02:09:01 +0000";
layers = (
{
layerId = "E876E4BA-4024-4F05-97F6-A7AFE1BCFA82";
name = "Bold Italic";
paths = (
{
closed = 1;
nodes = (
"543 -15 OFFCURVE",
"649 116 OFFCURVE",
"687 293 CURVE SMOOTH",
"773 699 LINE",
"596 699 LINE",
"509 291 LINE SMOOTH",
"489 196 OFFCURVE",
"436 149 OFFCURVE",
"339 149 CURVE SMOOTH",
"228 149 OFFCURVE",
"208 196 OFFCURVE",
"228 291 CURVE SMOOTH",
"315 699 LINE",
"138 699 LINE",
"52 293 LINE SMOOTH",
"14 116 OFFCURVE",
"102 -15 OFFCURVE",
"304 -15 CURVE SMOOTH"
);
}
);
width = 715;
}
);
leftKerningGroup = U;
note = U;
rightKerningGroup = U;
unicode = 0055;
},
{
glyphname = Uacute;
lastChange = "2015-11-30 02:09:02 +0000";
layers = (
{
layerId = "E876E4BA-4024-4F05-97F6-A7AFE1BCFA82";
name = "Bold Italic";
paths = (
{
closed = 1;
nodes = (
"543 -15 OFFCURVE",
"649 116 OFFCURVE",
"687 293 CURVE SMOOTH",
"773 699 LINE",
"596 699 LINE",
"509 291 LINE SMOOTH",
"489 196 OFFCURVE",
"436 149 OFFCURVE",
"339 149 CURVE SMOOTH",
"228 149 OFFCURVE",
"208 196 OFFCURVE",
"228 291 CURVE SMOOTH",
"315 699 LINE",
"138 699 LINE",
"52 293 LINE SMOOTH",
"14 116 OFFCURVE",
"102 -15 OFFCURVE",
"304 -15 CURVE SMOOTH"
);
},
{
closed = 1;
nodes = (
"533 742 LINE",
"662 920 LINE",
"477 920 LINE",
"370 742 LINE"
);
}
);
width = 715;
}
);
leftKerningGroup = U;
note = Uacute;
rightKerningGroup = U;
unicode = 00DA;
},
{
glyphname = Ubreve;
lastChange = "2015-11-30 02:09:02 +0000";
layers = (
{
layerId = "E876E4BA-4024-4F05-97F6-A7AFE1BCFA82";
name = "Bold Italic";
paths = (
{
closed = 1;
nodes = (
"543 -15 OFFCURVE",
"649 116 OFFCURVE",
"687 293 CURVE SMOOTH",
"773 699 LINE",
"596 699 LINE",
"509 291 LINE SMOOTH",
"489 196 OFFCURVE",
"436 149 OFFCURVE",
"339 149 CURVE SMOOTH",
"228 149 OFFCURVE",
"208 196 OFFCURVE",
"228 291 CURVE SMOOTH",
"315 699 LINE",
"138 699 LINE",
"52 293 LINE SMOOTH",
"14 116 OFFCURVE",
"102 -15 OFFCURVE",
"304 -15 CURVE SMOOTH"
);
},
{
closed = 1;
nodes = (
"561 742 OFFCURVE",
"641 810 OFFCURVE",
"664 915 CURVE",
"528 915 LINE",
"519 874 OFFCURVE",
"495 853 OFFCURVE",
"462 853 CURVE SMOOTH",
"428 853 OFFCURVE",
"415 874 OFFCURVE",
"424 915 CURVE",
"299 915 LINE",
"276 810 OFFCURVE",
"327 742 OFFCURVE",
"444 742 CURVE SMOOTH"
);
}
);
width = 715;
}
);
leftKerningGroup = U;
note = Ubreve;
rightKerningGroup = U;
unicode = 016C;
},
{
glyphname = Ucaron;
lastChange = "2015-11-30 02:09:01 +0000";
layers = (
{
layerId = "E876E4BA-4024-4F05-97F6-A7AFE1BCFA82";
name = "Bold Italic";
paths = (
{
closed = 1;
nodes = (
"543 -15 OFFCURVE",
"649 116 OFFCURVE",
"687 293 CURVE SMOOTH",
"773 699 LINE",
"596 699 LINE",
"509 291 LINE SMOOTH",
"489 196 OFFCURVE",
"436 149 OFFCURVE",
"339 149 CURVE SMOOTH",
"228 149 OFFCURVE",
"208 196 OFFCURVE",
"228 291 CURVE SMOOTH",
"315 699 LINE",
"138 699 LINE",
"52 293 LINE SMOOTH",
"14 116 OFFCURVE",
"102 -15 OFFCURVE",
"304 -15 CURVE SMOOTH"
);
},
{
closed = 1;
nodes = (
"523 742 LINE",
"717 923 LINE",
"538 923 LINE",
"460 838 LINE",
"418 923 LINE",
"249 923 LINE",
"366 742 LINE"
);
}
);
width = 715;
}
);
leftKerningGroup = U;
note = Ucaron;
rightKerningGroup = U;
unicode = 01D3;
},
{
glyphname = Ucircumflex;
lastChange = "2015-11-30 02:09:02 +0000";
layers = (
{
layerId = "E876E4BA-4024-4F05-97F6-A7AFE1BCFA82";
name = "Bold Italic";
paths = (
{
closed = 1;
nodes = (
"543 -15 OFFCURVE",
"649 116 OFFCURVE",
"687 293 CURVE SMOOTH",
"773 699 LINE",
"596 699 LINE",
"509 291 LINE SMOOTH",
"489 196 OFFCURVE",
"436 149 OFFCURVE",
"339 149 CURVE SMOOTH",
"228 149 OFFCURVE",
"208 196 OFFCURVE",
"228 291 CURVE SMOOTH",
"315 699 LINE",
"138 699 LINE",
"52 293 LINE SMOOTH",
"14 116 OFFCURVE",
"102 -15 OFFCURVE",
"304 -15 CURVE SMOOTH"
);
},
{
closed = 1;
nodes = (
"390 742 LINE",
"468 827 LINE",
"510 742 LINE",
"679 742 LINE",
"561 923 LINE",
"404 923 LINE",
"211 742 LINE"
);
}
);
width = 715;
}
);
leftKerningGroup = U;
note = Ucircumflex;
rightKerningGroup = U;
unicode = 00DB;
},
{
glyphname = Udieresis;
lastChange = "2015-11-30 02:09:02 +0000";
layers = (
{
layerId = "E876E4BA-4024-4F05-97F6-A7AFE1BCFA82";
name = "Bold Italic";
paths = (
{
closed = 1;
nodes = (
"543 -15 OFFCURVE",
"649 116 OFFCURVE",
"687 293 CURVE SMOOTH",
"773 699 LINE",
"596 699 LINE",
"509 291 LINE SMOOTH",
"489 196 OFFCURVE",
"436 149 OFFCURVE",
"339 149 CURVE SMOOTH",
"228 149 OFFCURVE",
"208 196 OFFCURVE",
"228 291 CURVE SMOOTH",
"315 699 LINE",
"138 699 LINE",
"52 293 LINE SMOOTH",
"14 116 OFFCURVE",
"102 -15 OFFCURVE",
"304 -15 CURVE SMOOTH"
);
},
{
closed = 1;
nodes = (
"370 747 OFFCURVE",
"411 780 OFFCURVE",
"420 823 CURVE SMOOTH",
"429 866 OFFCURVE",
"402 901 OFFCURVE",
"360 901 CURVE SMOOTH",
"319 901 OFFCURVE",
"276 866 OFFCURVE",
"267 823 CURVE SMOOTH",
"258 780 OFFCURVE",
"287 747 OFFCURVE",
"328 747 CURVE SMOOTH"
);
},
{
closed = 1;
nodes = (
"605 747 OFFCURVE",
"647 780 OFFCURVE",
"656 823 CURVE SMOOTH",
"665 866 OFFCURVE",
"637 901 OFFCURVE",
"596 901 CURVE SMOOTH",
"554 901 OFFCURVE",
"511 866 OFFCURVE",
"502 823 CURVE SMOOTH",
"493 780 OFFCURVE",
"522 747 OFFCURVE",
"564 747 CURVE SMOOTH"
);
}
);
width = 715;
}
);
leftKerningGroup = U;
note = Udieresis;
rightKerningGroup = U;
unicode = 00DC;
},
{
glyphname = Udieresisacute;
lastChange = "2015-11-30 02:09:02 +0000";
layers = (
{
layerId = "E876E4BA-4024-4F05-97F6-A7AFE1BCFA82";
name = "Bold Italic";
paths = (
{
closed = 1;
nodes = (
"543 -15 OFFCURVE",
"649 116 OFFCURVE",
"687 293 CURVE SMOOTH",
"773 699 LINE",
"596 699 LINE",
"509 291 LINE SMOOTH",
"489 196 OFFCURVE",
"436 149 OFFCURVE",
"339 149 CURVE SMOOTH",
"228 149 OFFCURVE",
"208 196 OFFCURVE",
"228 291 CURVE SMOOTH",
"315 699 LINE",
"138 699 LINE",
"52 293 LINE SMOOTH",
"14 116 OFFCURVE",
"102 -15 OFFCURVE",
"304 -15 CURVE SMOOTH"
);
},
{
closed = 1;
nodes = (
"395 752 OFFCURVE",
"436 785 OFFCURVE",
"445 828 CURVE SMOOTH",
"454 871 OFFCURVE",
"427 906 OFFCURVE",
"385 906 CURVE SMOOTH",
"343 906 OFFCURVE",
"300 871 OFFCURVE",
"291 828 CURVE SMOOTH",
"282 785 OFFCURVE",
"311 752 OFFCURVE",
"353 752 CURVE SMOOTH"
);
},
{
closed = 1;
nodes = (
"629 752 OFFCURVE",
"671 785 OFFCURVE",
"680 828 CURVE SMOOTH",
"689 871 OFFCURVE",
"661 906 OFFCURVE",
"620 906 CURVE SMOOTH",
"578 906 OFFCURVE",
"535 871 OFFCURVE",
"526 828 CURVE SMOOTH",
"517 785 OFFCURVE",
"546 752 OFFCURVE",
"588 752 CURVE SMOOTH"
);
},
{
closed = 1;
nodes = (
"569 920 LINE",
"666 1047 LINE",
"522 1047 LINE",
"446 920 LINE"
);
}
);
width = 715;
}
);
leftKerningGroup = U;
note = Udieresisacute;
rightKerningGroup = U;
unicode = 01D7;
},
{
glyphname = Udieresiscaron;
lastChange = "2015-11-30 02:09:01 +0000";
layers = (
{
layerId = "E876E4BA-4024-4F05-97F6-A7AFE1BCFA82";
name = "Bold Italic";
paths = (
{
closed = 1;
nodes = (
"543 -15 OFFCURVE",
"649 116 OFFCURVE",
"687 293 CURVE SMOOTH",
"773 699 LINE",
"596 699 LINE",
"509 291 LINE SMOOTH",
"489 196 OFFCURVE",
"436 149 OFFCURVE",
"339 149 CURVE SMOOTH",
"228 149 OFFCURVE",
"208 196 OFFCURVE",
"228 291 CURVE SMOOTH",
"315 699 LINE",
"138 699 LINE",
"52 293 LINE SMOOTH",
"14 116 OFFCURVE",
"102 -15 OFFCURVE",
"304 -15 CURVE SMOOTH"
);
},
{
closed = 1;
nodes = (
"390 752 OFFCURVE",
"433 785 OFFCURVE",
"442 828 CURVE SMOOTH",
"451 871 OFFCURVE",
"422 906 OFFCURVE",
"380 906 CURVE SMOOTH",
"339 906 OFFCURVE",
"297 871 OFFCURVE",
"288 828 CURVE SMOOTH",
"279 785 OFFCURVE",
"307 752 OFFCURVE",
"348 752 CURVE SMOOTH"
);
},
{
closed = 1;
nodes = (
"625 752 OFFCURVE",
"668 785 OFFCURVE",
"677 828 CURVE SMOOTH",
"686 871 OFFCURVE",
"657 906 OFFCURVE",
"615 906 CURVE SMOOTH",
"573 906 OFFCURVE",
"532 871 OFFCURVE",
"523 828 CURVE SMOOTH",
"514 785 OFFCURVE",
"541 752 OFFCURVE",
"583 752 CURVE SMOOTH"
);
},
{
closed = 1;
nodes = (
"548 899 LINE",
"700 1028 LINE",
"572 1028 LINE",
"513 973 LINE",
"477 1028 LINE",
"349 1028 LINE",
"447 899 LINE"
);
}
);
width = 715;
}
);
leftKerningGroup = U;
note = Udieresiscaron;
rightKerningGroup = U;
unicode = 01D9;
},
{
glyphname = Udieresisgrave;
lastChange = "2015-11-30 02:09:01 +0000";
layers = (
{
layerId = "E876E4BA-4024-4F05-97F6-A7AFE1BCFA82";
name = "Bold Italic";
paths = (
{
closed = 1;
nodes = (
"543 -15 OFFCURVE",
"649 116 OFFCURVE",
"687 293 CURVE SMOOTH",
"773 699 LINE",
"596 699 LINE",
"509 291 LINE SMOOTH",
"489 196 OFFCURVE",
"436 149 OFFCURVE",
"339 149 CURVE SMOOTH",
"228 149 OFFCURVE",
"208 196 OFFCURVE",
"228 291 CURVE SMOOTH",
"315 699 LINE",
"138 699 LINE",
"52 293 LINE SMOOTH",
"14 116 OFFCURVE",
"102 -15 OFFCURVE",
"304 -15 CURVE SMOOTH"
);
},
{
closed = 1;
nodes = (
"394 752 OFFCURVE",
"437 785 OFFCURVE",
"446 828 CURVE SMOOTH",
"455 871 OFFCURVE",
"426 906 OFFCURVE",
"384 906 CURVE SMOOTH",
"343 906 OFFCURVE",
"301 871 OFFCURVE",
"292 828 CURVE SMOOTH",
"283 785 OFFCURVE",
"311 752 OFFCURVE",
"352 752 CURVE SMOOTH"
);
},
{
closed = 1;
nodes = (
"629 752 OFFCURVE",
"672 785 OFFCURVE",
"681 828 CURVE SMOOTH",
"690 871 OFFCURVE",
"661 906 OFFCURVE",
"619 906 CURVE SMOOTH",
"577 906 OFFCURVE",
"536 871 OFFCURVE",
"527 828 CURVE SMOOTH",
"518 785 OFFCURVE",
"545 752 OFFCURVE",
"587 752 CURVE SMOOTH"
);
},
{
closed = 1;
nodes = (
"564 920 LINE",
"541 1047 LINE",
"398 1047 LINE",
"441 920 LINE"
);
}
);
width = 715;
}
);
leftKerningGroup = U;
note = Udieresisgrave;
rightKerningGroup = U;
unicode = 01DB;
},
{
glyphname = Udieresismacron;
lastChange = "2015-11-30 02:09:02 +0000";
layers = (
{
layerId = "E876E4BA-4024-4F05-97F6-A7AFE1BCFA82";
name = "Bold Italic";
paths = (
{
closed = 1;
nodes = (
"543 -15 OFFCURVE",
"649 116 OFFCURVE",
"687 293 CURVE SMOOTH",
"773 699 LINE",
"596 699 LINE",
"509 291 LINE SMOOTH",
"489 196 OFFCURVE",
"436 149 OFFCURVE",
"339 149 CURVE SMOOTH",
"228 149 OFFCURVE",
"208 196 OFFCURVE",
"228 291 CURVE SMOOTH",
"315 699 LINE",
"138 699 LINE",
"52 293 LINE SMOOTH",
"14 116 OFFCURVE",
"102 -15 OFFCURVE",
"304 -15 CURVE SMOOTH"
);
},
{
closed = 1;
nodes = (
"371 752 OFFCURVE",
"412 785 OFFCURVE",
"421 828 CURVE SMOOTH",
"430 871 OFFCURVE",
"403 906 OFFCURVE",
"361 906 CURVE SMOOTH",
"320 906 OFFCURVE",
"277 871 OFFCURVE",
"268 828 CURVE SMOOTH",
"259 785 OFFCURVE",
"288 752 OFFCURVE",
"329 752 CURVE SMOOTH"
);
},
{
closed = 1;
nodes = (
"606 752 OFFCURVE",
"648 785 OFFCURVE",
"657 828 CURVE SMOOTH",
"666 871 OFFCURVE",
"638 906 OFFCURVE",
"597 906 CURVE SMOOTH",
"555 906 OFFCURVE",
"512 871 OFFCURVE",
"503 828 CURVE SMOOTH",
"494 785 OFFCURVE",
"523 752 OFFCURVE",
"565 752 CURVE SMOOTH"
);
},
{
closed = 1;
nodes = (
"659 939 LINE",
"683 1052 LINE",
"339 1052 LINE",
"315 939 LINE"
);
}
);
width = 715;
}
);
leftKerningGroup = U;
note = Udieresismacron;
rightKerningGroup = U;
unicode = 01D5;
},
{
glyphname = Udotbelow;
lastChange = "2015-11-30 02:09:01 +0000";
layers = (
{
layerId = "E876E4BA-4024-4F05-97F6-A7AFE1BCFA82";
name = "Bold Italic";
paths = (
{
closed = 1;
nodes = (
"543 -15 OFFCURVE",
"649 116 OFFCURVE",
"687 293 CURVE SMOOTH",
"773 699 LINE",
"596 699 LINE",
"509 291 LINE SMOOTH",
"489 196 OFFCURVE",
"436 149 OFFCURVE",
"339 149 CURVE SMOOTH",
"228 149 OFFCURVE",
"208 196 OFFCURVE",
"228 291 CURVE SMOOTH",
"315 699 LINE",
"138 699 LINE",
"52 293 LINE SMOOTH",
"14 116 OFFCURVE",
"102 -15 OFFCURVE",
"304 -15 CURVE SMOOTH"
);
},
{
closed = 1;
nodes = (
"308 -200 OFFCURVE",
"348 -166 OFFCURVE",
"357 -123 CURVE SMOOTH",
"366 -80 OFFCURVE",
"340 -46 OFFCURVE",
"299 -46 CURVE SMOOTH",
"257 -46 OFFCURVE",
"213 -80 OFFCURVE",
"204 -123 CURVE SMOOTH",
"195 -166 OFFCURVE",
"224 -200 OFFCURVE",
"266 -200 CURVE SMOOTH"
);
}
);
width = 715;
}
);
leftKerningGroup = U;
note = Udotbelow;
rightKerningGroup = U;
unicode = 1EE4;
},
{
glyphname = Ugrave;
lastChange = "2015-11-30 02:09:01 +0000";
layers = (
{
layerId = "E876E4BA-4024-4F05-97F6-A7AFE1BCFA82";
name = "Bold Italic";
paths = (
{
closed = 1;
nodes = (
"543 -15 OFFCURVE",
"649 116 OFFCURVE",
"687 293 CURVE SMOOTH",
"773 699 LINE",
"596 699 LINE",
"509 291 LINE SMOOTH",
"489 196 OFFCURVE",
"436 149 OFFCURVE",
"339 149 CURVE SMOOTH",
"228 149 OFFCURVE",
"208 196 OFFCURVE",
"228 291 CURVE SMOOTH",
"315 699 LINE",
"138 699 LINE",
"52 293 LINE SMOOTH",
"14 116 OFFCURVE",
"102 -15 OFFCURVE",
"304 -15 CURVE SMOOTH"
);
},
{
closed = 1;
nodes = (
"547 742 LINE",
"516 920 LINE",
"331 920 LINE",
"384 742 LINE"
);
}
);
width = 715;
}
);
leftKerningGroup = U;
note = Ugrave;
rightKerningGroup = U;
unicode = 00D9;
},
{
glyphname = Uhookabove;
lastChange = "2015-11-30 02:09:01 +0000";
layers = (
{
layerId = "E876E4BA-4024-4F05-97F6-A7AFE1BCFA82";
name = "Bold Italic";
paths = (
{
closed = 1;
nodes = (
"543 -15 OFFCURVE",
"649 116 OFFCURVE",
"687 293 CURVE SMOOTH",
"773 699 LINE",
"596 699 LINE",
"509 291 LINE SMOOTH",
"489 196 OFFCURVE",
"436 149 OFFCURVE",
"339 149 CURVE SMOOTH",
"228 149 OFFCURVE",
"208 196 OFFCURVE",
"228 291 CURVE SMOOTH",
"315 699 LINE",
"138 699 LINE",
"52 293 LINE SMOOTH",
"14 116 OFFCURVE",
"102 -15 OFFCURVE",
"304 -15 CURVE SMOOTH"
);
},
{
closed = 1;
nodes = (
"526 742 LINE",
"531 767 LINE",
"590 781 OFFCURVE",
"631 821 OFFCURVE",
"641 869 CURVE SMOOTH",
"654 932 OFFCURVE",
"611 975 OFFCURVE",
"505 975 CURVE SMOOTH",
"465 975 OFFCURVE",
"413 968 OFFCURVE",
"382 959 CURVE",
"364 875 LINE",
"378 881 OFFCURVE",
"407 885 OFFCURVE",
"423 885 CURVE SMOOTH",
"465 885 OFFCURVE",
"480 873 OFFCURVE",
"475 852 CURVE",
"469 821 OFFCURVE",
"435 812 OFFCURVE",
"387 812 CURVE",
"372 742 LINE"
);
}
);
width = 715;
}
);
leftKerningGroup = U;
note = Uhookabove;
rightKerningGroup = U;
unicode = 1EE6;
},
{
glyphname = Uhorn;
lastChange = "2015-11-30 02:09:01 +0000";
layers = (
{
layerId = "E876E4BA-4024-4F05-97F6-A7AFE1BCFA82";
name = "Bold Italic";
paths = (
{
closed = 1;
nodes = (
"543 -15 OFFCURVE",
"649 116 OFFCURVE",
"687 293 CURVE SMOOTH",
"732 506 LINE",
"895 506 OFFCURVE",
"977 591 OFFCURVE",
"1001 702 CURVE SMOOTH",
"1010 747 LINE",
"862 747 LINE",
"855 713 LINE SMOOTH",
"843 656 OFFCURVE",
"823 632 OFFCURVE",
"759 632 CURVE",
"773 699 LINE",
"596 699 LINE",
"509 291 LINE SMOOTH",
"489 196 OFFCURVE",
"436 149 OFFCURVE",
"339 149 CURVE SMOOTH",
"228 149 OFFCURVE",
"208 196 OFFCURVE",
"228 291 CURVE SMOOTH",
"315 699 LINE",
"138 699 LINE",
"52 293 LINE SMOOTH",
"14 116 OFFCURVE",
"102 -15 OFFCURVE",
"304 -15 CURVE SMOOTH"
);
}
);
width = 907;
}
);
leftKerningGroup = U;
note = Uhorn;
rightKerningGroup = U;
unicode = 01AF;
},
{
glyphname = Uhornacute;
lastChange = "2015-11-30 02:09:01 +0000";
layers = (
{
layerId = "E876E4BA-4024-4F05-97F6-A7AFE1BCFA82";
name = "Bold Italic";
paths = (
{
closed = 1;
nodes = (
"543 -15 OFFCURVE",
"649 116 OFFCURVE",
"687 293 CURVE SMOOTH",
"732 506 LINE",
"895 506 OFFCURVE",
"977 591 OFFCURVE",
"1001 702 CURVE SMOOTH",
"1010 747 LINE",
"862 747 LINE",
"855 713 LINE SMOOTH",
"843 656 OFFCURVE",
"823 632 OFFCURVE",
"759 632 CURVE",
"773 699 LINE",
"596 699 LINE",
"509 291 LINE SMOOTH",
"489 196 OFFCURVE",
"436 149 OFFCURVE",
"339 149 CURVE SMOOTH",
"228 149 OFFCURVE",
"208 196 OFFCURVE",
"228 291 CURVE SMOOTH",
"315 699 LINE",
"138 699 LINE",
"52 293 LINE SMOOTH",
"14 116 OFFCURVE",
"102 -15 OFFCURVE",
"304 -15 CURVE SMOOTH"
);
},
{
closed = 1;
nodes = (
"530 742 LINE",
"659 920 LINE",
"474 920 LINE",
"367 742 LINE"
);
}
);
width = 907;
}
);
leftKerningGroup = U;
note = Uhornacute;
rightKerningGroup = U;
unicode = 1EE8;
},
{
glyphname = Uhorndotbelow;
lastChange = "2015-11-30 02:09:02 +0000";
layers = (
{
layerId = "E876E4BA-4024-4F05-97F6-A7AFE1BCFA82";
name = "Bold Italic";
paths = (
{
closed = 1;
nodes = (
"543 -15 OFFCURVE",
"649 116 OFFCURVE",
"687 293 CURVE SMOOTH",
"732 506 LINE",
"895 506 OFFCURVE",
"977 591 OFFCURVE",
"1001 702 CURVE SMOOTH",
"1010 747 LINE",
"862 747 LINE",
"855 713 LINE SMOOTH",
"843 656 OFFCURVE",
"823 632 OFFCURVE",
"759 632 CURVE",
"773 699 LINE",
"596 699 LINE",
"509 291 LINE SMOOTH",
"489 196 OFFCURVE",
"436 149 OFFCURVE",
"339 149 CURVE SMOOTH",
"228 149 OFFCURVE",
"208 196 OFFCURVE",
"228 291 CURVE SMOOTH",
"315 699 LINE",
"138 699 LINE",
"52 293 LINE SMOOTH",
"14 116 OFFCURVE",
"102 -15 OFFCURVE",
"304 -15 CURVE SMOOTH"
);
},
{
closed = 1;
nodes = (
"320 -200 OFFCURVE",
"360 -166 OFFCURVE",
"369 -123 CURVE SMOOTH",
"378 -80 OFFCURVE",
"352 -46 OFFCURVE",
"311 -46 CURVE SMOOTH",
"269 -46 OFFCURVE",
"225 -80 OFFCURVE",
"216 -123 CURVE SMOOTH",
"207 -166 OFFCURVE",
"236 -200 OFFCURVE",
"278 -200 CURVE SMOOTH"
);
}
);
width = 907;
}
);
leftKerningGroup = U;
note = Uhorndotbelow;
rightKerningGroup = U;
unicode = 1EF0;
},
{
glyphname = Uhorngrave;
lastChange = "2015-11-30 02:09:02 +0000";
layers = (
{
layerId = "E876E4BA-4024-4F05-97F6-A7AFE1BCFA82";
name = "Bold Italic";
paths = (
{
closed = 1;
nodes = (
"543 -15 OFFCURVE",
"649 116 OFFCURVE",
"687 293 CURVE SMOOTH",
"732 506 LINE",
"895 506 OFFCURVE",
"977 591 OFFCURVE",
"1001 702 CURVE SMOOTH",
"1010 747 LINE",
"862 747 LINE",
"855 713 LINE SMOOTH",
"843 656 OFFCURVE",
"823 632 OFFCURVE",
"759 632 CURVE",
"773 699 LINE",
"596 699 LINE",
"509 291 LINE SMOOTH",
"489 196 OFFCURVE",
"436 149 OFFCURVE",
"339 149 CURVE SMOOTH",
"228 149 OFFCURVE",
"208 196 OFFCURVE",
"228 291 CURVE SMOOTH",
"315 699 LINE",
"138 699 LINE",
"52 293 LINE SMOOTH",
"14 116 OFFCURVE",
"102 -15 OFFCURVE",
"304 -15 CURVE SMOOTH"
);
},
{
closed = 1;
nodes = (
"544 742 LINE",
"513 920 LINE",
"328 920 LINE",
"381 742 LINE"
);
}
);
width = 907;
}
);
leftKerningGroup = U;
note = Uhorngrave;
rightKerningGroup = U;
unicode = 1EEA;
},
{
glyphname = Uhornhookabove;
lastChange = "2015-11-30 02:09:02 +0000";
layers = (
{
layerId = "E876E4BA-4024-4F05-97F6-A7AFE1BCFA82";
name = "Bold Italic";
paths = (
{
closed = 1;
nodes = (
"543 -15 OFFCURVE",
"649 116 OFFCURVE",
"687 293 CURVE SMOOTH",
"732 506 LINE",
"895 506 OFFCURVE",
"977 591 OFFCURVE",
"1001 702 CURVE SMOOTH",
"1010 747 LINE",
"862 747 LINE",
"855 713 LINE SMOOTH",
"843 656 OFFCURVE",
"823 632 OFFCURVE",
"759 632 CURVE",
"773 699 LINE",
"596 699 LINE",
"509 291 LINE SMOOTH",
"489 196 OFFCURVE",
"436 149 OFFCURVE",
"339 149 CURVE SMOOTH",
"228 149 OFFCURVE",
"208 196 OFFCURVE",
"228 291 CURVE SMOOTH",
"315 699 LINE",
"138 699 LINE",
"52 293 LINE SMOOTH",
"14 116 OFFCURVE",
"102 -15 OFFCURVE",
"304 -15 CURVE SMOOTH"
);
},
{
closed = 1;
nodes = (
"526 742 LINE",
"531 767 LINE",
"590 781 OFFCURVE",
"631 821 OFFCURVE",
"641 869 CURVE SMOOTH",
"654 932 OFFCURVE",
"611 975 OFFCURVE",
"505 975 CURVE SMOOTH",
"465 975 OFFCURVE",
"413 968 OFFCURVE",
"382 959 CURVE",
"364 875 LINE",
"378 881 OFFCURVE",
"407 885 OFFCURVE",
"423 885 CURVE SMOOTH",
"465 885 OFFCURVE",
"480 873 OFFCURVE",
"475 852 CURVE",
"469 821 OFFCURVE",
"435 812 OFFCURVE",
"387 812 CURVE",
"372 742 LINE"
);
}
);
width = 907;
}
);
leftKerningGroup = U;
note = Uhornhookabove;
rightKerningGroup = U;
unicode = 1EEC;
},
{
glyphname = Uhorntilde;
lastChange = "2015-11-30 02:09:01 +0000";
layers = (
{
layerId = "E876E4BA-4024-4F05-97F6-A7AFE1BCFA82";
name = "Bold Italic";
paths = (
{
closed = 1;
nodes = (
"543 -15 OFFCURVE",
"649 116 OFFCURVE",
"687 293 CURVE SMOOTH",
"732 506 LINE",
"895 506 OFFCURVE",
"977 591 OFFCURVE",
"1001 702 CURVE SMOOTH",
"1010 747 LINE",
"862 747 LINE",
"855 713 LINE SMOOTH",
"843 656 OFFCURVE",
"823 632 OFFCURVE",
"759 632 CURVE",
"773 699 LINE",
"596 699 LINE",
"509 291 LINE SMOOTH",
"489 196 OFFCURVE",
"436 149 OFFCURVE",
"339 149 CURVE SMOOTH",
"228 149 OFFCURVE",
"208 196 OFFCURVE",
"228 291 CURVE SMOOTH",
"315 699 LINE",
"138 699 LINE",
"52 293 LINE SMOOTH",
"14 116 OFFCURVE",
"102 -15 OFFCURVE",
"304 -15 CURVE SMOOTH"
);
},
{
closed = 1;
nodes = (
"299 779 OFFCURVE",
"337 793 OFFCURVE",
"376 793 CURVE SMOOTH",
"440 793 OFFCURVE",
"490 743 OFFCURVE",
"563 743 CURVE SMOOTH",
"607 743 OFFCURVE",
"645 754 OFFCURVE",
"675 784 CURVE",
"702 912 LINE",
"665 876 OFFCURVE",
"628 862 OFFCURVE",
"588 862 CURVE SMOOTH",
"523 862 OFFCURVE",
"469 912 OFFCURVE",
"401 912 CURVE SMOOTH",
"358 912 OFFCURVE",
"319 900 OFFCURVE",
"288 870 CURVE",
"260 742 LINE"
);
}
);
width = 907;
}
);
leftKerningGroup = U;
note = Uhorntilde;
rightKerningGroup = U;
unicode = 1EEE;
},
{
glyphname = Uhungarumlaut;
lastChange = "2015-11-30 02:09:01 +0000";
layers = (
{
layerId = "E876E4BA-4024-4F05-97F6-A7AFE1BCFA82";
name = "Bold Italic";
paths = (
{
closed = 1;
nodes = (
"543 -15 OFFCURVE",
"649 116 OFFCURVE",
"687 293 CURVE SMOOTH",
"773 699 LINE",
"596 699 LINE",
"509 291 LINE SMOOTH",
"489 196 OFFCURVE",
"436 149 OFFCURVE",
"339 149 CURVE SMOOTH",
"228 149 OFFCURVE",
"208 196 OFFCURVE",
"228 291 CURVE SMOOTH",
"315 699 LINE",
"138 699 LINE",
"52 293 LINE SMOOTH",
"14 116 OFFCURVE",
"102 -15 OFFCURVE",
"304 -15 CURVE SMOOTH"
);
},
{
closed = 1;
nodes = (
"395 742 LINE",
"523 919 LINE",
"354 919 LINE",
"248 742 LINE"
);
},
{
closed = 1;
nodes = (
"647 742 LINE",
"774 919 LINE",
"605 919 LINE",
"499 742 LINE"
);
}
);
width = 715;
}
);
leftKerningGroup = U;
note = Uhungarumlaut;
rightKerningGroup = U;
unicode = 0170;
},
{
glyphname = Umacron;
lastChange = "2015-11-30 02:09:01 +0000";
layers = (
{
layerId = "E876E4BA-4024-4F05-97F6-A7AFE1BCFA82";
name = "Bold Italic";
paths = (
{
closed = 1;
nodes = (
"543 -15 OFFCURVE",
"649 116 OFFCURVE",
"687 293 CURVE SMOOTH",
"773 699 LINE",
"596 699 LINE",
"509 291 LINE SMOOTH",
"489 196 OFFCURVE",
"436 149 OFFCURVE",
"339 149 CURVE SMOOTH",
"228 149 OFFCURVE",
"208 196 OFFCURVE",
"228 291 CURVE SMOOTH",
"315 699 LINE",
"138 699 LINE",
"52 293 LINE SMOOTH",
"14 116 OFFCURVE",
"102 -15 OFFCURVE",
"304 -15 CURVE SMOOTH"
);
},
{
closed = 1;
nodes = (
"619 752 LINE",
"643 865 LINE",
"299 865 LINE",
"275 752 LINE"
);
}
);
width = 715;
}
);
leftKerningGroup = U;
note = Umacron;
rightKerningGroup = U;
unicode = 016A;
},
{
glyphname = Uogonek;
lastChange = "2015-11-30 02:09:01 +0000";
layers = (
{
layerId = "E876E4BA-4024-4F05-97F6-A7AFE1BCFA82";
name = "Bold Italic";
paths = (
{
closed = 1;
nodes = (
"306 -216 OFFCURVE",
"345 -210 OFFCURVE",
"373 -201 CURVE",
"393 -105 LINE",
"376 -113 OFFCURVE",
"359 -117 OFFCURVE",
"343 -117 CURVE SMOOTH",
"322 -117 OFFCURVE",
"311 -104 OFFCURVE",
"316 -84 CURVE",
"321 -57 OFFCURVE",
"347 -33 OFFCURVE",
"398 -7 CURVE",
"572 23 OFFCURVE",
"654 141 OFFCURVE",
"687 293 CURVE SMOOTH",
"773 699 LINE",
"596 699 LINE",
"509 291 LINE SMOOTH",
"489 196 OFFCURVE",
"436 149 OFFCURVE",
"339 149 CURVE SMOOTH",
"228 149 OFFCURVE",
"208 196 OFFCURVE",
"228 291 CURVE SMOOTH",
"315 699 LINE",
"138 699 LINE",
"52 293 LINE SMOOTH",
"18 137 OFFCURVE",
"83 17 OFFCURVE",
"236 -9 CURVE",
"197 -35 OFFCURVE",
"166 -72 OFFCURVE",
"157 -119 CURVE SMOOTH",
"143 -187 OFFCURVE",
"195 -216 OFFCURVE",
"268 -216 CURVE SMOOTH"
);
}
);
width = 715;
}
);
leftKerningGroup = U;
note = Uogonek;
rightKerningGroup = U;
unicode = 0172;
},
{
glyphname = Uring;
lastChange = "2015-11-30 02:09:01 +0000";
layers = (
{
layerId = "E876E4BA-4024-4F05-97F6-A7AFE1BCFA82";
name = "Bold Italic";
paths = (
{
closed = 1;
nodes = (
"543 -15 OFFCURVE",
"649 116 OFFCURVE",
"687 293 CURVE SMOOTH",
"773 699 LINE",
"596 699 LINE",
"509 291 LINE SMOOTH",
"489 196 OFFCURVE",
"436 149 OFFCURVE",
"339 149 CURVE SMOOTH",
"228 149 OFFCURVE",
"208 196 OFFCURVE",
"228 291 CURVE SMOOTH",
"315 699 LINE",
"138 699 LINE",
"52 293 LINE SMOOTH",
"14 116 OFFCURVE",
"102 -15 OFFCURVE",
"304 -15 CURVE SMOOTH"
);
},
{
closed = 1;
nodes = (
"521 742 OFFCURVE",
"598 803 OFFCURVE",
"615 881 CURVE SMOOTH",
"631 959 OFFCURVE",
"581 1021 OFFCURVE",
"503 1021 CURVE SMOOTH",
"425 1021 OFFCURVE",
"348 959 OFFCURVE",
"332 881 CURVE SMOOTH",
"316 803 OFFCURVE",
"365 742 OFFCURVE",
"443 742 CURVE SMOOTH"
);
},
{
closed = 1;
nodes = (
"432 835 OFFCURVE",
"422 856 OFFCURVE",
"427 881 CURVE SMOOTH",
"432 907 OFFCURVE",
"458 927 OFFCURVE",
"483 927 CURVE SMOOTH",
"514 927 OFFCURVE",
"524 907 OFFCURVE",
"519 881 CURVE SMOOTH",
"514 856 OFFCURVE",
"489 835 OFFCURVE",
"463 835 CURVE SMOOTH"
);
}
);
width = 715;
}
);
leftKerningGroup = U;
note = Uring;
rightKerningGroup = U;
unicode = 016E;
},
{
glyphname = Utilde;
lastChange = "2015-11-30 02:09:01 +0000";
layers = (
{
layerId = "E876E4BA-4024-4F05-97F6-A7AFE1BCFA82";
name = "Bold Italic";
paths = (
{
closed = 1;
nodes = (
"543 -15 OFFCURVE",
"649 116 OFFCURVE",
"687 293 CURVE SMOOTH",
"773 699 LINE",
"596 699 LINE",
"509 291 LINE SMOOTH",
"489 196 OFFCURVE",
"436 149 OFFCURVE",
"339 149 CURVE SMOOTH",
"228 149 OFFCURVE",
"208 196 OFFCURVE",
"228 291 CURVE SMOOTH",
"315 699 LINE",
"138 699 LINE",
"52 293 LINE SMOOTH",
"14 116 OFFCURVE",
"102 -15 OFFCURVE",
"304 -15 CURVE SMOOTH"
);
},
{
closed = 1;
nodes = (
"280 779 OFFCURVE",
"318 793 OFFCURVE",
"357 793 CURVE SMOOTH",
"421 793 OFFCURVE",
"471 743 OFFCURVE",
"544 743 CURVE SMOOTH",
"588 743 OFFCURVE",
"626 754 OFFCURVE",
"656 784 CURVE",
"683 912 LINE",
"646 876 OFFCURVE",
"609 862 OFFCURVE",
"569 862 CURVE SMOOTH",
"504 862 OFFCURVE",
"450 912 OFFCURVE",
"382 912 CURVE SMOOTH",
"339 912 OFFCURVE",
"300 900 OFFCURVE",
"269 870 CURVE",
"241 742 LINE"
);
}
);
width = 715;
}
);
leftKerningGroup = U;
note = Utilde;
rightKerningGroup = U;
unicode = 0168;
},
{
glyphname = V;
lastChange = "2015-11-30 02:09:02 +0000";
layers = (
{
layerId = "E876E4BA-4024-4F05-97F6-A7AFE1BCFA82";
name = "Bold Italic";
paths = (
{
closed = 1;
nodes = (
"429 0 LINE",
"856 699 LINE",
"662 699 LINE",
"385 234 LINE",
"306 699 LINE",
"123 699 LINE",
"255 0 LINE"
);
}
);
width = 783;
}
);
note = V;
unicode = 0056;
},
{
glyphname = W;
lastChange = "2015-11-30 02:09:02 +0000";
layers = (
{
layerId = "E876E4BA-4024-4F05-97F6-A7AFE1BCFA82";
name = "Bold Italic";
paths = (
{
closed = 1;
nodes = (
"338 0 LINE",
"538 406 LINE",
"567 0 LINE",
"724 0 LINE",
"1065 699 LINE",
"883 699 LINE",
"679 284 LINE",
"661 699 LINE",
"535 699 LINE",
"334 285 LINE",
"305 699 LINE",
"123 699 LINE",
"168 0 LINE"
);
}
);
width = 992;
}
);
leftKerningGroup = W;
note = W;
rightKerningGroup = W;
unicode = 0057;
},
{
glyphname = Wacute;
lastChange = "2015-11-30 02:09:01 +0000";
layers = (
{
layerId = "E876E4BA-4024-4F05-97F6-A7AFE1BCFA82";
name = "Bold Italic";
paths = (
{
closed = 1;
nodes = (
"338 0 LINE",
"538 406 LINE",
"567 0 LINE",
"724 0 LINE",
"1065 699 LINE",
"883 699 LINE",
"679 284 LINE",
"661 699 LINE",
"535 699 LINE",
"334 285 LINE",
"305 699 LINE",
"123 699 LINE",
"168 0 LINE"
);
},
{
closed = 1;
nodes = (
"673 742 LINE",
"802 920 LINE",
"617 920 LINE",
"510 742 LINE"
);
}
);
width = 992;
}
);
leftKerningGroup = W;
note = Wacute;
rightKerningGroup = W;
unicode = 1E82;
},
{
glyphname = Wcircumflex;
lastChange = "2015-11-30 02:09:01 +0000";
layers = (
{
layerId = "E876E4BA-4024-4F05-97F6-A7AFE1BCFA82";
name = "Bold Italic";
paths = (
{
closed = 1;
nodes = (
"338 0 LINE",
"538 406 LINE",
"567 0 LINE",
"724 0 LINE",
"1065 699 LINE",
"883 699 LINE",
"679 284 LINE",
"661 699 LINE",
"535 699 LINE",
"334 285 LINE",
"305 699 LINE",
"123 699 LINE",
"168 0 LINE"
);
},
{
closed = 1;
nodes = (
"529 742 LINE",
"607 827 LINE",
"649 742 LINE",
"818 742 LINE",
"700 923 LINE",
"543 923 LINE",
"350 742 LINE"
);
}
);
width = 992;
}
);
leftKerningGroup = W;
note = Wcircumflex;
rightKerningGroup = W;
unicode = 0174;
},
{
glyphname = Wdieresis;
lastChange = "2015-11-30 02:09:01 +0000";
layers = (
{
layerId = "E876E4BA-4024-4F05-97F6-A7AFE1BCFA82";
name = "Bold Italic";
paths = (
{
closed = 1;
nodes = (
"338 0 LINE",
"538 406 LINE",
"567 0 LINE",
"724 0 LINE",
"1065 699 LINE",
"883 699 LINE",
"679 284 LINE",
"661 699 LINE",
"535 699 LINE",
"334 285 LINE",
"305 699 LINE",
"123 699 LINE",
"168 0 LINE"
);
},
{
closed = 1;
nodes = (
"510 752 OFFCURVE",
"551 785 OFFCURVE",
"560 828 CURVE SMOOTH",
"569 871 OFFCURVE",
"542 906 OFFCURVE",
"500 906 CURVE SMOOTH",
"459 906 OFFCURVE",
"416 871 OFFCURVE",
"407 828 CURVE SMOOTH",
"398 785 OFFCURVE",
"427 752 OFFCURVE",
"468 752 CURVE SMOOTH"
);
},
{
closed = 1;
nodes = (
"745 752 OFFCURVE",
"787 785 OFFCURVE",
"796 828 CURVE SMOOTH",
"805 871 OFFCURVE",
"777 906 OFFCURVE",
"736 906 CURVE SMOOTH",
"694 906 OFFCURVE",
"651 871 OFFCURVE",
"642 828 CURVE SMOOTH",
"633 785 OFFCURVE",
"662 752 OFFCURVE",
"704 752 CURVE SMOOTH"
);
}
);
width = 992;
}
);
leftKerningGroup = W;
note = Wdieresis;
rightKerningGroup = W;
unicode = 1E84;
},
{
glyphname = Wgrave;
lastChange = "2015-11-30 02:09:02 +0000";
layers = (
{
layerId = "E876E4BA-4024-4F05-97F6-A7AFE1BCFA82";
name = "Bold Italic";
paths = (
{
closed = 1;
nodes = (
"338 0 LINE",
"538 406 LINE",
"567 0 LINE",
"724 0 LINE",
"1065 699 LINE",
"883 699 LINE",
"679 284 LINE",
"661 699 LINE",
"535 699 LINE",
"334 285 LINE",
"305 699 LINE",
"123 699 LINE",
"168 0 LINE"
);
},
{
closed = 1;
nodes = (
"669 742 LINE",
"638 920 LINE",
"453 920 LINE",
"506 742 LINE"
);
}
);
width = 992;
}
);
leftKerningGroup = W;
note = Wgrave;
rightKerningGroup = W;
unicode = 1E80;
},
{
glyphname = X;
lastChange = "2015-11-30 02:09:01 +0000";
layers = (
{
layerId = "E876E4BA-4024-4F05-97F6-A7AFE1BCFA82";
name = "Bold Italic";
paths = (
{
closed = 1;
nodes = (
"178 0 LINE",
"374 209 LINE",
"481 0 LINE",
"684 0 LINE",
"505 350 LINE",
"832 699 LINE",
"629 699 LINE",
"434 490 LINE",
"327 699 LINE",
"124 699 LINE",
"302 350 LINE",
"-25 0 LINE"
);
}
);
width = 759;
}
);
note = X;
unicode = 0058;
},
{
glyphname = Y;
lastChange = "2015-11-30 02:09:02 +0000";
layers = (
{
layerId = "E876E4BA-4024-4F05-97F6-A7AFE1BCFA82";
name = "Bold Italic";
paths = (
{
closed = 1;
nodes = (
"410 0 LINE",
"466 266 LINE",
"823 699 LINE",
"629 699 LINE",
"406 428 LINE",
"306 699 LINE",
"123 699 LINE",
"289 266 LINE",
"233 0 LINE"
);
}
);
width = 750;
}
);
leftKerningGroup = Y;
note = Y;
rightKerningGroup = Y;
unicode = 0059;
},
{
glyphname = Yacute;
lastChange = "2015-11-30 02:09:01 +0000";
layers = (
{
layerId = "E876E4BA-4024-4F05-97F6-A7AFE1BCFA82";
name = "Bold Italic";
paths = (
{
closed = 1;
nodes = (
"410 0 LINE",
"466 266 LINE",
"823 699 LINE",
"629 699 LINE",
"406 428 LINE",
"306 699 LINE",
"123 699 LINE",
"289 266 LINE",
"233 0 LINE"
);
},
{
closed = 1;
nodes = (
"530 742 LINE",
"659 920 LINE",
"474 920 LINE",
"367 742 LINE"
);
}
);
width = 750;
}
);
leftKerningGroup = Y;
note = Yacute;
rightKerningGroup = Y;
unicode = 00DD;
},
{
glyphname = Ycircumflex;
lastChange = "2015-11-30 02:09:02 +0000";
layers = (
{
layerId = "E876E4BA-4024-4F05-97F6-A7AFE1BCFA82";
name = "Bold Italic";
paths = (
{
closed = 1;
nodes = (
"410 0 LINE",
"466 266 LINE",
"823 699 LINE",
"629 699 LINE",
"406 428 LINE",
"306 699 LINE",
"123 699 LINE",
"289 266 LINE",
"233 0 LINE"
);
},
{
closed = 1;
nodes = (
"405 742 LINE",
"483 827 LINE",
"525 742 LINE",
"694 742 LINE",
"576 923 LINE",
"419 923 LINE",
"226 742 LINE"
);
}
);
width = 750;
}
);
leftKerningGroup = Y;
note = Ycircumflex;
rightKerningGroup = Y;
unicode = 0176;
},
{
glyphname = Ydieresis;
lastChange = "2015-11-30 02:09:01 +0000";
layers = (
{
layerId = "E876E4BA-4024-4F05-97F6-A7AFE1BCFA82";
name = "Bold Italic";
paths = (
{
closed = 1;
nodes = (
"410 0 LINE",
"466 266 LINE",
"823 699 LINE",
"629 699 LINE",
"406 428 LINE",
"306 699 LINE",
"123 699 LINE",
"289 266 LINE",
"233 0 LINE"
);
},
{
closed = 1;
nodes = (
"386 752 OFFCURVE",
"427 785 OFFCURVE",
"436 828 CURVE SMOOTH",
"445 871 OFFCURVE",
"418 906 OFFCURVE",
"376 906 CURVE SMOOTH",
"335 906 OFFCURVE",
"292 871 OFFCURVE",
"283 828 CURVE SMOOTH",
"274 785 OFFCURVE",
"303 752 OFFCURVE",
"344 752 CURVE SMOOTH"
);
},
{
closed = 1;
nodes = (
"621 752 OFFCURVE",
"663 785 OFFCURVE",
"672 828 CURVE SMOOTH",
"681 871 OFFCURVE",
"653 906 OFFCURVE",
"612 906 CURVE SMOOTH",
"570 906 OFFCURVE",
"527 871 OFFCURVE",
"518 828 CURVE SMOOTH",
"509 785 OFFCURVE",
"538 752 OFFCURVE",
"580 752 CURVE SMOOTH"
);
}
);
width = 750;
}
);
leftKerningGroup = Y;
note = Ydieresis;
rightKerningGroup = Y;
unicode = 0178;
},
{
glyphname = Ydotaccent;
lastChange = "2015-11-30 02:09:01 +0000";
layers = (
{
layerId = "E876E4BA-4024-4F05-97F6-A7AFE1BCFA82";
name = "Bold Italic";
paths = (
{
closed = 1;
nodes = (
"410 0 LINE",
"466 266 LINE",
"823 699 LINE",
"629 699 LINE",
"406 428 LINE",
"306 699 LINE",
"123 699 LINE",
"289 266 LINE",
"233 0 LINE"
);
},
{
closed = 1;
nodes = (
"504 752 OFFCURVE",
"545 785 OFFCURVE",
"554 828 CURVE SMOOTH",
"563 871 OFFCURVE",
"536 906 OFFCURVE",
"494 906 CURVE SMOOTH",
"452 906 OFFCURVE",
"409 871 OFFCURVE",
"400 828 CURVE SMOOTH",
"391 785 OFFCURVE",
"420 752 OFFCURVE",
"462 752 CURVE SMOOTH"
);
}
);
width = 750;
}
);
leftKerningGroup = Y;
note = Ydotaccent;
rightKerningGroup = Y;
unicode = 1E8E;
},
{
glyphname = Ydotbelow;
lastChange = "2015-11-30 02:09:02 +0000";
layers = (
{
layerId = "E876E4BA-4024-4F05-97F6-A7AFE1BCFA82";
name = "Bold Italic";
paths = (
{
closed = 1;
nodes = (
"410 0 LINE",
"466 266 LINE",
"823 699 LINE",
"629 699 LINE",
"406 428 LINE",
"306 699 LINE",
"123 699 LINE",
"289 266 LINE",
"233 0 LINE"
);
},
{
closed = 1;
nodes = (
"324 -200 OFFCURVE",
"364 -166 OFFCURVE",
"373 -123 CURVE SMOOTH",
"382 -80 OFFCURVE",
"356 -46 OFFCURVE",
"315 -46 CURVE SMOOTH",
"273 -46 OFFCURVE",
"229 -80 OFFCURVE",
"220 -123 CURVE SMOOTH",
"211 -166 OFFCURVE",
"240 -200 OFFCURVE",
"282 -200 CURVE SMOOTH"
);
}
);
width = 750;
}
);
leftKerningGroup = Y;
note = Ydotbelow;
rightKerningGroup = Y;
unicode = 1EF4;
},
{
glyphname = Ygrave;
lastChange = "2015-11-30 02:09:01 +0000";
layers = (
{
layerId = "E876E4BA-4024-4F05-97F6-A7AFE1BCFA82";
name = "Bold Italic";
paths = (
{
closed = 1;
nodes = (
"410 0 LINE",
"466 266 LINE",
"823 699 LINE",
"629 699 LINE",
"406 428 LINE",
"306 699 LINE",
"123 699 LINE",
"289 266 LINE",
"233 0 LINE"
);
},
{
closed = 1;
nodes = (
"559 742 LINE",
"528 920 LINE",
"343 920 LINE",
"396 742 LINE"
);
}
);
width = 750;
}
);
leftKerningGroup = Y;
note = Ygrave;
rightKerningGroup = Y;
unicode = 1EF2;
},
{
glyphname = Yhookabove;
lastChange = "2015-11-30 02:09:02 +0000";
layers = (
{
layerId = "E876E4BA-4024-4F05-97F6-A7AFE1BCFA82";
name = "Bold Italic";
paths = (
{
closed = 1;
nodes = (
"410 0 LINE",
"466 266 LINE",
"823 699 LINE",
"629 699 LINE",
"406 428 LINE",
"306 699 LINE",
"123 699 LINE",
"289 266 LINE",
"233 0 LINE"
);
},
{
closed = 1;
nodes = (
"546 742 LINE",
"551 767 LINE",
"610 781 OFFCURVE",
"651 821 OFFCURVE",
"661 869 CURVE SMOOTH",
"674 932 OFFCURVE",
"631 975 OFFCURVE",
"525 975 CURVE SMOOTH",
"485 975 OFFCURVE",
"433 968 OFFCURVE",
"402 959 CURVE",
"384 875 LINE",
"398 881 OFFCURVE",
"427 885 OFFCURVE",
"443 885 CURVE SMOOTH",
"485 885 OFFCURVE",
"500 873 OFFCURVE",
"495 852 CURVE",
"489 821 OFFCURVE",
"455 812 OFFCURVE",
"407 812 CURVE",
"392 742 LINE"
);
}
);
width = 750;
}
);
leftKerningGroup = Y;
note = Yhookabove;
rightKerningGroup = Y;
unicode = 1EF6;
},
{
glyphname = Ytilde;
lastChange = "2015-11-30 02:09:02 +0000";
layers = (
{
layerId = "E876E4BA-4024-4F05-97F6-A7AFE1BCFA82";
name = "Bold Italic";
paths = (
{
closed = 1;
nodes = (
"410 0 LINE",
"466 266 LINE",
"823 699 LINE",
"629 699 LINE",
"406 428 LINE",
"306 699 LINE",
"123 699 LINE",
"289 266 LINE",
"233 0 LINE"
);
},
{
closed = 1;
nodes = (
"295 779 OFFCURVE",
"333 793 OFFCURVE",
"372 793 CURVE SMOOTH",
"436 793 OFFCURVE",
"486 743 OFFCURVE",
"559 743 CURVE SMOOTH",
"603 743 OFFCURVE",
"641 754 OFFCURVE",
"671 784 CURVE",
"698 912 LINE",
"661 876 OFFCURVE",
"624 862 OFFCURVE",
"584 862 CURVE SMOOTH",
"519 862 OFFCURVE",
"465 912 OFFCURVE",
"397 912 CURVE SMOOTH",
"354 912 OFFCURVE",
"315 900 OFFCURVE",
"284 870 CURVE",
"256 742 LINE"
);
}
);
width = 750;
}
);
leftKerningGroup = Y;
note = Ytilde;
rightKerningGroup = Y;
unicode = 1EF8;
},
{
glyphname = Z;
lastChange = "2015-11-30 02:09:01 +0000";
layers = (
{
layerId = "E876E4BA-4024-4F05-97F6-A7AFE1BCFA82";
name = "Bold Italic";
paths = (
{
closed = 1;
nodes = (
"536 0 LINE",
"567 149 LINE",
"229 149 LINE",
"636 578 LINE",
"662 699 LINE",
"131 699 LINE",
"99 550 LINE",
"409 550 LINE",
"0 120 LINE",
"-25 0 LINE"
);
}
);
width = 611;
}
);
leftKerningGroup = Z;
note = Z;
rightKerningGroup = Z;
unicode = 005A;
},
{
glyphname = Zacute;
lastChange = "2015-11-30 02:09:01 +0000";
layers = (
{
layerId = "E876E4BA-4024-4F05-97F6-A7AFE1BCFA82";
name = "Bold Italic";
paths = (
{
closed = 1;
nodes = (
"536 0 LINE",
"567 149 LINE",
"229 149 LINE",
"636 578 LINE",
"662 699 LINE",
"131 699 LINE",
"99 550 LINE",
"409 550 LINE",
"0 120 LINE",
"-25 0 LINE"
);
},
{
closed = 1;
nodes = (
"459 742 LINE",
"588 920 LINE",
"403 920 LINE",
"296 742 LINE"
);
}
);
width = 611;
}
);
leftKerningGroup = Z;
note = Zacute;
rightKerningGroup = Z;
unicode = 0179;
},
{
glyphname = Zcaron;
lastChange = "2015-11-30 02:09:02 +0000";
layers = (
{
layerId = "E876E4BA-4024-4F05-97F6-A7AFE1BCFA82";
name = "Bold Italic";
paths = (
{
closed = 1;
nodes = (
"536 0 LINE",
"567 149 LINE",
"229 149 LINE",
"636 578 LINE",
"662 699 LINE",
"131 699 LINE",
"99 550 LINE",
"409 550 LINE",
"0 120 LINE",
"-25 0 LINE"
);
},
{
closed = 1;
nodes = (
"477 742 LINE",
"671 923 LINE",
"492 923 LINE",
"414 838 LINE",
"372 923 LINE",
"203 923 LINE",
"320 742 LINE"
);
}
);
width = 611;
}
);
leftKerningGroup = Z;
note = Zcaron;
rightKerningGroup = Z;
unicode = 017D;
},
{
glyphname = Zdotaccent;
lastChange = "2015-11-30 02:09:02 +0000";
layers = (
{
layerId = "E876E4BA-4024-4F05-97F6-A7AFE1BCFA82";
name = "Bold Italic";
paths = (
{
closed = 1;
nodes = (
"536 0 LINE",
"567 149 LINE",
"229 149 LINE",
"636 578 LINE",
"662 699 LINE",
"131 699 LINE",
"99 550 LINE",
"409 550 LINE",
"0 120 LINE",
"-25 0 LINE"
);
},
{
closed = 1;
nodes = (
"439 752 OFFCURVE",
"480 785 OFFCURVE",
"489 828 CURVE SMOOTH",
"498 871 OFFCURVE",
"471 906 OFFCURVE",
"429 906 CURVE SMOOTH",
"387 906 OFFCURVE",
"344 871 OFFCURVE",
"335 828 CURVE SMOOTH",
"326 785 OFFCURVE",
"355 752 OFFCURVE",
"397 752 CURVE SMOOTH"
);
}
);
width = 611;
}
);
leftKerningGroup = Z;
note = Zdotaccent;
rightKerningGroup = Z;
unicode = 017B;
},
{
glyphname = Zdotbelow;
lastChange = "2015-11-30 02:09:01 +0000";
layers = (
{
layerId = "E876E4BA-4024-4F05-97F6-A7AFE1BCFA82";
name = "Bold Italic";
paths = (
{
closed = 1;
nodes = (
"536 0 LINE",
"567 149 LINE",
"229 149 LINE",
"636 578 LINE",
"662 699 LINE",
"131 699 LINE",
"99 550 LINE",
"409 550 LINE",
"0 120 LINE",
"-25 0 LINE"
);
},
{
closed = 1;
nodes = (
"261 -200 OFFCURVE",
"301 -166 OFFCURVE",
"310 -123 CURVE SMOOTH",
"319 -80 OFFCURVE",
"293 -46 OFFCURVE",
"252 -46 CURVE SMOOTH",
"210 -46 OFFCURVE",
"166 -80 OFFCURVE",
"157 -123 CURVE SMOOTH",
"148 -166 OFFCURVE",
"177 -200 OFFCURVE",
"219 -200 CURVE SMOOTH"
);
}
);
width = 611;
}
);
leftKerningGroup = Z;
note = Zdotbelow;
rightKerningGroup = Z;
unicode = 1E92;
},
{
glyphname = a;
lastChange = "2015-11-30 02:09:02 +0000";
layers = (
{
layerId = "E876E4BA-4024-4F05-97F6-A7AFE1BCFA82";
name = "Bold Italic";
paths = (
{
closed = 1;
nodes = (
"296 -15 OFFCURVE",
"357 6 OFFCURVE",
"411 48 CURVE",
"401 0 LINE",
"571 0 LINE",
"673 480 LINE",
"497 480 LINE",
"488 441 LINE",
"456 475 OFFCURVE",
"403 495 OFFCURVE",
"336 495 CURVE SMOOTH",
"183 495 OFFCURVE",
"59 391 OFFCURVE",
"26 239 CURVE SMOOTH",
"-6 85 OFFCURVE",
"81 -15 OFFCURVE",
"227 -15 CURVE SMOOTH"
);
},
{
closed = 1;
nodes = (
"217 121 OFFCURVE",
"192 165 OFFCURVE",
"207 239 CURVE SMOOTH",
"223 313 OFFCURVE",
"282 358 OFFCURVE",
"353 358 CURVE SMOOTH",
"407 358 OFFCURVE",
"446 328 OFFCURVE",
"454 282 CURVE",
"436 197 LINE",
"408 151 OFFCURVE",
"356 121 OFFCURVE",
"302 121 CURVE SMOOTH"
);
}
);
width = 661;
}
);
leftKerningGroup = a;
note = a;
rightKerningGroup = a;
unicode = 0061;
},
{
glyphname = aacute;
lastChange = "2015-11-30 02:09:02 +0000";
layers = (
{
layerId = "E876E4BA-4024-4F05-97F6-A7AFE1BCFA82";
name = "Bold Italic";
paths = (
{
closed = 1;
nodes = (
"296 -15 OFFCURVE",
"357 6 OFFCURVE",
"411 48 CURVE",
"401 0 LINE",
"571 0 LINE",
"673 480 LINE",
"497 480 LINE",
"488 441 LINE",
"456 475 OFFCURVE",
"403 495 OFFCURVE",
"336 495 CURVE SMOOTH",
"183 495 OFFCURVE",
"59 391 OFFCURVE",
"26 239 CURVE SMOOTH",
"-6 85 OFFCURVE",
"81 -15 OFFCURVE",
"227 -15 CURVE SMOOTH"
);
},
{
closed = 1;
nodes = (
"217 121 OFFCURVE",
"192 165 OFFCURVE",
"207 239 CURVE SMOOTH",
"223 313 OFFCURVE",
"282 358 OFFCURVE",
"353 358 CURVE SMOOTH",
"407 358 OFFCURVE",
"446 328 OFFCURVE",
"454 282 CURVE",
"436 197 LINE",
"408 151 OFFCURVE",
"356 121 OFFCURVE",
"302 121 CURVE SMOOTH"
);
},
{
closed = 1;
nodes = (
"491 518 LINE",
"620 696 LINE",
"435 696 LINE",
"328 518 LINE"
);
}
);
width = 661;
}
);
leftKerningGroup = a;
note = aacute;
rightKerningGroup = a;
unicode = 00E1;
},
{
glyphname = abreve;
lastChange = "2015-11-30 02:09:03 +0000";
layers = (
{
layerId = "E876E4BA-4024-4F05-97F6-A7AFE1BCFA82";
name = "Bold Italic";
paths = (
{
closed = 1;
nodes = (
"296 -15 OFFCURVE",
"357 6 OFFCURVE",
"411 48 CURVE",
"401 0 LINE",
"571 0 LINE",
"673 480 LINE",
"497 480 LINE",
"488 441 LINE",
"456 475 OFFCURVE",
"403 495 OFFCURVE",
"336 495 CURVE SMOOTH",
"183 495 OFFCURVE",
"59 391 OFFCURVE",
"26 239 CURVE SMOOTH",
"-6 85 OFFCURVE",
"81 -15 OFFCURVE",
"227 -15 CURVE SMOOTH"
);
},
{
closed = 1;
nodes = (
"217 121 OFFCURVE",
"192 165 OFFCURVE",
"207 239 CURVE SMOOTH",
"223 313 OFFCURVE",
"282 358 OFFCURVE",
"353 358 CURVE SMOOTH",
"407 358 OFFCURVE",
"446 328 OFFCURVE",
"454 282 CURVE",
"436 197 LINE",
"408 151 OFFCURVE",
"356 121 OFFCURVE",
"302 121 CURVE SMOOTH"
);
},
{
closed = 1;
nodes = (
"554 525 OFFCURVE",
"634 593 OFFCURVE",
"657 698 CURVE",
"521 698 LINE",
"512 657 OFFCURVE",
"488 636 OFFCURVE",
"455 636 CURVE SMOOTH",
"421 636 OFFCURVE",
"408 657 OFFCURVE",
"417 698 CURVE",
"292 698 LINE",
"269 593 OFFCURVE",
"320 525 OFFCURVE",
"437 525 CURVE SMOOTH"
);
}
);
width = 661;
}
);
leftKerningGroup = a;
note = abreve;
rightKerningGroup = a;
unicode = 0103;
},
{
glyphname = abreveacute;
lastChange = "2015-11-30 02:09:02 +0000";
layers = (
{
layerId = "E876E4BA-4024-4F05-97F6-A7AFE1BCFA82";
name = "Bold Italic";
paths = (
{
closed = 1;
nodes = (
"296 -15 OFFCURVE",
"357 6 OFFCURVE",
"411 48 CURVE",
"401 0 LINE",
"571 0 LINE",
"673 480 LINE",
"497 480 LINE",
"488 441 LINE",
"456 475 OFFCURVE",
"403 495 OFFCURVE",
"336 495 CURVE SMOOTH",
"183 495 OFFCURVE",
"59 391 OFFCURVE",
"26 239 CURVE SMOOTH",
"-6 85 OFFCURVE",
"81 -15 OFFCURVE",
"227 -15 CURVE SMOOTH"
);
},
{
closed = 1;
nodes = (
"217 121 OFFCURVE",
"192 165 OFFCURVE",
"207 239 CURVE SMOOTH",
"223 313 OFFCURVE",
"282 358 OFFCURVE",
"353 358 CURVE SMOOTH",
"407 358 OFFCURVE",
"446 328 OFFCURVE",
"454 282 CURVE",
"436 197 LINE",
"408 151 OFFCURVE",
"356 121 OFFCURVE",
"302 121 CURVE SMOOTH"
);
},
{
closed = 1;
nodes = (
"553 525 OFFCURVE",
"633 581 OFFCURVE",
"653 675 CURVE",
"538 675 LINE",
"530 637 OFFCURVE",
"507 621 OFFCURVE",
"469 621 CURVE SMOOTH",
"431 621 OFFCURVE",
"415 637 OFFCURVE",
"423 675 CURVE",
"308 675 LINE",
"288 581 OFFCURVE",
"345 525 OFFCURVE",
"449 525 CURVE SMOOTH"
);
},
{
closed = 1;
nodes = (
"548 697 LINE",
"644 824 LINE",
"501 824 LINE",
"424 697 LINE"
);
}
);
width = 661;
}
);
leftKerningGroup = a;
note = abreveacute;
rightKerningGroup = a;
unicode = 1EAF;
},
{
glyphname = abrevedotbelow;
lastChange = "2015-11-30 02:09:02 +0000";
layers = (
{
layerId = "E876E4BA-4024-4F05-97F6-A7AFE1BCFA82";
name = "Bold Italic";
paths = (
{
closed = 1;
nodes = (
"296 -15 OFFCURVE",
"357 6 OFFCURVE",
"411 48 CURVE",
"401 0 LINE",
"571 0 LINE",
"673 480 LINE",
"497 480 LINE",
"488 441 LINE",
"456 475 OFFCURVE",
"403 495 OFFCURVE",
"336 495 CURVE SMOOTH",
"183 495 OFFCURVE",
"59 391 OFFCURVE",
"26 239 CURVE SMOOTH",
"-6 85 OFFCURVE",
"81 -15 OFFCURVE",
"227 -15 CURVE SMOOTH"
);
},
{
closed = 1;
nodes = (
"330 -200 OFFCURVE",
"370 -166 OFFCURVE",
"379 -123 CURVE SMOOTH",
"388 -80 OFFCURVE",
"362 -46 OFFCURVE",
"321 -46 CURVE SMOOTH",
"279 -46 OFFCURVE",
"235 -80 OFFCURVE",
"226 -123 CURVE SMOOTH",
"217 -166 OFFCURVE",
"246 -200 OFFCURVE",
"288 -200 CURVE SMOOTH"
);
},
{
closed = 1;
nodes = (
"217 121 OFFCURVE",
"192 165 OFFCURVE",
"207 239 CURVE SMOOTH",
"223 313 OFFCURVE",
"282 358 OFFCURVE",
"353 358 CURVE SMOOTH",
"407 358 OFFCURVE",
"446 328 OFFCURVE",
"454 282 CURVE",
"436 197 LINE",
"408 151 OFFCURVE",
"356 121 OFFCURVE",
"302 121 CURVE SMOOTH"
);
},
{
closed = 1;
nodes = (
"537 525 OFFCURVE",
"617 593 OFFCURVE",
"640 698 CURVE",
"504 698 LINE",
"495 657 OFFCURVE",
"471 636 OFFCURVE",
"438 636 CURVE SMOOTH",
"404 636 OFFCURVE",
"391 657 OFFCURVE",
"400 698 CURVE",
"275 698 LINE",
"252 593 OFFCURVE",
"303 525 OFFCURVE",
"420 525 CURVE SMOOTH"
);
}
);
width = 661;
}
);
leftKerningGroup = a;
note = abrevedotbelow;
rightKerningGroup = a;
unicode = 1EB7;
},
{
glyphname = abrevegrave;
lastChange = "2015-11-30 02:09:01 +0000";
layers = (
{
layerId = "E876E4BA-4024-4F05-97F6-A7AFE1BCFA82";
name = "Bold Italic";
paths = (
{
closed = 1;
nodes = (
"296 -15 OFFCURVE",
"357 6 OFFCURVE",
"411 48 CURVE",
"401 0 LINE",
"571 0 LINE",
"673 480 LINE",
"497 480 LINE",
"488 441 LINE",
"456 475 OFFCURVE",
"403 495 OFFCURVE",
"336 495 CURVE SMOOTH",
"183 495 OFFCURVE",
"59 391 OFFCURVE",
"26 239 CURVE SMOOTH",
"-6 85 OFFCURVE",
"81 -15 OFFCURVE",
"227 -15 CURVE SMOOTH"
);
},
{
closed = 1;
nodes = (
"217 121 OFFCURVE",
"192 165 OFFCURVE",
"207 239 CURVE SMOOTH",
"223 313 OFFCURVE",
"282 358 OFFCURVE",
"353 358 CURVE SMOOTH",
"407 358 OFFCURVE",
"446 328 OFFCURVE",
"454 282 CURVE",
"436 197 LINE",
"408 151 OFFCURVE",
"356 121 OFFCURVE",
"302 121 CURVE SMOOTH"
);
},
{
closed = 1;
nodes = (
"554 523 OFFCURVE",
"634 579 OFFCURVE",
"654 673 CURVE",
"540 673 LINE",
"532 635 OFFCURVE",
"508 619 OFFCURVE",
"470 619 CURVE SMOOTH",
"432 619 OFFCURVE",
"417 635 OFFCURVE",
"425 673 CURVE",
"309 673 LINE",
"289 579 OFFCURVE",
"346 523 OFFCURVE",
"450 523 CURVE SMOOTH"
);
},
{
closed = 1;
nodes = (
"547 695 LINE",
"524 822 LINE",
"380 822 LINE",
"423 695 LINE"
);
}
);
width = 661;
}
);
leftKerningGroup = a;
note = abrevegrave;
rightKerningGroup = a;
unicode = 1EB1;
},
{
glyphname = abrevehookabove;
lastChange = "2015-11-30 02:09:02 +0000";
layers = (
{
layerId = "E876E4BA-4024-4F05-97F6-A7AFE1BCFA82";
name = "Bold Italic";
paths = (
{
closed = 1;
nodes = (
"296 -15 OFFCURVE",
"357 6 OFFCURVE",
"411 48 CURVE",
"401 0 LINE",
"571 0 LINE",
"673 480 LINE",
"497 480 LINE",
"488 441 LINE",
"456 475 OFFCURVE",
"403 495 OFFCURVE",
"336 495 CURVE SMOOTH",
"183 495 OFFCURVE",
"59 391 OFFCURVE",
"26 239 CURVE SMOOTH",
"-6 85 OFFCURVE",
"81 -15 OFFCURVE",
"227 -15 CURVE SMOOTH"
);
},
{
closed = 1;
nodes = (
"217 121 OFFCURVE",
"192 165 OFFCURVE",
"207 239 CURVE SMOOTH",
"223 313 OFFCURVE",
"282 358 OFFCURVE",
"353 358 CURVE SMOOTH",
"407 358 OFFCURVE",
"446 328 OFFCURVE",
"454 282 CURVE",
"436 197 LINE",
"408 151 OFFCURVE",
"356 121 OFFCURVE",
"302 121 CURVE SMOOTH"
);
},
{
closed = 1;
nodes = (
"552 523 OFFCURVE",
"632 579 OFFCURVE",
"652 673 CURVE",
"538 673 LINE",
"530 635 OFFCURVE",
"506 619 OFFCURVE",
"468 619 CURVE SMOOTH",
"430 619 OFFCURVE",
"415 635 OFFCURVE",
"423 673 CURVE",
"307 673 LINE",
"287 579 OFFCURVE",
"344 523 OFFCURVE",
"448 523 CURVE SMOOTH"
);
},
{
closed = 1;
nodes = (
"540 683 LINE",
"544 702 LINE",
"587 711 OFFCURVE",
"611 734 OFFCURVE",
"619 771 CURVE SMOOTH",
"628 815 OFFCURVE",
"599 844 OFFCURVE",
"526 844 CURVE SMOOTH",
"499 844 OFFCURVE",
"461 839 OFFCURVE",
"438 832 CURVE",
"426 773 LINE",
"434 777 OFFCURVE",
"451 780 OFFCURVE",
"463 780 CURVE SMOOTH",
"490 780 OFFCURVE",
"502 774 OFFCURVE",
"499 757 CURVE",
"494 737 OFFCURVE",
"474 731 OFFCURVE",
"442 731 CURVE",
"432 683 LINE"
);
}
);
width = 661;
}
);
leftKerningGroup = a;
note = abrevehookabove;
rightKerningGroup = a;
unicode = 1EB3;
},
{
glyphname = abrevetilde;
lastChange = "2015-11-30 02:09:02 +0000";
layers = (
{
layerId = "E876E4BA-4024-4F05-97F6-A7AFE1BCFA82";
name = "Bold Italic";
paths = (
{
closed = 1;
nodes = (
"296 -15 OFFCURVE",
"357 6 OFFCURVE",
"411 48 CURVE",
"401 0 LINE",
"571 0 LINE",
"673 480 LINE",
"497 480 LINE",
"488 441 LINE",
"456 475 OFFCURVE",
"403 495 OFFCURVE",
"336 495 CURVE SMOOTH",
"183 495 OFFCURVE",
"59 391 OFFCURVE",
"26 239 CURVE SMOOTH",
"-6 85 OFFCURVE",
"81 -15 OFFCURVE",
"227 -15 CURVE SMOOTH"
);
},
{
closed = 1;
nodes = (
"217 121 OFFCURVE",
"192 165 OFFCURVE",
"207 239 CURVE SMOOTH",
"223 313 OFFCURVE",
"282 358 OFFCURVE",
"353 358 CURVE SMOOTH",
"407 358 OFFCURVE",
"446 328 OFFCURVE",
"454 282 CURVE",
"436 197 LINE",
"408 151 OFFCURVE",
"356 121 OFFCURVE",
"302 121 CURVE SMOOTH"
);
},
{
closed = 1;
nodes = (
"562 525 OFFCURVE",
"642 581 OFFCURVE",
"662 675 CURVE",
"548 675 LINE",
"540 637 OFFCURVE",
"516 621 OFFCURVE",
"478 621 CURVE SMOOTH",
"440 621 OFFCURVE",
"425 637 OFFCURVE",
"433 675 CURVE",
"317 675 LINE",
"297 581 OFFCURVE",
"354 525 OFFCURVE",
"458 525 CURVE SMOOTH"
);
},
{
closed = 1;
nodes = (
"611 705 OFFCURVE",
"641 715 OFFCURVE",
"665 738 CURVE",
"687 840 LINE",
"657 811 OFFCURVE",
"627 799 OFFCURVE",
"596 799 CURVE SMOOTH",
"545 799 OFFCURVE",
"498 841 OFFCURVE",
"445 841 CURVE SMOOTH",
"409 841 OFFCURVE",
"379 831 OFFCURVE",
"355 807 CURVE",
"333 706 LINE",
"363 735 OFFCURVE",
"393 747 OFFCURVE",
"425 747 CURVE SMOOTH",
"475 747 OFFCURVE",
"519 705 OFFCURVE",
"576 705 CURVE SMOOTH"
);
}
);
width = 661;
}
);
leftKerningGroup = a;
note = abrevetilde;
rightKerningGroup = a;
unicode = 1EB5;
},
{
glyphname = acaron;
lastChange = "2015-11-30 02:09:01 +0000";
layers = (
{
layerId = "E876E4BA-4024-4F05-97F6-A7AFE1BCFA82";
name = "Bold Italic";
paths = (
{
closed = 1;
nodes = (
"296 -15 OFFCURVE",
"357 6 OFFCURVE",
"411 48 CURVE",
"401 0 LINE",
"571 0 LINE",
"673 480 LINE",
"497 480 LINE",
"488 441 LINE",
"456 475 OFFCURVE",
"403 495 OFFCURVE",
"336 495 CURVE SMOOTH",
"183 495 OFFCURVE",
"59 391 OFFCURVE",
"26 239 CURVE SMOOTH",
"-6 85 OFFCURVE",
"81 -15 OFFCURVE",
"227 -15 CURVE SMOOTH"
);
},
{
closed = 1;
nodes = (
"217 121 OFFCURVE",
"192 165 OFFCURVE",
"207 239 CURVE SMOOTH",
"223 313 OFFCURVE",
"282 358 OFFCURVE",
"353 358 CURVE SMOOTH",
"407 358 OFFCURVE",
"446 328 OFFCURVE",
"454 282 CURVE",
"436 197 LINE",
"408 151 OFFCURVE",
"356 121 OFFCURVE",
"302 121 CURVE SMOOTH"
);
},
{
closed = 1;
nodes = (
"521 525 LINE",
"715 706 LINE",
"536 706 LINE",
"458 621 LINE",
"416 706 LINE",
"247 706 LINE",
"364 525 LINE"
);
}
);
width = 676;
}
);
leftKerningGroup = a;
note = acaron;
rightKerningGroup = a;
unicode = 01CE;
},
{
glyphname = acircumflex;
lastChange = "2015-11-30 02:09:02 +0000";
layers = (
{
layerId = "E876E4BA-4024-4F05-97F6-A7AFE1BCFA82";
name = "Bold Italic";
paths = (
{
closed = 1;
nodes = (
"296 -15 OFFCURVE",
"357 6 OFFCURVE",
"411 48 CURVE",
"401 0 LINE",
"571 0 LINE",
"673 480 LINE",
"497 480 LINE",
"488 441 LINE",
"456 475 OFFCURVE",
"403 495 OFFCURVE",
"336 495 CURVE SMOOTH",
"183 495 OFFCURVE",
"59 391 OFFCURVE",
"26 239 CURVE SMOOTH",
"-6 85 OFFCURVE",
"81 -15 OFFCURVE",
"227 -15 CURVE SMOOTH"
);
},
{
closed = 1;
nodes = (
"217 121 OFFCURVE",
"192 165 OFFCURVE",
"207 239 CURVE SMOOTH",
"223 313 OFFCURVE",
"282 358 OFFCURVE",
"353 358 CURVE SMOOTH",
"407 358 OFFCURVE",
"446 328 OFFCURVE",
"454 282 CURVE",
"436 197 LINE",
"408 151 OFFCURVE",
"356 121 OFFCURVE",
"302 121 CURVE SMOOTH"
);
},
{
closed = 1;
nodes = (
"374 525 LINE",
"452 610 LINE",
"494 525 LINE",
"663 525 LINE",
"545 706 LINE",
"388 706 LINE",
"195 525 LINE"
);
}
);
width = 662;
}
);
leftKerningGroup = a;
note = acircumflex;
rightKerningGroup = a;
unicode = 00E2;
},
{
glyphname = acircumflexacute;
lastChange = "2015-11-30 02:09:02 +0000";
layers = (
{
layerId = "E876E4BA-4024-4F05-97F6-A7AFE1BCFA82";
name = "Bold Italic";
paths = (
{
closed = 1;
nodes = (
"296 -15 OFFCURVE",
"357 6 OFFCURVE",
"411 48 CURVE",
"401 0 LINE",
"571 0 LINE",
"673 480 LINE",
"497 480 LINE",
"488 441 LINE",
"456 475 OFFCURVE",
"403 495 OFFCURVE",
"336 495 CURVE SMOOTH",
"183 495 OFFCURVE",
"59 391 OFFCURVE",
"26 239 CURVE SMOOTH",
"-6 85 OFFCURVE",
"81 -15 OFFCURVE",
"227 -15 CURVE SMOOTH"
);
},
{
closed = 1;
nodes = (
"217 121 OFFCURVE",
"192 165 OFFCURVE",
"207 239 CURVE SMOOTH",
"223 313 OFFCURVE",
"282 358 OFFCURVE",
"353 358 CURVE SMOOTH",
"407 358 OFFCURVE",
"446 328 OFFCURVE",
"454 282 CURVE",
"436 197 LINE",
"408 151 OFFCURVE",
"356 121 OFFCURVE",
"302 121 CURVE SMOOTH"
);
},
{
closed = 1;
nodes = (
"391 525 LINE",
"464 592 LINE",
"507 525 LINE",
"662 525 LINE",
"545 682 LINE",
"421 682 LINE",
"235 525 LINE"
);
},
{
closed = 1;
nodes = (
"742 641 LINE",
"853 780 LINE",
"691 780 LINE",
"602 641 LINE"
);
}
);
width = 647;
}
);
leftKerningGroup = a;
note = acircumflexacute;
rightKerningGroup = a;
unicode = 1EA5;
},
{
glyphname = acircumflexdotbelow;
lastChange = "2015-11-30 02:09:01 +0000";
layers = (
{
layerId = "E876E4BA-4024-4F05-97F6-A7AFE1BCFA82";
name = "Bold Italic";
paths = (
{
closed = 1;
nodes = (
"296 -15 OFFCURVE",
"357 6 OFFCURVE",
"411 48 CURVE",
"401 0 LINE",
"571 0 LINE",
"673 480 LINE",
"497 480 LINE",
"488 441 LINE",
"456 475 OFFCURVE",
"403 495 OFFCURVE",
"336 495 CURVE SMOOTH",
"183 495 OFFCURVE",
"59 391 OFFCURVE",
"26 239 CURVE SMOOTH",
"-6 85 OFFCURVE",
"81 -15 OFFCURVE",
"227 -15 CURVE SMOOTH"
);
},
{
closed = 1;
nodes = (
"331 -200 OFFCURVE",
"371 -166 OFFCURVE",
"380 -123 CURVE SMOOTH",
"389 -80 OFFCURVE",
"363 -46 OFFCURVE",
"322 -46 CURVE SMOOTH",
"280 -46 OFFCURVE",
"236 -80 OFFCURVE",
"227 -123 CURVE SMOOTH",
"218 -166 OFFCURVE",
"247 -200 OFFCURVE",
"289 -200 CURVE SMOOTH"
);
},
{
closed = 1;
nodes = (
"217 121 OFFCURVE",
"192 165 OFFCURVE",
"207 239 CURVE SMOOTH",
"223 313 OFFCURVE",
"282 358 OFFCURVE",
"353 358 CURVE SMOOTH",
"407 358 OFFCURVE",
"446 328 OFFCURVE",
"454 282 CURVE",
"436 197 LINE",
"408 151 OFFCURVE",
"356 121 OFFCURVE",
"302 121 CURVE SMOOTH"
);
},
{
closed = 1;
nodes = (
"361 525 LINE",
"439 610 LINE",
"481 525 LINE",
"650 525 LINE",
"532 706 LINE",
"375 706 LINE",
"182 525 LINE"
);
}
);
width = 661;
}
);
leftKerningGroup = a;
note = acircumflexdotbelow;
rightKerningGroup = a;
unicode = 1EAD;
},
{
glyphname = acircumflexgrave;
lastChange = "2015-11-30 02:09:02 +0000";
layers = (
{
layerId = "E876E4BA-4024-4F05-97F6-A7AFE1BCFA82";
name = "Bold Italic";
paths = (
{
closed = 1;
nodes = (
"296 -15 OFFCURVE",
"357 6 OFFCURVE",
"411 48 CURVE",
"401 0 LINE",
"571 0 LINE",
"673 480 LINE",
"497 480 LINE",
"488 441 LINE",
"456 475 OFFCURVE",
"403 495 OFFCURVE",
"336 495 CURVE SMOOTH",
"183 495 OFFCURVE",
"59 391 OFFCURVE",
"26 239 CURVE SMOOTH",
"-6 85 OFFCURVE",
"81 -15 OFFCURVE",
"227 -15 CURVE SMOOTH"
);
},
{
closed = 1;
nodes = (
"217 121 OFFCURVE",
"192 165 OFFCURVE",
"207 239 CURVE SMOOTH",
"223 313 OFFCURVE",
"282 358 OFFCURVE",
"353 358 CURVE SMOOTH",
"407 358 OFFCURVE",
"446 328 OFFCURVE",
"454 282 CURVE",
"436 197 LINE",
"408 151 OFFCURVE",
"356 121 OFFCURVE",
"302 121 CURVE SMOOTH"
);
},
{
closed = 1;
nodes = (
"344 641 LINE",
"315 780 LINE",
"153 780 LINE",
"204 641 LINE"
);
},
{
closed = 1;
nodes = (
"390 525 LINE",
"463 592 LINE",
"506 525 LINE",
"661 525 LINE",
"543 682 LINE",
"420 682 LINE",
"234 525 LINE"
);
}
);
width = 661;
}
);
leftKerningGroup = a;
note = acircumflexgrave;
rightKerningGroup = a;
unicode = 1EA7;
},
{
glyphname = acircumflexhookabove;
lastChange = "2015-11-30 02:09:01 +0000";
layers = (
{
layerId = "E876E4BA-4024-4F05-97F6-A7AFE1BCFA82";
name = "Bold Italic";
paths = (
{
closed = 1;
nodes = (
"296 -15 OFFCURVE",
"357 6 OFFCURVE",
"411 48 CURVE",
"401 0 LINE",
"571 0 LINE",
"673 480 LINE",
"497 480 LINE",
"488 441 LINE",
"456 475 OFFCURVE",
"403 495 OFFCURVE",
"336 495 CURVE SMOOTH",
"183 495 OFFCURVE",
"59 391 OFFCURVE",
"26 239 CURVE SMOOTH",
"-6 85 OFFCURVE",
"81 -15 OFFCURVE",
"227 -15 CURVE SMOOTH"
);
},
{
closed = 1;
nodes = (
"217 121 OFFCURVE",
"192 165 OFFCURVE",
"207 239 CURVE SMOOTH",
"223 313 OFFCURVE",
"282 358 OFFCURVE",
"353 358 CURVE SMOOTH",
"407 358 OFFCURVE",
"446 328 OFFCURVE",
"454 282 CURVE",
"436 197 LINE",
"408 151 OFFCURVE",
"356 121 OFFCURVE",
"302 121 CURVE SMOOTH"
);
},
{
closed = 1;
nodes = (
"383 525 LINE",
"456 592 LINE",
"499 525 LINE",
"654 525 LINE",
"537 682 LINE",
"413 682 LINE",
"227 525 LINE"
);
},
{
closed = 1;
nodes = (
"703 630 LINE",
"708 655 LINE",
"748 664 OFFCURVE",
"776 687 OFFCURVE",
"783 720 CURVE SMOOTH",
"792 764 OFFCURVE",
"761 794 OFFCURVE",
"691 794 CURVE SMOOTH",
"664 794 OFFCURVE",
"624 788 OFFCURVE",
"602 782 CURVE",
"590 723 LINE",
"599 727 OFFCURVE",
"616 730 OFFCURVE",
"628 730 CURVE SMOOTH",
"655 730 OFFCURVE",
"666 723 OFFCURVE",
"663 707 CURVE SMOOTH",
"659 687 OFFCURVE",
"639 681 OFFCURVE",
"606 681 CURVE",
"595 630 LINE"
);
}
);
width = 676;
}
);
leftKerningGroup = a;
note = acircumflexhookabove;
rightKerningGroup = a;
unicode = 1EA9;
},
{
glyphname = acircumflextilde;
lastChange = "2015-11-30 02:09:03 +0000";
layers = (
{
layerId = "E876E4BA-4024-4F05-97F6-A7AFE1BCFA82";
name = "Bold Italic";
paths = (
{
closed = 1;
nodes = (
"296 -15 OFFCURVE",
"357 6 OFFCURVE",
"411 48 CURVE",
"401 0 LINE",
"571 0 LINE",
"673 480 LINE",
"497 480 LINE",
"488 441 LINE",
"456 475 OFFCURVE",
"403 495 OFFCURVE",
"336 495 CURVE SMOOTH",
"183 495 OFFCURVE",
"59 391 OFFCURVE",
"26 239 CURVE SMOOTH",
"-6 85 OFFCURVE",
"81 -15 OFFCURVE",
"227 -15 CURVE SMOOTH"
);
},
{
closed = 1;
nodes = (
"217 121 OFFCURVE",
"192 165 OFFCURVE",
"207 239 CURVE SMOOTH",
"223 313 OFFCURVE",
"282 358 OFFCURVE",
"353 358 CURVE SMOOTH",
"407 358 OFFCURVE",
"446 328 OFFCURVE",
"454 282 CURVE",
"436 197 LINE",
"408 151 OFFCURVE",
"356 121 OFFCURVE",
"302 121 CURVE SMOOTH"
);
},
{
closed = 1;
nodes = (
"388 525 LINE",
"461 592 LINE",
"504 525 LINE",
"659 525 LINE",
"542 682 LINE",
"418 682 LINE",
"232 525 LINE"
);
},
{
closed = 1;
nodes = (
"604 693 OFFCURVE",
"634 703 OFFCURVE",
"658 726 CURVE",
"680 828 LINE",
"651 799 OFFCURVE",
"620 787 OFFCURVE",
"589 787 CURVE SMOOTH",
"539 787 OFFCURVE",
"491 829 OFFCURVE",
"439 829 CURVE SMOOTH",
"403 829 OFFCURVE",
"373 819 OFFCURVE",
"349 795 CURVE",
"327 694 LINE",
"357 723 OFFCURVE",
"387 735 OFFCURVE",
"419 735 CURVE SMOOTH",
"468 735 OFFCURVE",
"513 693 OFFCURVE",
"569 693 CURVE SMOOTH"
);
}
);
width = 661;
}
);
leftKerningGroup = a;
note = acircumflextilde;
rightKerningGroup = a;
unicode = 1EAB;
},
{
glyphname = adieresis;
lastChange = "2015-11-30 02:09:02 +0000";
layers = (
{
layerId = "E876E4BA-4024-4F05-97F6-A7AFE1BCFA82";
name = "Bold Italic";
paths = (
{
closed = 1;
nodes = (
"296 -15 OFFCURVE",
"357 6 OFFCURVE",
"411 48 CURVE",
"401 0 LINE",
"571 0 LINE",
"673 480 LINE",
"497 480 LINE",
"488 441 LINE",
"456 475 OFFCURVE",
"403 495 OFFCURVE",
"336 495 CURVE SMOOTH",
"183 495 OFFCURVE",
"59 391 OFFCURVE",
"26 239 CURVE SMOOTH",
"-6 85 OFFCURVE",
"81 -15 OFFCURVE",
"227 -15 CURVE SMOOTH"
);
},
{
closed = 1;
nodes = (
"217 121 OFFCURVE",
"192 165 OFFCURVE",
"207 239 CURVE SMOOTH",
"223 313 OFFCURVE",
"282 358 OFFCURVE",
"353 358 CURVE SMOOTH",
"407 358 OFFCURVE",
"446 328 OFFCURVE",
"454 282 CURVE",
"436 197 LINE",
"408 151 OFFCURVE",
"356 121 OFFCURVE",
"302 121 CURVE SMOOTH"
);
},
{
closed = 1;
nodes = (
"344 521 OFFCURVE",
"385 554 OFFCURVE",
"394 597 CURVE SMOOTH",
"403 640 OFFCURVE",
"376 675 OFFCURVE",
"334 675 CURVE SMOOTH",
"293 675 OFFCURVE",
"250 640 OFFCURVE",
"241 597 CURVE SMOOTH",
"232 554 OFFCURVE",
"261 521 OFFCURVE",
"302 521 CURVE SMOOTH"
);
},
{
closed = 1;
nodes = (
"579 521 OFFCURVE",
"621 554 OFFCURVE",
"630 597 CURVE SMOOTH",
"639 640 OFFCURVE",
"611 675 OFFCURVE",
"570 675 CURVE SMOOTH",
"528 675 OFFCURVE",
"485 640 OFFCURVE",
"476 597 CURVE SMOOTH",
"467 554 OFFCURVE",
"496 521 OFFCURVE",
"538 521 CURVE SMOOTH"
);
}
);
width = 661;
}
);
leftKerningGroup = a;
note = adieresis;
rightKerningGroup = a;
unicode = 00E4;
},
{
glyphname = adotbelow;
lastChange = "2015-11-30 02:09:02 +0000";
layers = (
{
layerId = "E876E4BA-4024-4F05-97F6-A7AFE1BCFA82";
name = "Bold Italic";
paths = (
{
closed = 1;
nodes = (
"296 -15 OFFCURVE",
"357 6 OFFCURVE",
"411 48 CURVE",
"401 0 LINE",
"571 0 LINE",
"673 480 LINE",
"497 480 LINE",
"488 441 LINE",
"456 475 OFFCURVE",
"403 495 OFFCURVE",
"336 495 CURVE SMOOTH",
"183 495 OFFCURVE",
"59 391 OFFCURVE",
"26 239 CURVE SMOOTH",
"-6 85 OFFCURVE",
"81 -15 OFFCURVE",
"227 -15 CURVE SMOOTH"
);
},
{
closed = 1;
nodes = (
"333 -200 OFFCURVE",
"373 -166 OFFCURVE",
"382 -123 CURVE SMOOTH",
"391 -80 OFFCURVE",
"365 -46 OFFCURVE",
"324 -46 CURVE SMOOTH",
"282 -46 OFFCURVE",
"238 -80 OFFCURVE",
"229 -123 CURVE SMOOTH",
"220 -166 OFFCURVE",
"249 -200 OFFCURVE",
"291 -200 CURVE SMOOTH"
);
},
{
closed = 1;
nodes = (
"217 121 OFFCURVE",
"192 165 OFFCURVE",
"207 239 CURVE SMOOTH",
"223 313 OFFCURVE",
"282 358 OFFCURVE",
"353 358 CURVE SMOOTH",
"407 358 OFFCURVE",
"446 328 OFFCURVE",
"454 282 CURVE",
"436 197 LINE",
"408 151 OFFCURVE",
"356 121 OFFCURVE",
"302 121 CURVE SMOOTH"
);
}
);
width = 661;
}
);
leftKerningGroup = a;
note = adotbelow;
rightKerningGroup = a;
unicode = 1EA1;
},
{
glyphname = agrave;
lastChange = "2015-11-30 02:09:01 +0000";
layers = (
{
layerId = "E876E4BA-4024-4F05-97F6-A7AFE1BCFA82";
name = "Bold Italic";
paths = (
{
closed = 1;
nodes = (
"296 -15 OFFCURVE",
"357 6 OFFCURVE",
"411 48 CURVE",
"401 0 LINE",
"571 0 LINE",
"673 480 LINE",
"497 480 LINE",
"488 441 LINE",
"456 475 OFFCURVE",
"403 495 OFFCURVE",
"336 495 CURVE SMOOTH",
"183 495 OFFCURVE",
"59 391 OFFCURVE",
"26 239 CURVE SMOOTH",
"-6 85 OFFCURVE",
"81 -15 OFFCURVE",
"227 -15 CURVE SMOOTH"
);
},
{
closed = 1;
nodes = (
"217 121 OFFCURVE",
"192 165 OFFCURVE",
"207 239 CURVE SMOOTH",
"223 313 OFFCURVE",
"282 358 OFFCURVE",
"353 358 CURVE SMOOTH",
"407 358 OFFCURVE",
"446 328 OFFCURVE",
"454 282 CURVE",
"436 197 LINE",
"408 151 OFFCURVE",
"356 121 OFFCURVE",
"302 121 CURVE SMOOTH"
);
},
{
closed = 1;
nodes = (
"532 518 LINE",
"501 696 LINE",
"316 696 LINE",
"369 518 LINE"
);
}
);
width = 661;
}
);
leftKerningGroup = a;
note = agrave;
rightKerningGroup = a;
unicode = 00E0;
},
{
glyphname = ahookabove;
lastChange = "2015-11-30 02:09:02 +0000";
layers = (
{
layerId = "E876E4BA-4024-4F05-97F6-A7AFE1BCFA82";
name = "Bold Italic";
paths = (
{
closed = 1;
nodes = (
"296 -15 OFFCURVE",
"357 6 OFFCURVE",
"411 48 CURVE",
"401 0 LINE",
"571 0 LINE",
"673 480 LINE",
"497 480 LINE",
"488 441 LINE",
"456 475 OFFCURVE",
"403 495 OFFCURVE",
"336 495 CURVE SMOOTH",
"183 495 OFFCURVE",
"59 391 OFFCURVE",
"26 239 CURVE SMOOTH",
"-6 85 OFFCURVE",
"81 -15 OFFCURVE",
"227 -15 CURVE SMOOTH"
);
},
{
closed = 1;
nodes = (
"217 121 OFFCURVE",
"192 165 OFFCURVE",
"207 239 CURVE SMOOTH",
"223 313 OFFCURVE",
"282 358 OFFCURVE",
"353 358 CURVE SMOOTH",
"407 358 OFFCURVE",
"446 328 OFFCURVE",
"454 282 CURVE",
"436 197 LINE",
"408 151 OFFCURVE",
"356 121 OFFCURVE",
"302 121 CURVE SMOOTH"
);
},
{
closed = 1;
nodes = (
"506 526 LINE",
"511 551 LINE",
"570 565 OFFCURVE",
"611 605 OFFCURVE",
"621 653 CURVE SMOOTH",
"634 716 OFFCURVE",
"591 759 OFFCURVE",
"485 759 CURVE SMOOTH",
"445 759 OFFCURVE",
"393 752 OFFCURVE",
"362 743 CURVE",
"344 659 LINE",
"358 665 OFFCURVE",
"387 669 OFFCURVE",
"403 669 CURVE SMOOTH",
"445 669 OFFCURVE",
"460 657 OFFCURVE",
"455 636 CURVE",
"449 605 OFFCURVE",
"415 596 OFFCURVE",
"367 596 CURVE",
"352 526 LINE"
);
}
);
width = 661;
}
);
leftKerningGroup = a;
note = ahookabove;
rightKerningGroup = a;
unicode = 1EA3;
},
{
glyphname = "alpha-latin";
lastChange = "2015-11-30 02:09:02 +0000";
layers = (
{
layerId = "E876E4BA-4024-4F05-97F6-A7AFE1BCFA82";
name = "Bold Italic";
paths = (
{
closed = 1;
nodes = (
"296 -15 OFFCURVE",
"357 6 OFFCURVE",
"411 48 CURVE",
"401 0 LINE",
"571 0 LINE",
"673 480 LINE",
"497 480 LINE",
"488 441 LINE",
"456 475 OFFCURVE",
"403 495 OFFCURVE",
"336 495 CURVE SMOOTH",
"183 495 OFFCURVE",
"59 391 OFFCURVE",
"26 239 CURVE SMOOTH",
"-6 85 OFFCURVE",
"81 -15 OFFCURVE",
"227 -15 CURVE SMOOTH"
);
},
{
closed = 1;
nodes = (
"217 121 OFFCURVE",
"192 165 OFFCURVE",
"207 239 CURVE SMOOTH",
"223 313 OFFCURVE",
"282 358 OFFCURVE",
"353 358 CURVE SMOOTH",
"407 358 OFFCURVE",
"446 328 OFFCURVE",
"454 282 CURVE",
"436 197 LINE",
"408 151 OFFCURVE",
"356 121 OFFCURVE",
"302 121 CURVE SMOOTH"
);
}
);
width = 666;
}
);
leftKerningGroup = a;
note = ascript;
rightKerningGroup = a;
unicode = 0251;
},
{
glyphname = amacron;
lastChange = "2015-11-30 02:09:02 +0000";
layers = (
{
layerId = "E876E4BA-4024-4F05-97F6-A7AFE1BCFA82";
name = "Bold Italic";
paths = (
{
closed = 1;
nodes = (
"296 -15 OFFCURVE",
"357 6 OFFCURVE",
"411 48 CURVE",
"401 0 LINE",
"571 0 LINE",
"673 480 LINE",
"497 480 LINE",
"488 441 LINE",
"456 475 OFFCURVE",
"403 495 OFFCURVE",
"336 495 CURVE SMOOTH",
"183 495 OFFCURVE",
"59 391 OFFCURVE",
"26 239 CURVE SMOOTH",
"-6 85 OFFCURVE",
"81 -15 OFFCURVE",
"227 -15 CURVE SMOOTH"
);
},
{
closed = 1;
nodes = (
"217 121 OFFCURVE",
"192 165 OFFCURVE",
"207 239 CURVE SMOOTH",
"223 313 OFFCURVE",
"282 358 OFFCURVE",
"353 358 CURVE SMOOTH",
"407 358 OFFCURVE",
"446 328 OFFCURVE",
"454 282 CURVE",
"436 197 LINE",
"408 151 OFFCURVE",
"356 121 OFFCURVE",
"302 121 CURVE SMOOTH"
);
},
{
closed = 1;
nodes = (
"599 526 LINE",
"623 639 LINE",
"279 639 LINE",
"255 526 LINE"
);
}
);
width = 661;
}
);
leftKerningGroup = a;
note = amacron;
rightKerningGroup = a;
unicode = 0101;
},
